<svg width="180" height="180" viewBox="0 0 180 180" fill="none" xmlns="http://www.w3.org/2000/svg">
<path fill-rule="evenodd" clip-rule="evenodd" d="M148.75 37.5L122.5 11.25H92.5H55L36.25 30L10 56.25V86.25V123.75L28.75 142.5L55 168.75H85H122.5L141.25 150L167.5 123.75V93.75V56.25L148.75 37.5ZM148.75 37.5L130 56.25L167.5 93.75H141.25V150L122.5 131.25L85 168.75V142.5H28.75L47.5 123.75L10 86.25H36.25V30L55 48.75L92.5 11.25V37.5H148.75Z" fill="#F7F5F2"/>
<path opacity="0.989" fill-rule="evenodd" clip-rule="evenodd" d="M67.1094 53.6719C73.3891 53.7763 78.1547 56.4847 81.4062 61.7969C82.4936 63.8547 83.1447 66.0422 83.3594 68.3594C93.9841 68.4895 104.609 68.5677 115.234 68.5938C119.867 69.0598 122.602 71.5859 123.438 76.1719C123.516 86.9009 123.542 97.6302 123.516 108.359C124.866 108.238 126.168 108.421 127.422 108.906C128.23 109.454 128.725 110.209 128.906 111.172C129.01 113.464 129.01 115.755 128.906 118.047C128.025 122.886 125.135 125.568 120.234 126.094C100.026 126.198 79.8177 126.198 59.6094 126.094C54.7089 125.568 51.8183 122.886 50.9375 118.047C50.8333 115.755 50.8333 113.464 50.9375 111.172C51.2927 109.619 52.2563 108.707 53.8281 108.438C54.6598 108.36 55.4932 108.333 56.3281 108.359C56.3542 99.0363 56.3281 89.7134 56.25 80.3906C51.9148 75.4766 50.821 69.9036 52.9688 63.6719C55.6817 57.5106 60.3952 54.1773 67.1094 53.6719Z" fill="#D5A618"/>
<path fill-rule="evenodd" clip-rule="evenodd" d="M65.3908 55.3919C67.0606 55.3691 68.7273 55.4212 70.3908 55.5482C69.1479 60.2802 67.9761 65.0197 66.8751 69.7669C67.0497 70.0207 67.284 70.1769 67.5783 70.2357C72.2122 69.0641 76.8476 67.9183 81.4845 66.7982C82.3489 74.2643 79.3801 79.5507 72.5783 82.6575C66.045 84.7422 60.6023 83.1538 56.2501 77.8919C53.0289 73.0479 52.6643 67.9958 55.1564 62.7357C57.5054 58.7968 60.9169 56.3489 65.3908 55.3919Z" fill="#FEFEFE"/>
<path fill-rule="evenodd" clip-rule="evenodd" d="M71.7969 56.0156C76.007 57.4386 79.0019 60.199 80.7812 64.2969C80.9339 64.6469 81.012 65.0115 81.0156 65.3906C76.9058 66.405 72.7913 67.3947 68.6719 68.3594C69.7387 64.2479 70.7805 60.1333 71.7969 56.0156Z" fill="#D5A618"/>
<path fill-rule="evenodd" clip-rule="evenodd" d="M121.797 76.1699C121.797 86.8992 121.797 97.6282 121.797 108.357C118.28 108.306 114.791 108.358 111.328 108.514C109.925 108.656 108.961 109.385 108.437 110.701C108.317 111.51 108.109 112.291 107.812 113.045C107.591 113.195 107.356 113.325 107.109 113.436C95.5988 113.54 84.0885 113.54 72.578 113.436C71.8007 112.895 71.4621 112.14 71.5624 111.17C71.2351 109.853 70.4279 108.994 69.1405 108.592C65.443 108.514 61.7451 108.488 58.0468 108.514C57.9949 99.6331 58.0469 90.779 58.203 81.9512C63.1113 85.4387 68.3718 86.0378 73.9843 83.7481C79.596 80.992 82.669 76.4867 83.203 70.2324C94.1927 70.2064 105.182 70.2324 116.172 70.3106C118.606 70.8176 120.351 72.1978 121.406 74.4512C121.65 75.0003 121.78 75.5732 121.797 76.1699Z" fill="#FEFEFE"/>
<path fill-rule="evenodd" clip-rule="evenodd" d="M104.141 72.4215C106.419 72.2286 107.774 73.2442 108.203 75.4684C107.833 78.2045 106.322 79.2201 103.672 78.5153C101.845 80.9936 100.048 83.4936 98.2811 86.0153C98.241 86.4086 98.3452 86.7731 98.5936 87.109C98.9246 89.538 97.8829 90.9442 95.4686 91.3278C93.271 90.9776 92.1511 89.6756 92.1093 87.4215C90.9113 86.6923 89.7135 85.9633 88.5155 85.234C87.5343 86.2745 86.3363 86.613 84.9218 86.2497C84.5297 86.0276 84.165 85.7672 83.828 85.4684C83.6718 85.3642 83.5155 85.3642 83.3593 85.4684C82.2341 86.2025 81.0882 86.9056 79.9218 87.5778C80.1804 89.5292 79.3991 90.9094 77.578 91.7184C74.6105 91.9278 73.2824 90.5476 73.5936 87.5778C74.926 85.1709 76.7229 84.7542 78.9843 86.3278C80.2994 85.6053 81.5755 84.824 82.8124 83.984C82.7063 81.4009 83.9302 80.0728 86.4843 79.9997C88.4383 80.5775 89.4279 81.9056 89.453 83.984C90.5532 84.7423 91.6991 85.4194 92.8905 86.0153C94.0657 84.8801 95.4199 84.6197 96.953 85.234C98.7802 82.7558 100.577 80.2558 102.344 77.734C101.186 75.3476 101.785 73.5767 104.141 72.4215Z" fill="#D5A618"/>
<path fill-rule="evenodd" clip-rule="evenodd" d="M104.297 73.9852C106.021 73.76 106.776 74.4892 106.562 76.1727C106.099 77.1197 105.344 77.4583 104.297 77.1883C103.42 76.6762 103.134 75.9211 103.437 74.9227C103.65 74.5284 103.936 74.2159 104.297 73.9852Z" fill="#FEFEFE"/>
<path fill-rule="evenodd" clip-rule="evenodd" d="M107.891 79.9199C111.172 79.8939 114.454 79.9199 117.734 79.9981C118.174 80.5128 118.121 80.9815 117.578 81.4043C114.401 81.5085 111.224 81.5085 108.047 81.4043C107.493 80.9554 107.441 80.4606 107.891 79.9199Z" fill="#D5A618"/>
<path fill-rule="evenodd" clip-rule="evenodd" d="M85.5469 81.4844C87.4525 81.5989 88.0514 82.5364 87.3438 84.2969C86.1119 85.2633 85.1224 85.055 84.375 83.6719C84.236 82.6473 84.6266 81.9181 85.5469 81.4844Z" fill="#FEFEFE"/>
<path fill-rule="evenodd" clip-rule="evenodd" d="M58.2029 81.9531C58.0468 90.7809 57.9947 99.635 58.0466 108.516C57.8386 99.6352 57.8386 90.7289 58.0466 81.7969C58.1414 81.8163 58.1935 81.8683 58.2029 81.9531Z" fill="#84B9F7"/>
<path fill-rule="evenodd" clip-rule="evenodd" d="M107.891 83.9824C109.974 83.9564 112.058 83.9824 114.141 84.0606C114.58 84.5753 114.528 85.044 113.984 85.4668C112.005 85.571 110.026 85.571 108.047 85.4668C107.493 85.0179 107.441 84.5231 107.891 83.9824Z" fill="#D5A618"/>
<path fill-rule="evenodd" clip-rule="evenodd" d="M94.7657 86.4846C96.4829 86.2489 97.2382 86.978 97.0313 88.6721C96.5978 89.5469 95.8946 89.8854 94.922 89.6877C94.0115 89.1982 93.6731 88.443 93.9063 87.4221C94.1188 87.0279 94.4053 86.7154 94.7657 86.4846Z" fill="#FEFEFE"/>
<path fill-rule="evenodd" clip-rule="evenodd" d="M76.0154 86.9531C78.1439 86.9691 78.7689 87.9327 77.8904 89.8438C75.8854 90.702 74.9739 90.0509 75.1561 87.8906C75.3686 87.4964 75.655 87.1839 76.0154 86.9531Z" fill="#FEFEFE"/>
<path fill-rule="evenodd" clip-rule="evenodd" d="M83.6719 91.6406C84.9739 91.6406 86.2761 91.6406 87.5781 91.6406C87.5781 96.5886 87.5781 101.536 87.5781 106.484C86.2761 106.484 84.9739 106.484 83.6719 106.484C83.6719 101.536 83.6719 96.5886 83.6719 91.6406Z" fill="#D5A618"/>
<path fill-rule="evenodd" clip-rule="evenodd" d="M107.89 91.64C106.588 91.64 105.286 91.64 103.984 91.64C103.984 96.588 103.984 101.536 103.984 106.484C103.828 101.51 103.776 96.5105 103.828 91.4837C105.211 91.4328 106.565 91.4848 107.89 91.64Z" fill="#7EB3F4"/>
<path fill-rule="evenodd" clip-rule="evenodd" d="M107.891 91.6406C107.891 96.5886 107.891 101.536 107.891 106.484C106.589 106.484 105.286 106.484 103.984 106.484C103.984 101.536 103.984 96.5886 103.984 91.6406C105.286 91.6406 106.589 91.6406 107.891 91.6406Z" fill="#D5A618"/>
<path fill-rule="evenodd" clip-rule="evenodd" d="M62.8905 95.0762C66.0159 95.0501 69.1409 95.0762 72.2655 95.1543C73.0286 95.5492 73.0806 96.0179 72.4217 96.5606C69.1925 96.6648 65.9634 96.6648 62.7342 96.5606C62.2867 95.9943 62.3388 95.4995 62.8905 95.0762Z" fill="#D5A618"/>
<path fill-rule="evenodd" clip-rule="evenodd" d="M93.8281 97.5781C95.1302 97.5781 96.4323 97.5781 97.7344 97.5781C97.7344 100.547 97.7344 103.516 97.7344 106.484C96.4323 106.484 95.1302 106.484 93.8281 106.484C93.8281 103.516 93.8281 100.547 93.8281 97.5781Z" fill="#D5A618"/>
<path fill-rule="evenodd" clip-rule="evenodd" d="M62.7345 99.2949C64.8185 99.2689 66.9019 99.2949 68.9845 99.3731C69.3805 99.7773 69.3805 100.194 68.9845 100.623C66.9012 100.727 64.8179 100.727 62.7345 100.623C62.3281 100.181 62.3281 99.7382 62.7345 99.2949Z" fill="#D5A618"/>
<path fill-rule="evenodd" clip-rule="evenodd" d="M73.5156 101.953C74.8177 101.953 76.1198 101.953 77.4219 101.953C77.4219 103.464 77.4219 104.974 77.4219 106.484C76.1198 106.484 74.8177 106.484 73.5156 106.484C73.5156 104.974 73.5156 103.464 73.5156 101.953Z" fill="#D5A618"/>
<path fill-rule="evenodd" clip-rule="evenodd" d="M121.797 76.1719C121.953 86.9267 122.005 97.708 121.953 108.516C118.411 108.516 114.87 108.516 111.328 108.516C114.791 108.36 118.28 108.308 121.797 108.359C121.797 97.6302 121.797 86.9011 121.797 76.1719Z" fill="#BAD6FA"/>
<path fill-rule="evenodd" clip-rule="evenodd" d="M73.0469 115.078C74.007 115.233 74.9966 115.285 76.0156 115.234C75.9672 115.736 76.0192 116.205 76.1719 116.641C76.2948 118.352 77.1281 119.576 78.6719 120.313C82.4144 120.492 86.1644 120.57 89.9219 120.547C93.4636 120.521 97.0052 120.495 100.547 120.469C102.411 119.879 103.453 118.603 103.672 116.641C103.825 116.205 103.877 115.736 103.828 115.234C104.847 115.285 105.837 115.233 106.797 115.078C108.806 114.656 109.821 113.406 109.844 111.328C110.016 110.791 110.355 110.401 110.859 110.156C115.964 110.052 121.068 110.052 126.172 110.156C126.771 110.339 127.161 110.729 127.344 111.328C127.448 113.516 127.448 115.703 127.344 117.891C126.652 121.447 124.542 123.609 121.016 124.375C100.182 124.479 79.3489 124.479 58.5156 124.375C55.1641 123.471 53.1588 121.31 52.5 117.891C52.3958 115.703 52.3958 113.516 52.5 111.328C52.6726 110.791 53.0112 110.401 53.5156 110.156C58.6719 110.052 63.8281 110.052 68.9844 110.156C69.4888 110.401 69.8273 110.791 70 111.328C70.027 113.41 71.0427 114.66 73.0469 115.078Z" fill="white"/>
<path fill-rule="evenodd" clip-rule="evenodd" d="M73.0469 115.078C74.0886 115.078 75.1302 115.078 76.1719 115.078C76.1719 115.599 76.1719 116.12 76.1719 116.641C76.0192 116.205 75.9672 115.736 76.0156 115.234C74.9966 115.285 74.007 115.233 73.0469 115.078Z" fill="#99C3F5"/>
<path fill-rule="evenodd" clip-rule="evenodd" d="M102.109 116.797C102.109 116.276 102.109 115.755 102.109 115.234C93.9842 115.234 85.8593 115.234 77.7343 115.234C77.7343 115.755 77.7343 116.276 77.7343 116.797C77.5808 116.256 77.5288 115.683 77.578 115.078C85.8072 115.078 94.0363 115.078 102.265 115.078C102.315 115.683 102.263 116.256 102.109 116.797Z" fill="#B5D4FA"/>
<path fill-rule="evenodd" clip-rule="evenodd" d="M106.797 115.078C105.837 115.233 104.847 115.285 103.828 115.234C103.877 115.736 103.825 116.205 103.672 116.641C103.672 116.12 103.672 115.599 103.672 115.078C104.714 115.078 105.755 115.078 106.797 115.078Z" fill="#99C3F5"/>
<path fill-rule="evenodd" clip-rule="evenodd" d="M102.109 116.797C101.959 118.015 101.282 118.77 100.078 119.062C93.2552 119.167 86.4323 119.167 79.6094 119.062C78.4936 118.703 77.8686 117.948 77.7344 116.797C77.7344 116.276 77.7344 115.755 77.7344 115.234C85.8594 115.234 93.9844 115.234 102.109 115.234C102.109 115.755 102.109 116.276 102.109 116.797Z" fill="#FCFDFE"/>
</svg>
