<svg width="180" height="180" viewBox="0 0 180 180" fill="none" xmlns="http://www.w3.org/2000/svg">
<path fill-rule="evenodd" clip-rule="evenodd" d="M148.75 37.5L122.5 11.25H92.5H55L36.25 30L10 56.25V86.25V123.75L28.75 142.5L55 168.75H85H122.5L141.25 150L167.5 123.75V93.75V56.25L148.75 37.5ZM148.75 37.5L130 56.25L167.5 93.75H141.25V150L122.5 131.25L85 168.75V142.5H28.75L47.5 123.75L10 86.25H36.25V30L55 48.75L92.5 11.25V37.5H148.75Z" fill="#F7F5F2"/>
<path opacity="0.967" fill-rule="evenodd" clip-rule="evenodd" d="M115.234 53.8281C114.349 54.7656 113.464 55.7031 112.578 56.6406C111.693 56.6406 110.807 56.6406 109.922 56.6406C109.922 57.5261 109.922 58.4115 109.922 59.2969C108.599 60.5413 107.297 61.8173 106.016 63.125C105.31 63.1524 104.632 63.2305 103.984 63.3594C100.807 63.3594 97.6302 63.3594 94.4531 63.3594C94.8914 63.2313 95.3602 63.1532 95.8594 63.125C96.9327 62.0778 97.9744 61.0101 98.9844 59.9219C101.484 59.9219 103.984 59.9219 106.484 59.9219C106.458 58.6188 106.484 57.3167 106.562 56.0156C106.82 54.6126 107.627 53.7012 108.984 53.2813C110.703 53.1771 112.422 53.1771 114.141 53.2813C114.558 53.386 114.923 53.5683 115.234 53.8281Z" fill="white"/>
<path opacity="0.98" fill-rule="evenodd" clip-rule="evenodd" d="M115.234 53.8281C115.944 54.2557 116.387 54.8807 116.562 55.7031C116.641 57.1084 116.667 58.5147 116.641 59.9219C117.736 59.8959 118.829 59.9219 119.922 60C120.781 60.1218 121.562 60.4083 122.266 60.8594C121.412 61.6349 120.578 62.4422 119.766 63.2812C119.618 63.3567 119.461 63.3827 119.297 63.3594C118.411 63.3594 117.526 63.3594 116.641 63.3594C116.667 64.7145 116.641 66.0688 116.562 67.4219C115.656 69.6736 113.99 70.5069 111.562 69.9219C110.651 69.8958 109.74 69.8698 108.828 69.8438C107.626 69.3714 106.871 68.512 106.562 67.2656C106.484 65.9645 106.458 64.6625 106.484 63.3594C105.651 63.3594 104.818 63.3594 103.984 63.3594C104.632 63.2305 105.31 63.1524 106.016 63.125C107.297 61.8173 108.599 60.5413 109.922 59.2969C109.922 61.6927 109.922 64.0885 109.922 66.4844C111.016 66.4844 112.109 66.4844 113.203 66.4844C113.203 63.2031 113.203 59.9219 113.203 56.6406C112.995 56.6406 112.786 56.6406 112.578 56.6406C113.464 55.7031 114.349 54.7656 115.234 53.8281Z" fill="white"/>
<path opacity="0.982" fill-rule="evenodd" clip-rule="evenodd" d="M72.7344 54.7656C71.7534 55.5375 70.8159 56.3708 69.9219 57.2656C69.9219 57.0573 69.9219 56.849 69.9219 56.6406C68.8281 56.6406 67.7344 56.6406 66.6406 56.6406C66.6406 58.4115 66.6406 60.1823 66.6406 61.9531C66.5134 61.6202 66.4353 61.2556 66.4062 60.8594C65.4167 61.849 64.4271 62.8386 63.4375 63.8281C63.4093 64.3273 63.3312 64.796 63.2031 65.2344C63.2031 64.6094 63.2031 63.9844 63.2031 63.3594C60.4248 62.913 58.3675 63.9025 57.0312 66.3281C56.8874 66.7345 56.7833 67.1513 56.7187 67.5781C56.6406 69.0355 56.6146 70.4939 56.6406 71.9531C56.5135 71.6202 56.4353 71.2556 56.4062 70.8594C55.4167 71.8489 54.4271 72.8386 53.4375 73.8281C53.4093 74.3273 53.3312 74.7961 53.2031 75.2344C53.1771 72.4734 53.2031 69.7131 53.2812 66.9531C54.0059 63.2078 56.2194 60.8901 59.9219 60C61.0144 59.9219 62.1081 59.8959 63.2031 59.9219C63.1771 58.5147 63.2031 57.1084 63.2812 55.7031C63.6719 54.4792 64.4792 53.6719 65.7031 53.2813C67.4219 53.1771 69.1406 53.1771 70.8594 53.2813C71.7061 53.5193 72.3311 54.0141 72.7344 54.7656Z" fill="white"/>
<path opacity="0.974" fill-rule="evenodd" clip-rule="evenodd" d="M72.7342 54.7656C73.0383 55.1147 73.2206 55.5313 73.2811 56.0156C73.3592 57.3167 73.3852 58.6188 73.3592 59.9219C76.38 59.9219 79.4009 59.9219 82.4217 59.9219C81.328 61.0677 80.2342 62.2135 79.1405 63.3594C77.2134 63.3594 75.2863 63.3594 73.3592 63.3594C73.3852 64.6625 73.3592 65.9645 73.2811 67.2656C72.9725 68.512 72.2174 69.3714 71.0155 69.8438C69.1925 69.948 67.3697 69.948 65.5467 69.8438C64.5283 69.5303 63.8252 68.8794 63.4374 67.8906C63.2263 67.02 63.1482 66.1347 63.203 65.2344C63.331 64.796 63.4091 64.3273 63.4374 63.8281C64.4269 62.8385 65.4165 61.849 66.4061 60.8594C66.4352 61.2556 66.5133 61.6202 66.6405 61.9531C66.6405 63.4635 66.6405 64.974 66.6405 66.4844C67.7342 66.4844 68.828 66.4844 69.9217 66.4844C69.9217 63.4115 69.9217 60.3385 69.9217 57.2656C70.8158 56.3708 71.7533 55.5375 72.7342 54.7656Z" fill="white"/>
<path opacity="0.971" fill-rule="evenodd" clip-rule="evenodd" d="M82.4219 59.9219C87.9427 59.9219 93.4636 59.9219 98.9844 59.9219C97.9744 61.0101 96.9327 62.0778 95.8594 63.125C95.3602 63.1532 94.8914 63.2313 94.4531 63.3594C89.3489 63.3594 84.2448 63.3594 79.1406 63.3594C80.2344 62.2135 81.3281 61.0677 82.4219 59.9219Z" fill="white"/>
<path opacity="0.975" fill-rule="evenodd" clip-rule="evenodd" d="M122.266 60.8594C124.693 62.1706 126.126 64.2018 126.562 66.9531C126.715 71.6502 126.663 76.3377 126.406 81.0156C125.417 81.8489 124.427 81.8489 123.438 81.0156C123.216 79.57 123.138 78.1117 123.203 76.6406C120.182 76.6406 117.161 76.6406 114.141 76.6406C115.234 75.4948 116.328 74.3489 117.422 73.2031C119.349 73.2031 121.276 73.2031 123.203 73.2031C123.229 71.3273 123.203 69.4523 123.125 67.5781C122.689 65.3978 121.413 63.9915 119.297 63.3594C119.461 63.3827 119.617 63.3567 119.766 63.2812C120.578 62.4422 121.412 61.6349 122.266 60.8594Z" fill="white"/>
<path opacity="0.969" fill-rule="evenodd" clip-rule="evenodd" d="M56.6406 71.9531C56.6406 72.3698 56.6406 72.7864 56.6406 73.2031C61.224 73.2031 65.8073 73.2031 70.3906 73.2031C69.9523 73.3311 69.4836 73.4092 68.9844 73.4375C67.9948 74.427 67.0052 75.4167 66.0156 76.4062C66.4119 76.4353 66.7764 76.5134 67.1094 76.6406C63.6198 76.6406 60.1302 76.6406 56.6406 76.6406C56.6406 80.1302 56.6406 83.6198 56.6406 87.1094C56.5135 86.7764 56.4353 86.4119 56.4062 86.0156C55.4167 87.0052 54.4271 87.9948 53.4375 88.9844C53.4093 89.4836 53.3312 89.9523 53.2031 90.3906C53.2031 85.3386 53.2031 80.2864 53.2031 75.2344C53.3312 74.7961 53.4093 74.3273 53.4375 73.8281C54.4271 72.8386 55.4167 71.8489 56.4062 70.8594C56.4353 71.2556 56.5135 71.6202 56.6406 71.9531Z" fill="white"/>
<path opacity="0.97" fill-rule="evenodd" clip-rule="evenodd" d="M70.3906 73.2031C75.4948 73.2031 80.5989 73.2031 85.7031 73.2031C84.6094 74.3489 83.5156 75.4948 82.4219 76.6406C77.3177 76.6406 72.2136 76.6406 67.1094 76.6406C66.7764 76.5134 66.4119 76.4353 66.0156 76.4062C67.0052 75.4167 67.9948 74.427 68.9844 73.4375C69.4836 73.4092 69.9523 73.3311 70.3906 73.2031Z" fill="white"/>
<path opacity="0.97" fill-rule="evenodd" clip-rule="evenodd" d="M85.7031 73.2031C90.8073 73.2031 95.9114 73.2031 101.016 73.2031C99.9219 74.3489 98.8281 75.4948 97.7344 76.6406C92.6302 76.6406 87.5261 76.6406 82.4219 76.6406C83.5156 75.4948 84.6094 74.3489 85.7031 73.2031Z" fill="white"/>
<path opacity="0.97" fill-rule="evenodd" clip-rule="evenodd" d="M101.016 73.2031C106.484 73.2031 111.953 73.2031 117.422 73.2031C116.328 74.3489 115.234 75.4948 114.141 76.6406C108.672 76.6406 103.203 76.6406 97.7344 76.6406C98.8281 75.4948 99.9219 74.3489 101.016 73.2031Z" fill="white"/>
<path opacity="0.934" fill-rule="evenodd" clip-rule="evenodd" d="M97.7345 81.4844C99.4338 81.4902 100.137 82.3236 99.8439 83.9844C99.6616 84.375 99.3752 84.6614 98.9845 84.8438C97.3011 85.1392 96.4938 84.4361 96.5627 82.7344C96.7741 82.1328 97.1647 81.7161 97.7345 81.4844Z" fill="#F2B808"/>
<path opacity="0.965" fill-rule="evenodd" clip-rule="evenodd" d="M104.453 81.4824C109.193 81.4564 113.932 81.4824 118.672 81.5606C119.222 81.6393 119.612 81.9257 119.844 82.4199C119.948 82.9929 119.948 83.5657 119.844 84.1387C119.661 84.4251 119.427 84.6595 119.14 84.8418C114.14 84.946 109.14 84.946 104.14 84.8418C103.468 84.5395 103.156 84.0187 103.203 83.2793C103.182 82.3531 103.599 81.7542 104.453 81.4824Z" fill="#F37302"/>
<path opacity="0.98" fill-rule="evenodd" clip-rule="evenodd" d="M83.2031 84.6071C82.2656 85.4404 81.3801 86.3258 80.5468 87.2633C73.2259 85.6313 67.8353 88.1313 64.3749 94.7633C63.1944 97.7477 63.0642 100.769 63.9843 103.826C63.0468 104.711 62.1093 105.597 61.1718 106.482C58.4592 98.869 60.0738 92.3326 66.0156 86.8727C71.3367 82.9241 77.0659 82.169 83.2031 84.6071Z" fill="white"/>
<path opacity="0.935" fill-rule="evenodd" clip-rule="evenodd" d="M124.141 84.9216C126.213 84.6942 126.969 85.5797 126.406 87.5778C125.241 88.6855 124.199 88.5814 123.281 87.2653C123.049 86.2751 123.335 85.4939 124.141 84.9216Z" fill="#F2B708"/>
<path opacity="0.971" fill-rule="evenodd" clip-rule="evenodd" d="M83.2031 84.6094C87.2041 86.2666 90.0688 89.0791 91.7969 93.0469C91.7005 93.0295 91.6223 92.9775 91.5625 92.8906C90.767 93.7653 89.9077 94.5466 88.9844 95.2344C87.3875 91.2939 84.575 88.6377 80.5469 87.2656C81.3802 86.3281 82.2656 85.4427 83.2031 84.6094Z" fill="white"/>
<path opacity="0.939" fill-rule="evenodd" clip-rule="evenodd" d="M97.5781 88.2031C99.8584 88.2069 100.483 89.2225 99.4531 91.25C97.5708 92.0936 96.6072 91.4947 96.5625 89.4531C96.7664 88.9123 97.1048 88.4956 97.5781 88.2031Z" fill="#F2B708"/>
<path opacity="0.964" fill-rule="evenodd" clip-rule="evenodd" d="M104.297 88.2012C109.193 88.1751 114.089 88.2012 118.984 88.2793C119.375 88.4617 119.661 88.7481 119.844 89.1387C119.948 89.6595 119.948 90.1804 119.844 90.7012C119.661 91.0918 119.375 91.3782 118.984 91.5606C114.089 91.6648 109.193 91.6648 104.297 91.5606C103.494 91.3214 103.129 90.7745 103.203 89.9199C103.142 89.049 103.506 88.476 104.297 88.2012Z" fill="#F37301"/>
<path opacity="0.976" fill-rule="evenodd" clip-rule="evenodd" d="M75.5471 89.9237C76.1224 89.8979 76.6952 89.9239 77.2658 90.0018C77.76 90.2331 78.0464 90.6237 78.1252 91.1737C78.2294 94.1945 78.2294 97.2154 78.1252 100.236C77.0467 102.237 75.8488 104.164 74.5314 106.017C73.4621 106.9 72.4725 106.795 71.5627 105.705C71.3089 104.942 71.413 104.213 71.8752 103.517C72.7607 102.215 73.646 100.913 74.5314 99.6112C74.5835 96.9029 74.6357 94.1945 74.6877 91.4862C74.7452 90.8321 75.0316 90.3112 75.5471 89.9237Z" fill="#F2B809"/>
<path opacity="0.932" fill-rule="evenodd" clip-rule="evenodd" d="M97.4219 94.922C99.3735 94.66 100.181 95.4933 99.8438 97.422C98.5994 98.7506 97.5057 98.6464 96.5625 97.1095C96.4583 96.797 96.4583 96.4845 96.5625 96.172C96.7568 95.6914 97.0433 95.2747 97.4219 94.922Z" fill="#F2B808"/>
<path opacity="0.966" fill-rule="evenodd" clip-rule="evenodd" d="M104.141 94.9199C109.141 94.8939 114.141 94.9199 119.141 94.9981C119.427 95.1804 119.661 95.4148 119.844 95.7012C119.948 96.2742 119.948 96.847 119.844 97.4199C119.613 97.9142 119.222 98.2006 118.672 98.2793C113.932 98.3835 109.193 98.3835 104.453 98.2793C103.213 97.7331 102.874 96.8217 103.438 95.5449C103.656 95.2996 103.89 95.0912 104.141 94.9199Z" fill="#F37402"/>
<path opacity="0.97" fill-rule="evenodd" clip-rule="evenodd" d="M56.6406 87.1094C56.6406 92.2136 56.6406 97.3177 56.6406 102.422C55.4948 103.516 54.349 104.609 53.2031 105.703C53.2031 100.599 53.2031 95.4948 53.2031 90.3906C53.3312 89.9523 53.4093 89.4836 53.4375 88.9844C54.4271 87.9948 55.4167 87.0052 56.4062 86.0156C56.4353 86.4119 56.5135 86.7764 56.6406 87.1094Z" fill="white"/>
<path opacity="0.961" fill-rule="evenodd" clip-rule="evenodd" d="M126.641 104.766C126.513 104.433 126.435 104.069 126.406 103.673C125.417 104.662 124.427 105.652 123.438 106.641C123.409 107.141 123.331 107.609 123.203 108.048C123.177 102.891 123.203 97.7347 123.281 92.5788C123.875 91.5474 124.735 91.261 125.859 91.7194C126.153 91.9605 126.387 92.2469 126.563 92.5788C126.641 96.641 126.667 100.703 126.641 104.766Z" fill="white"/>
<path opacity="0.934" fill-rule="evenodd" clip-rule="evenodd" d="M97.7345 101.484C99.4338 101.49 100.137 102.324 99.8439 103.984C99.6616 104.375 99.3752 104.661 98.9845 104.844C97.3011 105.139 96.4938 104.436 96.5627 102.734C96.7741 102.133 97.1647 101.716 97.7345 101.484Z" fill="#F2B808"/>
<path opacity="0.965" fill-rule="evenodd" clip-rule="evenodd" d="M104.453 101.482C109.193 101.456 113.932 101.482 118.672 101.561C119.222 101.639 119.612 101.926 119.844 102.42C119.948 102.993 119.948 103.566 119.844 104.139C119.661 104.425 119.427 104.659 119.14 104.842C114.14 104.946 109.14 104.946 104.14 104.842C103.468 104.539 103.156 104.019 103.203 103.279C103.182 102.353 103.599 101.754 104.453 101.482Z" fill="#F37302"/>
<path opacity="0.98" fill-rule="evenodd" clip-rule="evenodd" d="M91.7969 93.0469C94.4891 99.6219 93.5775 105.664 89.0625 111.172C83.8677 116.396 77.748 117.881 70.7031 115.625C70.1839 115.462 69.7152 115.228 69.2969 114.922C70.2778 114.15 71.2153 113.317 72.1094 112.422C77.602 114.076 82.3677 112.878 86.4062 108.828C89.802 104.792 90.6614 100.26 88.9844 95.2344C89.9077 94.5466 90.767 93.7653 91.5625 92.8906C91.6223 92.9775 91.7005 93.0295 91.7969 93.0469Z" fill="white"/>
<path opacity="0.959" fill-rule="evenodd" clip-rule="evenodd" d="M126.641 104.766C126.641 108.047 126.641 111.328 126.641 114.609C126.512 114.066 126.434 113.493 126.406 112.891C125.417 113.88 124.427 114.87 123.438 115.859C123.41 116.565 123.332 117.243 123.203 117.891C123.203 114.609 123.203 111.328 123.203 108.047C123.331 107.609 123.409 107.14 123.438 106.641C124.427 105.651 125.417 104.661 126.406 103.672C126.435 104.068 126.513 104.433 126.641 104.766Z" fill="white"/>
<path opacity="0.939" fill-rule="evenodd" clip-rule="evenodd" d="M97.5781 108.203C99.8584 108.207 100.483 109.223 99.4531 111.25C97.5708 112.094 96.6072 111.495 96.5625 109.453C96.7664 108.912 97.1048 108.496 97.5781 108.203Z" fill="#F2B708"/>
<path opacity="0.964" fill-rule="evenodd" clip-rule="evenodd" d="M104.297 108.201C109.193 108.175 114.089 108.201 118.984 108.279C119.375 108.462 119.661 108.748 119.844 109.139C119.948 109.659 119.948 110.18 119.844 110.701C119.661 111.092 119.375 111.378 118.984 111.561C114.089 111.665 109.193 111.665 104.297 111.561C103.494 111.321 103.129 110.774 103.203 109.92C103.142 109.049 103.506 108.476 104.297 108.201Z" fill="#F37301"/>
<path opacity="0.975" fill-rule="evenodd" clip-rule="evenodd" d="M63.9844 103.828C65.4139 107.914 68.1222 110.778 72.1094 112.422C71.2153 113.317 70.2778 114.15 69.2969 114.922C65.5847 113.085 62.8763 110.272 61.1719 106.484C62.1094 105.599 63.0469 104.714 63.9844 103.828Z" fill="white"/>
<path opacity="0.968" fill-rule="evenodd" clip-rule="evenodd" d="M56.6408 102.422C56.6147 107.943 56.6408 113.464 56.7189 118.984C57.0409 120.988 58.1607 122.29 60.0783 122.891C59.2314 123.894 58.2939 124.78 57.2658 125.547C55.3109 124.345 54.0349 122.627 53.4376 120.391C53.2092 115.501 53.131 110.605 53.2033 105.703C54.3491 104.609 55.4949 103.516 56.6408 102.422Z" fill="white"/>
<path opacity="0.981" fill-rule="evenodd" clip-rule="evenodd" d="M126.641 114.609C127.474 123.464 123.464 127.474 114.609 126.641C114.066 126.512 113.493 126.434 112.891 126.406C113.88 125.417 114.87 124.427 115.859 123.438C116.565 123.41 117.243 123.332 117.891 123.203C121.276 123.047 123.047 121.276 123.203 117.891C123.332 117.243 123.41 116.565 123.438 115.859C124.427 114.87 125.417 113.88 126.406 112.891C126.434 113.493 126.512 114.066 126.641 114.609Z" fill="white"/>
<path opacity="0.932" fill-rule="evenodd" clip-rule="evenodd" d="M97.4219 114.922C99.3735 114.66 100.181 115.493 99.8438 117.422C98.5994 118.751 97.5057 118.646 96.5625 117.11C96.4583 116.797 96.4583 116.485 96.5625 116.172C96.7568 115.691 97.0433 115.275 97.4219 114.922Z" fill="#F2B808"/>
<path opacity="0.966" fill-rule="evenodd" clip-rule="evenodd" d="M104.141 114.92C109.141 114.894 114.141 114.92 119.141 114.998C119.427 115.18 119.661 115.415 119.844 115.701C119.948 116.274 119.948 116.847 119.844 117.42C119.613 117.914 119.222 118.201 118.672 118.279C113.932 118.384 109.193 118.384 104.453 118.279C103.213 117.733 102.874 116.822 103.438 115.545C103.656 115.3 103.89 115.091 104.141 114.92Z" fill="#F37402"/>
<path opacity="0.971" fill-rule="evenodd" clip-rule="evenodd" d="M60.0781 122.891C60.3259 122.992 60.5863 123.07 60.8594 123.125C63.5677 123.177 66.2761 123.229 68.9844 123.281C69.375 123.464 69.6614 123.75 69.8438 124.141C70.0738 125.012 69.8914 125.767 69.2969 126.406C66.2902 126.663 63.2693 126.715 60.2344 126.562C59.1802 126.399 58.1906 126.061 57.2656 125.547C58.2938 124.78 59.2313 123.894 60.0781 122.891Z" fill="white"/>
<path opacity="0.969" fill-rule="evenodd" clip-rule="evenodd" d="M91.9531 123.201C90.7477 124.171 89.6019 125.239 88.5156 126.404C88.6025 126.464 88.6545 126.542 88.6719 126.639C83.88 126.665 79.0883 126.639 74.2969 126.561C73.75 126.43 73.4114 126.092 73.2813 125.545C73.166 124.957 73.218 124.384 73.4375 123.826C73.6436 123.516 73.93 123.333 74.2969 123.279C80.182 123.201 86.0675 123.175 91.9531 123.201Z" fill="white"/>
<path opacity="0.961" fill-rule="evenodd" clip-rule="evenodd" d="M91.9531 123.203C97.3177 123.203 102.682 123.203 108.047 123.203C107.609 123.331 107.14 123.409 106.641 123.438C105.651 124.427 104.661 125.417 103.672 126.406C104.068 126.435 104.433 126.513 104.766 126.641C99.4011 126.641 94.0364 126.641 88.6719 126.641C88.6545 126.544 88.6025 126.466 88.5156 126.406C89.6019 125.241 90.7477 124.173 91.9531 123.203Z" fill="white"/>
<path opacity="0.959" fill-rule="evenodd" clip-rule="evenodd" d="M108.047 123.203C111.328 123.203 114.609 123.203 117.891 123.203C117.243 123.332 116.565 123.41 115.859 123.438C114.87 124.427 113.88 125.417 112.891 126.406C113.493 126.434 114.066 126.512 114.609 126.641C111.328 126.641 108.047 126.641 104.766 126.641C104.433 126.513 104.068 126.435 103.672 126.406C104.661 125.417 105.651 124.427 106.641 123.438C107.14 123.409 107.609 123.331 108.047 123.203Z" fill="white"/>
</svg>
