<svg width="32" height="32" viewBox="0 0 32 32" fill="none" xmlns="http://www.w3.org/2000/svg">
<g clip-path="url(#clip0_922_8883)">
<path d="M27.0123 31.7697H4.9872C3.7271 31.7671 2.51937 31.2653 1.62834 30.3743C0.737317 29.4833 0.235567 28.2756 0.23291 27.0155V7.8246C0.23533 6.56364 0.737631 5.35508 1.6297 4.46387C2.52176 3.57266 3.7308 3.07152 4.99177 3.07031H27.0169C28.2779 3.07273 29.4864 3.57503 30.3776 4.4671C31.2689 5.35916 31.77 6.5682 31.7712 7.82917V27.0109C31.7697 28.2726 31.2679 29.4822 30.3758 30.3743C29.4836 31.2664 28.274 31.7683 27.0123 31.7697ZM4.9872 5.35146C4.3315 5.35218 3.70287 5.61298 3.23922 6.07662C2.77557 6.54027 2.51478 7.1689 2.51405 7.8246V27.0109C2.51623 27.6657 2.77763 28.293 3.2411 28.7556C3.70456 29.2182 4.33237 29.4785 4.9872 29.4795H27.0123C27.6665 29.4775 28.2932 29.2168 28.7558 28.7543C29.2183 28.2918 29.479 27.665 29.4809 27.0109V7.8246C29.4792 7.17041 29.2186 6.5435 28.756 6.08092C28.2934 5.61834 27.6665 5.35772 27.0123 5.35603L4.9872 5.35146Z" fill="#3E372C"/>
<path d="M30.6286 15.8443H1.40897C1.10587 15.8443 0.815176 15.7239 0.600848 15.5096C0.386521 15.2952 0.266113 15.0046 0.266113 14.7014C0.266113 14.3983 0.386521 14.1077 0.600848 13.8933C0.815176 13.679 1.10587 13.5586 1.40897 13.5586H30.6286C30.9317 13.5586 31.2224 13.679 31.4368 13.8933C31.6511 14.1077 31.7715 14.3983 31.7715 14.7014C31.7715 15.0046 31.6511 15.2952 31.4368 15.5096C31.2224 15.7239 30.9317 15.8443 30.6286 15.8443Z" fill="#3E372C"/>
<path d="M8.64823 8.37218C8.49811 8.3723 8.34945 8.34283 8.21073 8.28543C8.07202 8.22804 7.94599 8.14387 7.83984 8.03772C7.73369 7.93157 7.64951 7.80553 7.59212 7.66682C7.53473 7.52811 7.50525 7.37944 7.50537 7.22933V1.37333C7.50537 1.07022 7.62578 0.779531 7.84011 0.565204C8.05443 0.350877 8.34512 0.230469 8.64823 0.230469C8.95133 0.230469 9.24202 0.350877 9.45635 0.565204C9.67068 0.779531 9.79109 1.07022 9.79109 1.37333V7.22933C9.79109 7.53243 9.67068 7.82312 9.45635 8.03745C9.24202 8.25178 8.95133 8.37218 8.64823 8.37218Z" fill="#3E372C"/>
<path d="M23.3528 8.37218C23.2027 8.3723 23.054 8.34283 22.9153 8.28543C22.7766 8.22804 22.6506 8.14387 22.5444 8.03772C22.4383 7.93157 22.3541 7.80553 22.2967 7.66682C22.2393 7.52811 22.2098 7.37944 22.21 7.22933V1.37333C22.21 1.07022 22.3304 0.779531 22.5447 0.565204C22.759 0.350877 23.0497 0.230469 23.3528 0.230469C23.6559 0.230469 23.9466 0.350877 24.1609 0.565204C24.3753 0.779531 24.4957 1.07022 24.4957 1.37333V7.22933C24.4957 7.53243 24.3753 7.82312 24.1609 8.03745C23.9466 8.25178 23.6559 8.37218 23.3528 8.37218Z" fill="#3E372C"/>
</g>
<defs>
<clipPath id="clip0_922_8883">
<rect width="32" height="32" fill="white"/>
</clipPath>
</defs>
</svg>
