<svg width="180" height="180" viewBox="0 0 180 180" fill="none" xmlns="http://www.w3.org/2000/svg">
<g clip-path="url(#clip0_1524_7586)">
<path d="M90 180C139.706 180 180 139.706 180 90C180 40.2944 139.706 0 90 0C40.2944 0 0 40.2944 0 90C0 139.706 40.2944 180 90 180Z" fill="#EB4335"/>
<path d="M87.1101 99.8687V92.2328C87.1129 90.1376 87.9464 88.1291 89.428 86.6475C90.9095 85.166 92.9181 84.3325 95.0132 84.3297H98.1035C93.6582 80.7723 88.5041 78.206 82.9863 76.8027C77.2213 79.0519 70.8216 79.0519 65.0566 76.8027C49.166 80.7508 36.4605 94.9891 32.1046 113.365C31.9483 114.028 31.9413 114.717 32.0842 115.383C32.227 116.049 32.5163 116.675 32.9308 117.215C39.7432 126.081 49.2395 132.506 60.0028 135.533C70.7662 138.559 82.2196 138.025 92.6543 134.009V107.417C91.0477 106.911 89.6441 105.907 88.6471 104.55C87.6501 103.193 87.1118 101.553 87.1101 99.8687Z" fill="white"/>
<path d="M74.0249 75.6703C86.0862 75.6703 95.8639 65.8926 95.8639 53.8312C95.8639 41.7699 86.0862 31.9922 74.0249 31.9922C61.9635 31.9922 52.1858 41.7699 52.1858 53.8312C52.1858 65.8926 61.9635 75.6703 74.0249 75.6703Z" fill="white"/>
<path d="M130.078 83.718C130.077 82.5363 129.607 81.4033 128.771 80.5681C127.935 79.7328 126.802 79.2637 125.62 79.2637H112.314C111.132 79.2637 109.999 79.7328 109.163 80.5681C108.327 81.4033 107.857 82.5363 107.856 83.718V84.3297H130.078V83.718ZM95.4773 140.833C95.4773 141.775 95.663 142.709 96.0238 143.58C96.3846 144.45 96.9135 145.241 97.5802 145.908C98.2468 146.574 99.0383 147.103 99.9092 147.463C100.78 147.823 101.714 148.009 102.656 148.008H135.745C137.648 148.008 139.473 147.252 140.819 145.907C142.165 144.561 142.921 142.736 142.921 140.833V107.786H95.4773V140.833ZM128.053 115.84C128.074 115.373 128.274 114.932 128.611 114.609C128.949 114.286 129.398 114.106 129.865 114.106C130.333 114.106 130.782 114.286 131.12 114.609C131.457 114.932 131.657 115.373 131.678 115.84V138.418C131.657 138.884 131.457 139.325 131.12 139.648C130.782 139.971 130.333 140.152 129.865 140.152C129.398 140.152 128.949 139.971 128.611 139.648C128.274 139.325 128.074 138.884 128.053 138.418V115.84ZM117.383 115.84C117.404 115.373 117.604 114.932 117.941 114.609C118.279 114.286 118.728 114.106 119.195 114.106C119.663 114.106 120.112 114.286 120.45 114.609C120.787 114.932 120.987 115.373 121.008 115.84V138.418C120.987 138.884 120.787 139.325 120.45 139.648C120.112 139.971 119.663 140.152 119.195 140.152C118.728 140.152 118.279 139.971 117.941 139.648C117.604 139.325 117.404 138.884 117.383 138.418V115.84ZM106.713 115.84C106.713 115.359 106.904 114.898 107.245 114.557C107.585 114.217 108.046 114.026 108.527 114.026C109.008 114.026 109.47 114.217 109.81 114.557C110.15 114.898 110.341 115.359 110.341 115.84V138.418C110.341 138.899 110.15 139.36 109.81 139.7C109.47 140.041 109.008 140.232 108.527 140.232C108.046 140.232 107.585 140.041 107.245 139.7C106.904 139.36 106.713 138.899 106.713 138.418V115.84Z" fill="white"/>
<path d="M142.917 87.1426H95.0132C92.2018 87.1426 89.9226 89.4217 89.9226 92.2332V99.8691C89.9226 102.681 92.2018 104.96 95.0132 104.96H142.917C145.729 104.96 148.008 102.681 148.008 99.8691V92.2332C148.008 89.4217 145.729 87.1426 142.917 87.1426Z" fill="white"/>
</g>
<defs>
<clipPath id="clip0_1524_7586">
<rect width="180" height="180" fill="white"/>
</clipPath>
</defs>
</svg>
