<svg width="208" height="209" viewBox="0 0 208 209" fill="none" xmlns="http://www.w3.org/2000/svg">
<path d="M10.7668 86.9948L13.7941 86.7552C13.7941 86.7552 13.5931 84.2139 16.2306 83.9593C17.6005 83.827 18.383 84.6694 18.7262 85.335C19.1251 86.1079 19.0956 87.0269 18.7045 87.8036C18.2582 88.6905 17.194 89.5491 15.1253 89.3511L15.6652 96.1764L18.6583 95.9397L18.3422 91.9415C18.3422 91.9415 22.4543 90.5242 22.0883 85.8979C21.738 81.4716 17.6874 80.7573 15.9885 80.8917C14.6889 80.9949 10.2872 81.6592 10.7668 86.9948Z" fill="#E0E0E0"/>
<path d="M18.8014 97.3458L15.7637 97.5859L15.9879 100.423L19.0257 100.183L18.8014 97.3458Z" fill="#E0E0E0"/>
<path d="M157.193 112.301H158.834C158.834 112.301 158.834 110.923 160.266 110.898C161.009 110.885 161.395 111.372 161.552 111.745C161.733 112.179 161.678 112.673 161.435 113.074C161.156 113.533 160.546 113.951 159.44 113.756V117.456H161.063V115.288C161.063 115.288 163.339 114.7 163.339 112.192C163.339 109.792 161.187 109.234 160.266 109.234C159.561 109.235 157.161 109.405 157.193 112.301Z" fill="#E0E0E0"/>
<path d="M161.083 118.219H159.437V119.757H161.083V118.219Z" fill="#E0E0E0"/>
<path d="M11.2549 163.748L13.3511 164.047C13.3511 164.047 13.602 162.287 15.4357 162.516C16.3879 162.635 16.7918 163.328 16.9241 163.833C17.0776 164.419 16.9175 165.04 16.5331 165.509C16.0938 166.045 15.2389 166.467 13.8615 166.016L13.188 170.743L15.261 171.038L15.6553 168.269C15.6553 168.269 18.6697 167.932 19.126 164.728C19.5628 161.663 16.9154 160.559 15.7385 160.392C14.8387 160.264 11.7424 160.044 11.2549 163.748Z" fill="#F5F5F5"/>
<path d="M15.1427 172.017L13.0391 171.717L12.759 173.682L14.8627 173.982L15.1427 172.017Z" fill="#F5F5F5"/>
<path d="M66.0254 21.177L68.7802 20.5796C68.7802 20.5796 68.2789 18.2667 70.6734 17.7038C71.9172 17.4118 72.7417 18.089 73.1407 18.6585C73.6037 19.32 73.691 20.169 73.4281 20.9324C73.1278 21.8039 72.2558 22.7266 70.3281 22.8019L71.6747 29.0136L74.3987 28.4229L73.6099 24.7841C73.6099 24.7841 77.2162 22.9683 76.3035 18.758C75.4303 14.7294 71.6148 14.5772 70.0685 14.9125C68.8862 15.1687 64.9201 16.3281 66.0254 21.177Z" fill="#F5F5F5"/>
<path d="M74.7109 29.6935L71.9463 30.293L72.5061 32.875L75.2707 32.2756L74.7109 29.6935Z" fill="#F5F5F5"/>
<path d="M180.394 180.827L181.996 181.181C181.996 181.181 182.293 179.836 183.697 180.121C184.426 180.269 184.697 180.828 184.77 181.226C184.854 181.688 184.694 182.158 184.369 182.498C183.998 182.886 183.312 183.162 182.274 182.733L181.476 186.346L183.06 186.696L183.528 184.58C183.528 184.58 185.877 184.496 186.418 182.047C186.936 179.704 184.955 178.695 184.056 178.496C183.368 178.345 180.988 177.993 180.394 180.827Z" fill="#E0E0E0"/>
<path d="M182.907 187.439L181.299 187.084L180.967 188.586L182.575 188.941L182.907 187.439Z" fill="#E0E0E0"/>
<path d="M185.244 63.4163H188.266C188.266 63.4163 188.266 60.8783 190.904 60.833C192.274 60.8092 192.984 61.7066 193.273 62.3938C193.608 63.1921 193.506 64.1019 193.057 64.8419C192.545 65.6873 191.421 66.4556 189.384 66.0966V72.9119H192.373V68.9196C192.373 68.9196 196.565 67.8359 196.565 63.2162C196.565 58.7962 192.602 57.7695 190.905 57.7695C189.607 57.7699 185.187 58.0836 185.244 63.4163Z" fill="#F5F5F5"/>
<path d="M192.408 74.3164H189.375V77.1494H192.408V74.3164Z" fill="#F5F5F5"/>
<path d="M109.934 25.4985L113.194 26.219C113.194 26.219 113.799 23.4813 116.655 24.0608C118.139 24.362 118.691 25.4993 118.838 26.3093C119.009 27.2503 118.683 28.2075 118.022 28.8989C117.268 29.6884 115.872 30.2496 113.76 29.3764L112.135 36.7288L115.36 37.4414L116.312 33.1346C116.312 33.1346 121.092 32.9649 122.194 27.9816C123.247 23.2134 119.216 21.1609 117.386 20.7565C115.986 20.4478 111.143 19.7323 109.934 25.4985Z" fill="#E0E0E0"/>
<path d="M115.06 38.9634L111.788 38.2402L111.113 41.2963L114.385 42.0196L115.06 38.9634Z" fill="#E0E0E0"/>
<path d="M186.888 195.226C186.888 195.283 149.79 195.33 104.038 195.33C58.2704 195.33 21.1807 195.283 21.1807 195.226C21.1807 195.168 58.2704 195.121 104.038 195.121C149.79 195.121 186.888 195.168 186.888 195.226Z" fill="#263238"/>
<path d="M92.0816 30.6348L82.002 33.9732L85.565 43.9555L92.0816 30.6348Z" fill="#3E372C"/>
<path d="M93.2174 73.8697L89.9314 67.6538C96.3623 64.2542 99.6479 59.271 99.1828 53.6221C98.6828 47.5485 93.8305 41.9612 87.1084 39.7186L89.334 33.0488C98.835 36.2187 105.452 44.0678 106.191 53.0455C106.89 61.5515 102.162 69.1418 93.2174 73.8697Z" fill="#3E372C"/>
<g opacity="0.3">
<path d="M98.8637 58.0368C98.8637 58.0368 101.988 59.049 106.046 56.8184L105.64 59.8631L98.1332 62.7035L97.9697 60.4176L98.8637 58.0368Z" fill="black"/>
</g>
<path d="M91.6047 118.125C70.625 115.257 53.6713 109.028 41.215 99.6119C30.6632 91.6347 26.4412 83.6192 25.0538 80.9851C21.4288 74.1028 19.8676 66.6543 20.5386 59.4442C21.772 46.1925 31.4195 38.1983 37.6033 36.0579C42.8245 34.2512 49.7871 34.2367 54.3714 35.0238C59.3971 35.8874 64.2697 37.5871 68.8545 40.0765L64.6387 47.8411C60.9047 45.8135 56.9469 44.4312 52.8759 43.7319C48.9019 43.0492 43.5779 43.3396 40.4933 44.4075C37.2297 45.5369 30.2077 50.8992 29.3357 60.2633C28.824 65.7632 30.0467 71.5049 32.8713 76.8679C34.0315 79.0707 37.563 85.7745 46.5436 92.564C57.7768 101.057 73.3406 106.711 92.8015 109.371L91.6047 118.125Z" fill="#B19E7F"/>
<g opacity="0.3">
<path d="M45.3509 91.6172L36.9893 96.1341L40.6405 99.1921L48.7978 94.2109L45.3509 91.6172Z" fill="black"/>
</g>
<g opacity="0.3">
<path d="M73.6875 105.508C73.6875 105.508 73.6925 113.774 75.0732 115.017L77.9856 115.706L75.7575 106.005L73.6875 105.508Z" fill="black"/>
</g>
<path d="M62.3154 50.4966L73.3519 47.4977L70.105 36.5527L62.3154 50.4966Z" fill="#B19E7F"/>
<path d="M147.241 189.499L146.003 181.043C171.534 177.304 184.902 156.667 189.464 147.967L197.033 151.936C191.862 161.795 176.66 185.192 147.241 189.499Z" fill="#B19E7F"/>
<path d="M198.241 157.649L196.542 144.363L183.566 150.336L198.241 157.649Z" fill="#B19E7F"/>
<g opacity="0.3">
<path d="M163.799 175.049L161.727 176.134L163.043 184.965L166.544 183.284L163.799 175.049Z" fill="black"/>
</g>
<path d="M70.6348 184.263C59.0762 182.321 42.6583 177.382 30.0802 164.889C18.3294 153.218 12.7284 136.874 15.4632 122.235C16.8734 114.688 20.5342 107.346 26.0491 101.004C31.1497 95.1387 37.7167 90.2216 45.0412 86.7842C57.1709 81.092 71.9739 78.6722 90.2941 79.3852L90.0203 86.411C72.8499 85.7417 59.1153 87.946 48.0289 93.149C34.5218 99.488 24.6921 111.128 22.3754 123.527C20.062 135.909 24.913 149.846 35.0355 159.9C46.3029 171.092 61.2477 175.555 71.8004 177.328L70.6348 184.263Z" fill="#3E372C"/>
<g opacity="0.3">
<path d="M65.0571 175.922L62.9805 182.649L68.1172 183.961L67.9255 176.588L65.0571 175.922Z" fill="black"/>
</g>
<path d="M70.7346 88.6926C68.6621 77.6058 75.4562 66.7893 86.3404 63.8324L87.422 63.5387C99.271 61.0515 108.002 69.7251 110.161 81.638L118.095 127.01L102.447 140.833L93.722 135.843C92.9711 132.517 91.3578 125.642 91.3324 125.648C91.3324 125.648 79.6462 126.95 76.4625 115.777C74.925 110.38 72.6628 99.0077 70.7346 88.6926Z" fill="#AE7461"/>
<path d="M91.333 125.648C91.333 125.648 98.5119 124.143 104.758 117.367C104.758 117.367 103.536 126.749 92.0747 128.778L91.333 125.648Z" fill="#6F4439"/>
<path d="M77.2247 97.9052C77.424 98.7588 78.3118 99.2934 79.2074 99.1012C80.101 98.909 80.6655 98.0633 80.4654 97.2092C80.2657 96.3556 79.3784 95.8198 78.4844 96.0116C77.5892 96.2042 77.0251 97.0516 77.2247 97.9052Z" fill="#263238"/>
<path d="M74.4636 92.9958C74.7186 93.1505 75.6875 91.9233 77.4118 91.4599C79.1274 90.9719 80.6325 91.5152 80.7618 91.2531C80.8284 91.135 80.5239 90.8126 79.8645 90.5613C79.2143 90.3097 78.1847 90.1724 77.1123 90.4686C76.0411 90.7664 75.2453 91.4062 74.8363 91.9516C74.4174 92.5024 74.34 92.9284 74.4636 92.9958Z" fill="#263238"/>
<path d="M91.9836 94.1235C92.1832 94.9772 93.0706 95.5117 93.9662 95.3191C94.8598 95.1274 95.4243 94.2812 95.2242 93.4276C95.0245 92.574 94.1368 92.0386 93.2432 92.2303C92.3476 92.4225 91.7839 93.2703 91.9836 94.1235Z" fill="#263238"/>
<path d="M91.459 88.8073C91.7145 88.9621 92.6854 87.7353 94.4081 87.2719C96.1232 86.7847 97.6283 87.3272 97.7581 87.0651C97.8238 86.947 97.5218 86.6246 96.86 86.3741C96.2098 86.122 95.1802 85.9852 94.1081 86.2805C93.0369 86.5784 92.2415 87.2186 91.8318 87.7636C91.4145 88.3139 91.3363 88.7408 91.459 88.8073Z" fill="#263238"/>
<path d="M88.8751 103.724C88.8564 103.624 87.7353 103.73 85.9398 103.979C85.4872 104.053 85.0471 104.079 84.8919 103.799C84.7018 103.51 84.7571 102.985 84.8312 102.415C84.9555 101.239 85.0853 100.005 85.2218 98.7122C85.733 93.4519 85.9756 89.1754 85.7638 89.1563C85.5517 89.138 84.9651 93.3858 84.4543 98.6461C84.339 99.9407 84.2275 101.175 84.1231 102.355C84.0928 102.9 83.9605 103.545 84.364 104.144C84.572 104.44 84.9597 104.591 85.2621 104.59C85.5679 104.599 85.8167 104.537 86.038 104.491C87.8097 104.11 88.8951 103.824 88.8751 103.724Z" fill="#263238"/>
<path d="M98.2415 83.0466C98.0139 82.5832 96.2667 83.0066 94.1576 82.9838C92.0472 83.0037 90.3017 82.5782 90.0729 83.0408C89.9722 83.2617 90.315 83.6835 91.0451 84.0758C91.7689 84.4685 92.8913 84.7942 94.1563 84.7963C95.421 84.7959 96.5433 84.4718 97.268 84.0803C97.9989 83.6889 98.3421 83.2675 98.2415 83.0466Z" fill="#263238"/>
<path d="M73.0078 87.9518C73.4678 88.2526 74.7716 87.4846 76.4601 87.0325C78.1345 86.5308 79.655 86.4971 79.8801 86.0012C79.9737 85.7653 79.6475 85.4292 78.9258 85.2175C78.214 85.0049 77.1033 84.9662 75.9472 85.2932C74.7916 85.6218 73.8747 86.2358 73.388 86.7887C72.8933 87.3457 72.8006 87.8004 73.0078 87.9518Z" fill="#263238"/>
<path d="M111.47 89.9312C111.638 89.7968 118.585 85.8182 120.422 93.5487C122.259 101.28 113.431 101.785 113.365 101.567C113.299 101.348 111.47 89.9312 111.47 89.9312Z" fill="#AE7461"/>
<path d="M115.718 97.8213C115.746 97.7884 115.875 97.8833 116.127 97.9336C116.373 97.9827 116.772 97.9619 117.139 97.7152C117.884 97.2214 118.264 95.7613 117.971 94.3589C117.823 93.6509 117.516 93.0161 117.136 92.5206C116.765 92.0115 116.306 91.7032 115.877 91.7273C115.445 91.7302 115.212 92.0456 115.17 92.2856C115.118 92.526 115.203 92.6687 115.165 92.692C115.149 92.7166 114.969 92.6018 114.955 92.2677C114.951 92.1063 114.998 91.9025 115.145 91.7111C115.294 91.516 115.549 91.3741 115.842 91.3371C116.448 91.2369 117.115 91.6574 117.534 92.2016C117.986 92.7403 118.347 93.45 118.513 94.2454C118.834 95.8149 118.383 97.4623 117.342 98.0509C116.832 98.3222 116.339 98.266 116.061 98.1391C115.776 98.0048 115.695 97.8421 115.718 97.8213Z" fill="#6F4439"/>
<path d="M52.3015 82.0608C52.3152 81.5762 52.5565 81.1223 52.9051 80.7854C53.6651 80.0503 54.7014 79.8752 55.6827 79.6235C58.1255 78.9966 60.4072 77.786 62.3275 76.1524C61.4726 75.949 60.6481 75.6503 59.8989 75.1914C58.3509 74.245 57.1757 72.5091 57.3475 70.7032C57.3796 70.3642 57.4836 69.9923 57.7764 69.8188C58.2415 69.5442 58.799 69.9319 59.2428 70.2389C60.7018 71.249 61.8973 71.546 63.5726 70.9611C64.613 70.598 65.5885 70.1112 66.3019 69.3882C66.3269 69.3454 66.3477 69.2996 66.3731 69.2572C66.6755 68.7463 66.9729 68.2563 67.2675 67.7804C67.2679 67.7787 67.2687 67.7775 67.2691 67.7762L67.2687 67.7787C69.4843 64.1986 71.5053 61.6011 73.8307 59.9479C77.2394 57.5243 83.4008 55.3965 87.582 55.4851C91.7632 55.5741 96.0609 57.9187 97.5739 61.8174C99.3328 59.4234 102.648 58.645 105.594 59.081L105.654 59.0352C108.902 59.3843 111.36 62.1382 112.975 64.9778C113.063 65.133 113.145 65.2923 113.231 65.4491C114.627 66.8103 116.332 67.8549 118.2 68.4165C118.53 68.5155 118.911 68.6423 119.026 68.9668C119.14 69.288 118.927 69.6283 118.704 69.8862C118.11 70.5717 117.355 71.1101 116.524 71.4728C116.971 72.1326 117.461 72.7603 118.019 73.3377C118.495 73.829 119.06 74.4177 118.908 75.0833C118.79 75.5983 118.25 75.9277 117.725 75.9756C117.198 76.0226 116.68 75.8495 116.18 75.679C116.706 76.3978 117.231 77.1175 117.756 77.8364C116.719 78.2844 115.577 78.4662 114.449 78.3996C114.498 81.4056 115.287 86.8045 115.016 88.9149C112.973 89.4428 112.422 89.3392 111.469 89.9307C110.238 90.6953 111.316 92.9417 109.413 92.6863C108.445 92.5561 106.278 89.5226 105.765 88.691C102.36 83.1711 100.168 76.9091 99.3769 70.4723C97.821 69.4485 96.0659 68.7272 94.2393 68.3615L94.4019 68.4502C90.9795 68.1103 87.1465 67.8873 84.5044 70.0896C82.4552 71.7981 81.6665 74.5383 80.3898 76.8808C77.9699 81.3199 74.7072 84.1621 69.8458 85.5511C70.2207 89.0688 71.4275 94.6794 72.0236 97.9025L67.7775 92.1825L67.7817 92.2087C67.4726 91.888 67.2009 91.5552 66.9355 91.2199L66.8477 91.1201L66.8444 91.1059C66.4209 90.5672 66.0103 90.0239 65.5149 89.5097C65.507 89.5214 65.4991 89.5326 65.4907 89.5443C64.1308 91.4791 61.0316 89.7622 61.9468 87.5812C62.1282 87.1485 62.3724 86.7433 62.6769 86.3843C62.0662 87.3133 60.9759 87.9501 59.8656 87.8803C58.7557 87.8104 57.7032 86.9567 57.5343 85.8573C57.4195 85.1072 57.7873 84.3235 58.3821 83.8734C57.0147 84.3147 55.5171 84.353 54.1364 83.9511C53.2321 83.6874 52.2715 83.127 52.3015 82.0608Z" fill="#263238"/>
<path d="M94.8001 63.9688C94.7843 64.0033 95.3455 64.1543 96.1829 64.7342C97.0133 65.3124 98.0545 66.4152 98.8191 68.073C99.2043 68.8954 99.5479 69.8364 99.7971 70.8777C100.051 71.9181 100.235 73.0534 100.437 74.2477C100.643 75.4412 100.856 76.7029 101.241 77.9767C101.434 78.6124 101.668 79.2497 101.965 79.8716C102.262 80.4815 102.599 81.1404 103.218 81.578C103.714 81.9366 104.41 81.9815 104.943 81.7319C105.484 81.4965 105.915 81.0751 106.185 80.5763C106.709 79.5529 106.632 78.4322 106.585 77.4397L106.355 77.5254C106.947 78.2858 107.547 79.0329 108.298 79.5646C109.041 80.1025 109.952 80.3579 110.786 80.2352C111.201 80.1744 111.596 80.011 111.903 79.7514C112.217 79.4926 112.405 79.1349 112.508 78.7808C112.601 78.4227 112.606 78.0528 112.508 77.7209C112.408 77.3897 112.201 77.1027 111.934 76.9284L111.839 77.064C112.949 77.8482 113.998 78.1614 114.705 78.3041C115.062 78.3752 115.341 78.4019 115.528 78.4164C115.716 78.426 115.813 78.426 115.814 78.4185C115.814 78.4102 115.718 78.3956 115.533 78.3707C115.348 78.342 115.073 78.3012 114.724 78.2176C114.031 78.0495 113.008 77.7159 111.936 76.9305L111.841 77.0661C112.318 77.3781 112.51 78.0807 112.319 78.7284C112.221 79.0487 112.047 79.3687 111.769 79.5908C111.494 79.8183 111.134 79.9648 110.753 80.0164C109.986 80.1216 109.136 79.8812 108.438 79.3674C107.728 78.8578 107.145 78.1294 106.558 77.3669L106.308 77.0436L106.327 77.453C106.373 78.4443 106.428 79.5247 105.948 80.449C105.706 80.8958 105.311 81.2781 104.837 81.4828C104.364 81.6974 103.802 81.6596 103.371 81.3538C102.831 80.9765 102.498 80.3558 102.208 79.7551C101.917 79.1482 101.686 78.5246 101.495 77.8998C101.113 76.6484 100.895 75.3963 100.683 74.2057C100.474 73.0134 100.282 71.8748 100.015 70.8232C99.753 69.7711 99.394 68.8197 98.9913 67.9898C98.1926 66.3167 97.1056 65.2076 96.242 64.6477C95.3713 64.0844 94.8001 63.9688 94.8001 63.9688Z" fill="#3E372C"/>
<path d="M62.4532 83.3609C62.4515 83.365 62.4881 83.3837 62.5626 83.4162C62.652 83.4536 62.7614 83.499 62.8946 83.5543C63.0402 83.6171 63.2232 83.6874 63.4474 83.7465C63.6696 83.8114 63.9246 83.8946 64.222 83.9437C65.3918 84.1908 67.1952 84.2827 69.2714 83.6537C71.329 83.036 73.6556 81.6969 75.4923 79.4971C77.3622 77.3305 78.7712 74.4618 79.7355 71.3326C80.2301 69.766 80.5637 68.2014 80.9918 66.7279C81.4149 65.2545 81.9382 63.8609 82.6937 62.6794C83.4358 61.4947 84.3943 60.5216 85.478 59.9201C86.0154 59.6089 86.5895 59.4309 87.149 59.3102C87.7139 59.2058 88.2693 59.1921 88.7947 59.2354C89.8484 59.329 90.7636 59.6788 91.4933 60.0898C92.2263 60.505 92.7692 60.9992 93.1669 61.4393C93.9302 62.3558 94.1187 63.016 94.157 62.9952C94.1615 62.9935 94.1486 62.9544 94.1195 62.8787C94.0825 62.7884 94.0376 62.679 93.9831 62.5451C93.8549 62.2555 93.6195 61.8478 93.2476 61.3707C92.8561 60.9123 92.3124 60.3956 91.5699 59.958C90.831 59.5253 89.8979 59.1526 88.8139 59.044C88.2731 58.9933 87.699 59.0016 87.1116 59.1043C86.5308 59.2225 85.9272 59.4063 85.3698 59.7233C84.2412 60.3378 83.2482 61.3374 82.4832 62.5455C81.7036 63.7519 81.1665 65.1709 80.7372 66.6543C80.3021 68.1394 79.9672 69.7007 79.4767 71.2528C78.5199 74.3586 77.133 77.1937 75.3026 79.3348C73.5034 81.5105 71.2366 82.8367 69.2157 83.4707C67.1798 84.113 65.4051 84.0527 64.2428 83.8401C63.0693 83.6221 62.4661 83.3234 62.4532 83.3609Z" fill="#3E372C"/>
<path d="M60.2326 78.6381C60.2267 78.6565 60.3952 78.7213 60.706 78.8233C61.0146 78.9314 61.4764 79.045 62.0534 79.1452C62.6304 79.2501 63.328 79.31 64.1047 79.3137C64.8805 79.3037 65.7342 79.2297 66.6136 79.0533C67.4909 78.8669 68.3046 78.5978 69.0214 78.3004C69.7328 77.9896 70.3501 77.6589 70.8389 77.3344C71.329 77.0137 71.7079 76.727 71.9484 76.5057C72.1934 76.289 72.3224 76.1629 72.3099 76.1488C72.2774 76.1093 71.7296 76.5806 70.7374 77.1709C70.2436 77.47 69.6279 77.7774 68.9249 78.0691C68.2169 78.3482 67.4177 78.6049 66.5578 78.7875C65.6963 78.9597 64.8614 79.04 64.1005 79.0637C63.3397 79.0733 62.6524 79.0346 62.0809 78.9556C60.936 78.805 60.2467 78.5891 60.2326 78.6381Z" fill="#3E372C"/>
<path d="M95.2787 107.651C95.3099 107.82 94.0036 108.196 92.4166 108.697C90.8271 109.193 89.5408 109.631 89.4697 109.474C89.4002 109.325 90.6041 108.624 92.234 108.114C93.8618 107.602 95.2508 107.489 95.2787 107.651Z" fill="#263238"/>
<path d="M89.4194 83.7231C89.4261 83.7426 89.2122 83.8412 88.8378 83.8554C88.4659 83.872 87.9384 83.7672 87.4501 83.4631C86.9629 83.1569 86.638 82.728 86.4908 82.386C86.3398 82.0428 86.3348 81.8074 86.3556 81.8049C86.3897 81.797 86.4454 82.0154 86.6189 82.3207C86.7899 82.6261 87.106 83.0055 87.5582 83.2904C88.0121 83.5725 88.4913 83.691 88.8408 83.7114C89.1906 83.7347 89.4115 83.689 89.4194 83.7231Z" fill="#6F4439"/>
<path d="M96.7011 108.879C96.6449 108.858 96.8483 108.359 96.7123 107.744C96.5913 107.126 96.2052 106.75 96.2485 106.708C96.2647 106.689 96.3874 106.756 96.5351 106.924C96.6824 107.09 96.8409 107.366 96.9116 107.702C96.9811 108.039 96.9465 108.355 96.8775 108.566C96.8092 108.779 96.7231 108.89 96.7011 108.879Z" fill="#6F4439"/>
<path d="M53.6417 109.704C53.6417 109.704 62.7537 91.224 63.3773 90.481C64.0009 89.738 67.3193 82.0104 67.3193 82.0104L71.9611 76.4626C71.9611 76.4626 74.1384 76.7892 72.756 79.6067L70.7855 83.3599L78.0226 76.0957C78.0226 76.0957 80.1658 76.3436 79.3313 78.62C78.7111 80.3115 76.5009 82.9314 76.5009 82.9314L82.9963 77.2934C82.9963 77.2934 85.6986 77.7098 84.4024 80.5448C83.5596 82.3881 75.9884 90.756 75.9884 90.756C75.9884 90.756 79.7652 88.4226 80.9587 87.648C82.1522 86.8734 83.3844 85.1895 84.2655 85.3488C85.1466 85.5081 86.6846 86.8714 84.3899 89.4763C82.0952 92.0813 75.6393 96.2326 74.6992 96.7484C73.759 97.2643 73.759 97.2643 73.759 97.2643C73.759 97.2643 72.6408 100.16 71.0642 101.559C71.0642 101.559 68.4733 109.77 67.1675 112.03C65.7585 114.468 63.4198 115.792 63.4198 115.792L59.4341 126.558L48.0498 118.695L53.6417 109.704Z" fill="#AE7461"/>
<path d="M53.6417 109.704C53.6417 109.704 53.5235 109.909 53.2827 110.303C53.0393 110.699 52.6803 111.283 52.2115 112.046C51.2642 113.579 49.8727 115.829 48.0868 118.717L48.0744 118.657C51.1365 120.766 54.985 123.416 59.4698 126.504L59.3733 126.534C60.5656 123.304 61.908 119.668 63.349 115.765C63.3553 115.748 63.3661 115.735 63.3798 115.727L63.3823 115.725C64.4377 115.077 65.4257 114.224 66.2552 113.209C66.6658 112.698 67.0419 112.146 67.3343 111.542C67.6268 110.937 67.8959 110.308 68.1489 109.666C69.1614 107.095 70.0745 104.359 70.9826 101.532C70.9876 101.517 70.9968 101.504 71.0076 101.494C71.5883 100.967 72.0813 100.292 72.5206 99.5635C72.9553 98.8326 73.3484 98.0451 73.6771 97.231C73.685 97.2114 73.6995 97.1956 73.7166 97.1856C74.1933 96.919 74.6821 96.6686 75.1468 96.3778C75.6148 96.0878 76.0824 95.7891 76.5479 95.4817C77.4801 94.8685 78.4112 94.2312 79.3372 93.5681C80.2624 92.9042 81.1846 92.2153 82.084 91.4827C82.9768 90.7464 83.8716 89.9784 84.6046 89.0666C84.959 88.6065 85.2768 88.1015 85.422 87.5419C85.5763 86.9928 85.4965 86.3638 85.1017 85.9412C84.9124 85.7307 84.667 85.5634 84.3978 85.4761C84.1299 85.3804 83.8616 85.4574 83.6053 85.603C83.1003 85.9004 82.6643 86.3326 82.2126 86.7391C81.7658 87.1488 81.294 87.5669 80.7611 87.8793C80.2407 88.2046 79.7191 88.5308 79.1957 88.8586C78.1491 89.5134 77.0958 90.1719 76.037 90.8337C75.9934 90.8612 75.936 90.8479 75.9085 90.8042C75.886 90.768 75.8919 90.7218 75.9189 90.6919C76.4713 90.0729 77.0675 89.4044 77.6661 88.7338C79.3388 86.8335 80.9866 84.9419 82.5354 83.0117C82.921 82.5279 83.2987 82.0408 83.6586 81.5445C84.0138 81.0432 84.3521 80.5432 84.5234 79.9641C84.7057 79.4012 84.7248 78.7664 84.4182 78.2743C84.1124 77.7847 83.5396 77.4964 82.9822 77.3828L83.0566 77.3612C80.8498 79.276 78.682 81.1568 76.56 82.998C76.5225 83.0304 76.4655 83.0267 76.4327 82.9888C76.4035 82.9551 76.4044 82.9048 76.4318 82.8719C77.3499 81.7487 78.2235 80.5918 78.897 79.3513C79.0585 79.0389 79.2165 78.7231 79.3081 78.3908C79.4166 78.0642 79.462 77.7168 79.4087 77.3899C79.3571 77.0625 79.1828 76.7642 78.9212 76.5616C78.6603 76.3615 78.3338 76.2317 78.0126 76.1814L78.0842 76.1564C75.5786 78.6691 73.1621 81.0923 70.8437 83.4173C70.8117 83.4493 70.7597 83.4493 70.7276 83.4177C70.7014 83.3919 70.6968 83.3524 70.7131 83.3212C71.3695 82.0728 72.0106 80.8535 72.6379 79.6608C72.7839 79.36 72.9187 79.0597 73.0098 78.7448C73.0668 78.5904 73.0793 78.4278 73.1167 78.2705C73.1221 78.1116 73.1517 77.9502 73.1238 77.7942C73.0984 77.4806 72.9728 77.1806 72.7544 76.9626C72.5414 76.7422 72.2448 76.5961 71.9507 76.5375L72.021 76.5109C70.3907 78.4561 68.8469 80.2985 67.3747 82.0549L67.3855 82.0374C66.4395 84.2198 65.526 86.2939 64.6154 88.2379C64.3849 88.723 64.1586 89.2009 63.919 89.6656C63.8004 89.8986 63.6789 90.127 63.5408 90.3499C63.3857 90.5779 63.2633 90.7672 63.139 90.9947C62.6477 91.8754 62.2025 92.7494 61.7657 93.5893C60.0348 96.9585 58.5725 99.8813 57.3732 102.271C56.178 104.66 55.2483 106.518 54.6155 107.783C54.3002 108.411 54.0589 108.891 53.895 109.218C53.7299 109.54 53.6417 109.704 53.6417 109.704C53.6417 109.704 53.7174 109.534 53.8746 109.208C54.0344 108.879 54.2694 108.396 54.5769 107.764C55.2021 106.495 56.1202 104.631 57.3008 102.235C58.4893 99.8401 59.9412 96.9123 61.6634 93.5373C62.0985 92.6953 62.5403 91.8217 63.0321 90.9352C63.1477 90.7181 63.3045 90.4797 63.4368 90.283C63.5683 90.0695 63.6902 89.8403 63.8071 89.609C64.0442 89.1469 64.2697 88.6685 64.4985 88.1842C65.4033 86.2407 66.313 84.1648 67.2545 81.9821C67.2574 81.9759 67.2611 81.9696 67.2653 81.9646C68.7346 80.2058 70.2754 78.3612 71.9024 76.4131L71.9045 76.4106C71.9216 76.3902 71.9482 76.3819 71.9727 76.3865C72.3097 76.4535 72.6204 76.6078 72.8642 76.8549C73.1097 77.0983 73.2511 77.4385 73.2785 77.7792C73.3081 77.9506 73.2781 78.1208 73.2719 78.2913C73.234 78.4561 73.2191 78.6291 73.1608 78.7889C73.0672 79.1154 72.927 79.4283 72.7794 79.7332C72.1533 80.9271 71.5135 82.1477 70.8583 83.3977L70.7276 83.3016C73.0439 80.9745 75.458 78.5488 77.961 76.0337L77.9635 76.0312C77.9823 76.0125 78.0085 76.005 78.033 76.0087C78.3958 76.0657 78.7352 76.2009 79.0297 76.4247C79.3222 76.649 79.526 76.9947 79.5826 77.3607C79.6425 77.7268 79.5905 78.1 79.4782 78.4424C79.3813 78.793 79.2194 79.1163 79.0551 79.4349C78.3696 80.6983 77.496 81.8548 76.5708 82.9888L76.4426 82.8628C78.5638 81.0207 80.7308 79.1387 82.9368 77.2231L82.9389 77.221C82.9593 77.2031 82.9863 77.1968 83.0113 77.2014C83.3249 77.2609 83.6149 77.3716 83.8882 77.5296C84.1565 77.6894 84.4103 77.8986 84.5759 78.1765C84.9224 78.7323 84.892 79.4328 84.7019 80.019C84.5983 80.3131 84.491 80.6072 84.3242 80.8759C84.169 81.1488 83.9872 81.3976 83.8108 81.6526C83.4481 82.1535 83.0687 82.6427 82.6822 83.1278C81.1293 85.0634 79.4815 86.9558 77.8071 88.8573C77.2081 89.5287 76.6111 90.1977 76.0583 90.8171L75.9397 90.6752C76.9976 90.0138 78.0501 89.3557 79.0963 88.7017C80.1338 88.0278 81.23 87.4691 82.0886 86.6026C82.5416 86.197 82.9747 85.7619 83.5159 85.442C83.6548 85.3683 83.8 85.298 83.9635 85.2677C84.1241 85.2227 84.3067 85.2581 84.4552 85.3009C84.7602 85.4004 85.0293 85.5842 85.2406 85.8193C85.6828 86.291 85.7685 87.0028 85.6013 87.5877C85.4449 88.1867 85.1133 88.7076 84.7497 89.1797C83.9976 90.1141 83.0974 90.8832 82.1997 91.6237C81.2957 92.3592 80.3709 93.0494 79.4428 93.7145C78.5143 94.3789 77.5812 95.017 76.6465 95.6306C76.1797 95.9385 75.7109 96.2376 75.24 96.5288C74.7678 96.8241 74.2778 97.0746 73.8019 97.34L73.8414 97.2946C73.5061 98.1229 73.1109 98.9125 72.6695 99.6534C72.2236 100.39 71.7235 101.076 71.1216 101.622L71.1461 101.584C70.2343 104.413 69.3182 107.148 68.2994 109.726C68.0453 110.37 67.7736 111.001 67.477 111.613C67.1779 112.229 66.7948 112.79 66.3771 113.308C65.5314 114.338 64.5384 115.195 63.4572 115.856L63.4905 115.817C62.042 119.718 60.6929 123.351 59.4944 126.579C59.4823 126.612 59.4453 126.629 59.412 126.617C59.407 126.615 59.402 126.612 59.3975 126.609C54.9217 123.508 51.0808 120.848 48.0249 118.73C48.0053 118.717 48.0003 118.69 48.0124 118.671C49.8132 115.793 51.2164 113.55 52.172 112.024C52.6495 111.265 53.0148 110.685 53.2631 110.291C53.5094 109.901 53.6417 109.704 53.6417 109.704Z" fill="#6F4439"/>
<path d="M77.5477 81.7464C77.5573 81.7547 77.415 81.934 77.1492 82.2514C76.8829 82.568 76.4902 83.0198 75.9964 83.5701C75.0051 84.6676 73.6053 86.1593 71.9575 87.7043C70.6508 88.9311 69.3799 89.999 68.3129 90.8015L68.3013 90.8102L68.2879 90.8139C67.3045 91.0923 66.5653 91.5207 66.0827 91.851C65.5993 92.1847 65.3564 92.4147 65.3431 92.3997C65.3381 92.3943 65.3938 92.3319 65.507 92.2221C65.6214 92.1135 65.7949 91.9592 66.0324 91.7807C66.5054 91.4259 67.2459 90.9691 68.2459 90.6683L68.221 90.6808C69.2697 89.8642 70.5269 88.7905 71.8294 87.5675C73.4721 86.027 74.8845 84.5531 75.8991 83.4799C76.3883 82.9574 76.7918 82.5264 77.0947 82.2023C77.3775 81.9011 77.5381 81.7381 77.5477 81.7464Z" fill="#6F4439"/>
<path d="M71.1415 82.9207C71.1602 82.9373 70.9019 83.2668 70.4593 83.7785C70.0171 84.2897 69.3868 84.9803 68.6746 85.7254C67.9791 86.445 67.3505 87.0961 66.8409 87.6231C66.37 88.107 66.0746 88.4027 66.0547 88.3853C66.0359 88.3686 66.2968 88.0412 66.744 87.5333C67.1903 87.0254 67.8272 86.3415 68.5394 85.5964C69.2304 84.8734 69.8552 84.2194 70.3615 83.6895C70.8283 83.2011 71.1215 82.9028 71.1415 82.9207Z" fill="#6F4439"/>
<path d="M76.1596 90.648C76.1666 90.6588 76.0718 90.7353 75.8937 90.8651C75.7161 90.9957 75.4524 91.1746 75.1204 91.3876C74.4573 91.8136 73.5146 92.3623 72.4326 92.8894C71.3498 93.4156 70.336 93.8187 69.5917 94.0775C69.2194 94.2073 68.9162 94.3042 68.7036 94.3637C68.4914 94.4236 68.3724 94.451 68.3683 94.439C68.3596 94.4123 68.8159 94.2439 69.5451 93.9539C70.2748 93.6648 71.274 93.2442 72.3507 92.7213C73.426 92.1971 74.3737 91.6701 75.0513 91.2749C75.7298 90.8797 76.1442 90.6247 76.1596 90.648Z" fill="#6F4439"/>
<path d="M52.2353 111.145C51.8372 111.675 40.0311 129.451 40.0311 129.451C40.0311 129.451 28.8807 146.822 27.252 151.709C24.8738 158.845 24.3425 171.215 32.0365 174.531C39.7304 177.848 42.382 177.955 51.6679 174.373C60.9539 170.791 67.7218 165.196 67.7218 165.196L65.8984 132.867L58.4109 136.71L64.8547 119.409L52.2353 111.145Z" fill="#E0E0E0"/>
<path d="M151.415 138.672C151.415 138.672 157.41 143.47 159.581 159.814C160.951 170.133 164.838 195.139 164.838 195.139L142.176 195.19C142.176 195.19 137.622 162.927 138.086 162.438C138.55 161.95 151.415 138.672 151.415 138.672Z" fill="#E0E0E0"/>
<path d="M65.8988 132.867L91.4125 129.59C91.4125 129.59 96.2269 137.299 105.648 135.794C118.876 133.681 118.534 124.352 118.534 124.352C118.534 124.352 140.55 131.91 144.811 133.817C149.072 135.724 151.416 138.672 151.416 138.672C151.416 138.672 143.593 169.027 143.35 169.408C143.106 169.79 141.625 195.477 142.177 195.19C142.414 195.067 70.3704 195.198 69.1757 195.193L67.0171 164.534L59.4658 138.393L65.8988 132.867Z" fill="#E0E0E0"/>
<path d="M61.7543 128.121C61.7601 128.124 61.7247 128.227 61.6524 128.421C61.5721 128.63 61.4635 128.912 61.3266 129.268C61.0462 130.004 60.6357 131.067 60.1531 132.39C59.1801 135.033 57.9308 138.719 56.5871 142.802C55.9236 144.849 55.2127 146.769 54.815 148.588C54.5974 149.492 54.3969 150.356 54.171 151.155C53.9518 151.956 53.6889 152.689 53.4276 153.343C53.1693 153.998 52.955 154.595 52.7762 155.126C52.5985 155.659 52.3976 156.101 52.2279 156.457C52.0573 156.813 51.9192 157.086 51.8227 157.269C51.7266 157.453 51.6733 157.549 51.6675 157.546C51.6617 157.543 51.7037 157.442 51.789 157.253C51.8809 157.049 52.0053 156.774 52.1617 156.427C52.3211 156.067 52.5099 155.625 52.6772 155.093C52.8465 154.56 53.0536 153.954 53.3041 153.295C53.8345 151.99 54.2342 150.365 54.6473 148.548C55.038 146.718 55.7481 144.784 56.4095 142.743C57.7536 138.66 59.0237 134.978 60.0291 132.344C60.5279 131.026 60.9576 129.969 61.2588 129.241C61.4094 128.89 61.5288 128.612 61.6174 128.407C61.701 128.217 61.748 128.119 61.7543 128.121Z" fill="#263238"/>
<path d="M67.9216 177.04C67.9166 177.041 67.9071 176.969 67.8929 176.83C67.8792 176.677 67.8605 176.474 67.8372 176.216C67.7935 175.665 67.7319 174.886 67.6545 173.909C67.5098 171.917 67.3068 169.123 67.0692 165.848L67.0709 165.861C66.6212 163.825 66.095 161.596 65.4722 159.279C64.1943 154.478 62.6833 150.226 61.2431 147.308C60.5476 145.836 59.8262 144.732 59.3279 143.973C59.0666 143.601 58.8424 143.328 58.7022 143.134C58.6369 143.044 58.5837 142.972 58.5408 142.914C58.505 142.863 58.488 142.836 58.4905 142.834C58.493 142.832 58.5146 142.855 58.5554 142.901C58.602 142.956 58.6598 143.025 58.7313 143.11C58.8811 143.297 59.1157 143.564 59.3874 143.931C59.9057 144.68 60.6483 145.78 61.3613 147.25C62.8373 150.164 64.3727 154.423 65.6523 159.231C66.2763 161.552 66.7984 163.786 67.2398 165.824L67.241 165.831L67.2415 165.837C67.452 169.114 67.6317 171.91 67.7594 173.903C67.8159 174.881 67.8609 175.661 67.8929 176.214C67.905 176.471 67.9141 176.675 67.9212 176.828C67.9266 176.967 67.9266 177.04 67.9216 177.04Z" fill="#263238"/>
<path d="M142.177 195.191C142.173 195.191 142.16 195.269 142.157 195.191C142.156 195.103 142.154 194.988 142.152 194.844C142.151 194.526 142.149 194.079 142.147 193.508C142.152 192.336 142.158 190.66 142.166 188.594C142.2 184.433 142.247 178.703 142.298 172.369V172.363L142.299 172.358C142.303 172.327 142.308 172.293 142.313 172.259C143.162 165.957 143.932 160.253 144.491 156.111C144.777 154.055 145.01 152.387 145.172 151.22C145.255 150.652 145.321 150.207 145.367 149.891C145.39 149.748 145.408 149.634 145.422 149.547C145.436 149.469 145.444 149.43 145.447 149.43C145.45 149.43 145.448 149.47 145.441 149.549C145.431 149.637 145.419 149.751 145.404 149.896C145.366 150.213 145.312 150.659 145.244 151.229C145.096 152.398 144.883 154.068 144.622 156.127C144.077 160.271 143.327 165.978 142.498 172.283C142.494 172.316 142.489 172.35 142.485 172.382L142.486 172.37C142.412 178.704 142.346 184.434 142.298 188.594C142.266 190.66 142.239 192.336 142.22 193.508C142.207 194.079 142.197 194.527 142.189 194.844C142.184 194.988 142.18 195.103 142.177 195.191C142.18 195.191 142.173 195.269 142.177 195.191Z" fill="#263238"/>
<path d="M102.276 145.172L96.3975 195.059L113.599 195.141L106.177 145.172H102.276Z" fill="#B19E7F"/>
<g opacity="0.3">
<path d="M26.3994 154.887C26.3994 154.887 36.8385 172.947 54.1574 173.341L58.1128 170.998L28.6778 147.629C28.6778 147.629 26.9373 152.115 26.3994 154.887Z" fill="black"/>
</g>
<path d="M88.873 129.711L91.1257 125.69C91.1257 125.69 104.098 135.557 103.921 135.763C103.921 135.763 117.551 120.97 117.768 120.75L120.786 125.228C120.786 125.228 108.742 140.738 108.579 140.875C108.383 141.042 100.997 139.534 100.997 139.534L94.7187 136.573L88.873 129.711Z" fill="#E0E0E0"/>
<path d="M100.309 141.816L102.482 146.099H106.383L107.917 141.151L105.035 137.76H103.331L100.309 141.816Z" fill="#B19E7F"/>
<path d="M104.113 136.691C104.117 136.695 104.093 136.736 104.043 136.813C103.98 136.903 103.904 137.013 103.813 137.146C103.591 137.455 103.293 137.87 102.924 138.383C102.137 139.456 101.05 140.935 99.7798 142.665L99.7124 142.757L99.6346 142.673C98.7319 141.693 97.7435 140.62 96.7081 139.496C94.5303 137.109 92.5826 134.926 91.2065 133.316C90.5163 132.513 89.9726 131.849 89.6061 131.384C89.4197 131.154 89.2883 130.964 89.1955 130.839C89.1044 130.712 89.0595 130.643 89.0649 130.639C89.0707 130.635 89.1265 130.695 89.228 130.813C89.3311 130.93 89.4717 131.111 89.6673 131.334C90.0516 131.783 90.6112 132.431 91.3146 133.221C92.717 134.806 94.6809 136.972 96.8582 139.359C97.8895 140.486 98.8742 141.561 99.7731 142.544L99.628 142.551C100.922 140.84 102.029 139.375 102.832 138.314C103.218 137.814 103.531 137.409 103.763 137.109C103.864 136.983 103.948 136.879 104.017 136.793C104.076 136.723 104.109 136.688 104.113 136.691Z" fill="#263238"/>
<path d="M120.978 126.156C121.125 126.214 120.276 127.524 118.803 129.505C117.331 131.496 115.237 134.2 112.894 137.162C111.429 139.014 110.039 140.747 108.84 142.227L108.772 142.311L108.702 142.228C107.333 140.594 106.182 139.221 105.358 138.237C104.969 137.763 104.657 137.384 104.429 137.105C104.332 136.983 104.253 136.884 104.189 136.802C104.135 136.732 104.11 136.695 104.114 136.692C104.117 136.689 104.15 136.72 104.211 136.784C104.281 136.861 104.367 136.955 104.471 137.07C104.71 137.34 105.034 137.709 105.439 138.169C106.277 139.142 107.447 140.498 108.839 142.113L108.701 142.114C109.888 140.62 111.268 138.883 112.735 137.035C115.078 134.075 117.189 131.385 118.689 129.419C120.191 127.458 121.073 126.192 120.978 126.156Z" fill="#263238"/>
<path d="M102.185 145.801C102.16 145.791 102.307 145.364 102.583 144.689C102.86 144.015 103.27 143.094 103.773 142.101C104.276 141.108 104.775 140.232 105.156 139.61C105.536 138.988 105.793 138.617 105.816 138.631C105.841 138.646 105.628 139.043 105.28 139.682C104.933 140.321 104.455 141.204 103.954 142.193C103.453 143.182 103.024 144.089 102.715 144.748C102.406 145.406 102.212 145.813 102.185 145.801Z" fill="#263238"/>
<path d="M106.29 146.032C106.29 146.088 105.383 146.133 104.264 146.133C103.144 146.133 102.237 146.088 102.237 146.032C102.237 145.975 103.144 145.93 104.264 145.93C105.383 145.93 106.29 145.975 106.29 146.032Z" fill="#263238"/>
<g opacity="0.3">
<path d="M90.375 132.244L100.295 144.306L105.022 137.68L104.113 136.692L99.7042 142.609L90.375 132.244Z" fill="black"/>
</g>
<g opacity="0.3">
<path d="M105.021 137.679C105.53 138.358 107.906 144.936 108.807 145.02C109.707 145.104 120.162 127.527 120.162 127.527L108.77 142.17L105.021 137.679Z" fill="black"/>
</g>
<g opacity="0.3">
<path d="M51.7893 157.253L50.7568 159.846C50.7568 159.846 54.7725 160.246 56.149 152.444C57.526 144.642 57.5584 139.873 57.5584 139.873L51.7893 157.253Z" fill="black"/>
</g>
<g opacity="0.3">
<path d="M143.797 195.197L143.054 168.051L142.484 172.358L142.162 195.165L143.797 195.197Z" fill="black"/>
</g>
<g opacity="0.3">
<path d="M81.3486 131.835C81.3486 131.835 88.1299 137.794 99.7912 137.759C111.452 137.724 118.637 134.357 126.154 127.854L121.894 126.373C121.894 126.373 115.039 131.042 104.263 131.247C93.4867 131.452 86.8756 130.881 86.8756 130.881L81.3486 131.835Z" fill="black"/>
</g>
<path opacity="0.3" d="M96.6787 195.224C96.6787 195.224 99.6506 190.527 104.487 188.067C109.545 185.496 112.23 185.563 112.23 185.563L111.649 181.646L104.487 181.838L98.1064 186.829L97.2328 190.074L96.6787 195.224Z" fill="black"/>
<g opacity="0.3">
<path d="M69.1903 194.223C69.1903 194.223 71.886 190.225 77.2985 185.602C82.7111 180.979 111.803 163.838 111.803 163.838L154.047 141.639L151.622 138.631L84.4467 171.239L68.1328 185.492L69.1903 194.223Z" fill="black"/>
</g>
<path d="M68.5077 195.065L61.4648 195.064C61.9599 185.159 66.9298 178.003 78.1444 170.243C88.4499 163.112 104.425 155.147 126.535 144.124C134.633 140.086 143.812 135.51 153.867 130.4C159.836 127.367 165.079 123.079 169.031 118.002L174.58 122.32C169.998 128.208 163.936 133.169 157.052 136.668C146.974 141.79 137.782 146.373 129.672 150.416C86.9178 171.732 69.2411 180.217 68.5077 195.065Z" fill="#3E372C"/>
<path d="M66.5404 173.898C48.6757 173.9 32.1118 161.856 26.8153 150.388C25.2765 147.057 22.7131 140.587 22.83 134.691C22.9232 130.003 24.7153 123.285 29.4582 119.776C31.7075 118.112 34.8645 116.924 38.1205 116.515C41.8017 116.054 45.1634 116.64 47.5895 118.168L43.2178 125.11C41.4423 123.991 36.6288 124.676 34.3366 126.371C32.522 127.714 31.1009 131.36 31.0315 134.854C30.9699 137.961 32.1476 142.369 34.2621 146.949C36.3492 151.467 41.045 156.275 46.8237 159.81C53.3353 163.794 60.6619 165.888 67.446 165.682L67.6836 173.882C67.3029 173.893 66.9202 173.898 66.5404 173.898Z" fill="#B19E7F"/>
<g opacity="0.3">
<path d="M41.5342 124.609L43.9229 116.713C43.9229 116.713 46.6314 117.423 47.488 118.19L43.1607 125.011" fill="black"/>
</g>
<g opacity="0.3">
<path d="M61.5332 135.172C61.7021 135.085 87.3306 155.901 106.091 160.691C124.851 165.48 140.365 166.313 146.403 165.064C152.443 163.814 160.044 161.67 160.044 161.67L159.159 155.866C159.159 155.866 137.137 157.567 122.768 156.63C108.4 155.692 73.7278 135.171 73.7278 135.171L66.8418 131.867L61.5332 135.172Z" fill="black"/>
</g>
<path d="M135.403 163.185C128.835 163.185 122.642 162.313 117.417 161.202C106.288 158.837 93.9413 152.319 85.6225 147.621C83.535 146.442 81.2778 145.135 78.7219 143.625C76.9959 142.605 75.3257 141.607 73.7266 140.651C67.9246 137.183 62.7966 134.235 59.9004 133.082C60.7919 130.331 61.7183 127.705 62.6863 125.23C66.1936 126.625 71.5783 129.81 77.9352 133.609C79.5235 134.558 81.1821 135.55 82.8956 136.562C85.4049 138.045 87.6168 139.326 89.6569 140.478C97.5051 144.91 109.098 151.048 119.122 153.179C130.352 155.565 146.524 156.777 159.794 149.003C165.993 145.371 170.998 140.32 173.886 134.781C177.186 128.452 177.797 121.641 175.704 114.536C172.606 104.019 161.881 98.1892 149.016 100.033C140.992 101.183 134.029 104.409 127.885 107.256C123.252 109.403 119.25 111.258 115.466 111.927L114.038 103.849C116.77 103.366 120.323 101.72 124.436 99.8137C130.762 96.8821 138.635 93.2334 147.852 91.9134C156.19 90.7191 164.022 92.0528 170.503 95.7693C176.884 99.4284 181.526 105.27 183.573 112.218C186.248 121.3 185.414 130.414 181.16 138.574C177.516 145.562 171.562 151.616 163.941 156.082C154.821 161.423 144.735 163.185 135.403 163.185Z" fill="#B19E7F"/>
<g opacity="0.3">
<path d="M148.625 91.8672C149.659 94.9585 149.049 100.162 149.049 100.162L147.201 100.337C147.354 97.5477 147.125 94.8175 146.455 92.1551L148.625 91.8672Z" fill="black"/>
</g>
<g opacity="0.3">
<path d="M158.28 91.7729C158.28 91.7729 158.906 95.4425 158.28 100.082L156.448 99.7485V91.5508L158.28 91.7729Z" fill="black"/>
</g>
<g opacity="0.3">
<path d="M176.788 119.712L176.901 122.282C176.901 122.282 182.044 117.517 182.92 110.425C182.374 108.879 181.902 107.785 181.274 106.705L176.788 119.712Z" fill="black"/>
</g>
<g opacity="0.3">
<path d="M117.004 102.996C117.004 103.133 118.29 111.161 118.29 111.161C117.465 111.485 116.423 111.745 115.294 111.98L114.01 103.792C115.102 103.682 116.098 103.374 117.004 102.996Z" fill="black"/>
</g>
<path d="M100.212 135.648C95.9876 135.648 91.8871 134.942 88.3224 133.553C86.8364 132.975 84.7589 132.06 82.5591 131.091C80.6996 130.273 78.7764 129.426 76.9431 128.66C74.3535 127.578 70.9586 127.721 70.2451 129.087L64.0205 125.804C66.7715 120.531 74.2254 119.905 79.6534 122.172C81.5483 122.964 83.5026 123.824 85.3925 124.656C87.5203 125.593 89.5309 126.478 90.875 127.002C95.4714 128.792 101.554 129.107 107.144 127.844C114.302 126.227 123.3 120.592 128.072 114.737C133.14 108.522 134.808 101.291 132.649 94.8984C130.61 88.8598 120.45 84.8262 114.905 85.3874L114.194 78.3924C122.204 77.5779 135.962 82.7284 139.312 92.6491C142.26 101.381 140.15 111.052 133.522 119.18C127.783 126.221 117.341 132.749 108.694 134.702C105.893 135.335 103.025 135.648 100.212 135.648Z" fill="#3E372C"/>
<path d="M89.6104 195.064C89.6037 190.277 92.4845 185.102 97.3168 181.223C109.232 171.657 126.655 173.715 135.98 175.794L134.451 182.656C115.595 178.455 105.849 183.389 101.718 186.706C97.9666 189.718 96.6387 193.085 96.6416 195.054L89.6104 195.064Z" fill="#3E372C"/>
<path d="M130.797 184.554L141.163 180.693L133.835 172.367L130.797 184.554Z" fill="#3E372C"/>
<g opacity="0.3">
<path d="M117.844 78.3704L117.251 85.365H114.962L114.298 78.3355C115.641 78.1953 116.853 78.1791 117.844 78.3704Z" fill="black"/>
</g>
<g opacity="0.3">
<path d="M65.0588 124.264C65.0588 124.264 71.0076 128.409 70.9274 128.436C70.8467 128.463 70.5351 128.601 70.2451 129.087L64.0205 125.804C64.0205 125.804 64.5688 124.816 65.0588 124.264Z" fill="black"/>
</g>
<path d="M122.976 48.8613L114.595 60.4985L128.003 64.775L122.976 48.8613Z" fill="#3E372C"/>
<path d="M163.696 132.736L160.883 126.292L160.84 126.311C160.888 126.288 165.779 123.921 170.644 115.529C175.549 107.07 175.506 94.2077 175.497 93.3507C174.679 77.4467 167.632 66.4097 154.55 60.5437L154.329 60.4456C145.444 56.4969 135.159 56.3746 126.108 60.1094L123.04 61.3753L120.358 54.8753L123.426 53.6094C134.247 49.1449 146.551 49.2947 157.182 54.0192L157.421 54.1261C172.911 61.0721 181.589 74.5342 182.522 93.06L182.525 93.1635C182.538 93.7896 182.776 108.623 176.727 119.057C170.698 129.455 164.394 132.431 163.696 132.736Z" fill="#3E372C"/>
<path d="M145.213 134.046L137.641 131.07C138.59 128.454 139.633 126.293 140.884 123.817C142.441 120.736 144.051 117.549 145.33 113.53C149.962 98.9726 149.337 90.9505 146.439 80.397L154.349 78.2246C157.601 90.0648 158.373 99.5941 153.147 116.017C151.67 120.662 149.829 124.304 148.206 127.517C147.068 129.767 145.995 131.892 145.213 134.046Z" fill="#B19E7F"/>
<path d="M157.636 78.5675L147.257 68.5977L141.636 81.8893L157.636 78.5675Z" fill="#B19E7F"/>
<g opacity="0.3">
<path d="M137.641 131.066L138.34 129.342L145.948 132.057L145.213 134.047L137.641 131.066Z" fill="black"/>
</g>
<path d="M159.368 61.5138C170.689 60.217 178.815 49.9884 177.518 38.6676C176.222 27.3467 165.993 19.2205 154.672 20.5173C143.351 21.814 135.225 32.0426 136.522 43.3635C137.819 54.6843 148.047 62.8105 159.368 61.5138Z" fill="white"/>
<path d="M136.387 41.0235C136.394 41.0235 136.406 40.9103 136.424 40.6894C136.441 40.4502 136.464 40.1258 136.494 39.711C136.508 39.4943 136.523 39.2542 136.54 38.9905C136.569 38.7267 136.627 38.441 136.674 38.1302C136.775 37.5087 136.87 36.7882 137.109 36.0049C137.476 34.4145 138.224 32.5358 139.401 30.5453C140.588 28.5635 142.297 26.4934 144.623 24.7375C146.942 22.9982 149.867 21.5189 153.242 20.9224C156.595 20.347 160.379 20.4519 163.983 21.8213C164.9 22.115 165.762 22.5689 166.648 22.994C167.488 23.5016 168.372 23.9696 169.154 24.6052C169.985 25.1755 170.711 25.8894 171.472 26.5762C172.159 27.3371 172.881 28.0817 173.473 28.9453C174.689 30.6343 175.751 32.5105 176.393 34.5742C177.059 36.6251 177.418 38.8033 177.447 41.0197C177.418 43.237 177.061 45.416 176.395 47.4673C175.753 49.5315 174.691 51.4085 173.475 53.0979C172.883 53.9615 172.16 54.7066 171.473 55.4678C170.712 56.1551 169.986 56.8689 169.155 57.4397C168.374 58.0753 167.489 58.5433 166.649 59.0513C165.763 59.4764 164.901 59.9303 163.984 60.2244C160.379 61.5943 156.595 61.6987 153.242 61.1234C149.866 60.5264 146.941 59.0471 144.623 57.3078C142.297 55.5519 140.587 53.4818 139.401 51.5C138.224 49.5095 137.476 47.6312 137.109 46.0409C136.87 45.2575 136.775 44.537 136.674 43.9159C136.627 43.6052 136.57 43.3194 136.54 43.0556C136.523 42.7923 136.508 42.5523 136.494 42.3355C136.465 41.9208 136.441 41.5963 136.424 41.3571C136.407 41.1366 136.394 41.0235 136.387 41.0235C136.379 41.0235 136.378 41.1366 136.382 41.3579C136.389 41.5984 136.399 41.9241 136.411 42.341C136.419 42.5594 136.429 42.8011 136.438 43.066C136.461 43.3319 136.512 43.6197 136.553 43.9334C136.642 44.5603 136.725 45.2875 136.954 46.08C137.3 47.6882 138.033 49.5935 139.204 51.6173C140.385 53.6324 142.099 55.7424 144.447 57.5378C146.786 59.3167 149.749 60.8351 153.178 61.4566C156.584 62.0569 160.435 61.9633 164.111 60.5784C165.046 60.281 165.925 59.8221 166.829 59.3899C167.686 58.8753 168.588 58.399 169.386 57.7538C170.234 57.1734 170.976 56.4483 171.752 55.7482C172.454 54.9745 173.19 54.2153 173.796 53.3358C175.038 51.6153 176.122 49.7012 176.779 47.5963C177.46 45.5042 177.826 43.2811 177.855 41.0206C177.825 38.7604 177.459 36.5382 176.778 34.4469C176.12 32.3428 175.037 30.4296 173.795 28.7095C173.189 27.83 172.452 27.0717 171.75 26.2979C170.974 25.5982 170.232 24.8731 169.385 24.2932C168.587 23.648 167.686 23.1717 166.829 22.6575C165.925 22.2253 165.045 21.7668 164.11 21.4694C160.436 20.085 156.585 19.9909 153.179 20.5912C149.75 21.2123 146.787 22.7307 144.447 24.5095C142.099 26.305 140.385 28.4145 139.204 30.43C138.032 32.4539 137.3 34.3592 136.954 35.9674C136.724 36.7599 136.641 37.4875 136.553 38.1144C136.511 38.4281 136.46 38.7159 136.437 38.9818C136.428 39.2467 136.419 39.4884 136.411 39.7068C136.398 40.1237 136.389 40.4494 136.382 40.6898C136.378 40.9099 136.38 41.0235 136.387 41.0235Z" fill="#263238"/>
<path d="M151.833 35.9345H154.596C154.596 35.9345 154.596 33.614 157.008 33.572C158.261 33.5504 158.91 34.3707 159.174 34.9993C159.48 35.7294 159.387 36.561 158.977 37.2378C158.508 38.0107 157.481 38.7133 155.618 38.3851V44.6172H158.351V40.9668C158.351 40.9668 162.184 39.9759 162.184 35.7518C162.184 31.7104 158.56 30.7715 157.008 30.7715C155.822 30.7719 151.781 31.0585 151.833 35.9345Z" fill="#263238"/>
<path d="M158.385 45.9023H155.611V48.4928H158.385V45.9023Z" fill="#263238"/>
<path d="M142.843 65.1973C143.997 63.9181 143.895 61.9454 142.616 60.7912C141.337 59.637 139.364 59.7384 138.21 61.0177C137.056 62.2969 137.157 64.2696 138.436 65.4238C139.716 66.578 141.688 66.4766 142.843 65.1973Z" fill="white"/>
<path d="M137.402 63.1118C137.442 63.113 137.445 62.8343 137.583 62.3709C137.719 61.9162 138.041 61.2568 138.729 60.756C139.393 60.2534 140.475 59.9797 141.515 60.3728C142.546 60.7343 143.432 61.8322 143.421 63.1114C143.432 64.391 142.546 65.4888 141.515 65.8507C140.475 66.2439 139.393 65.9701 138.729 65.4676C138.041 64.9667 137.719 64.3074 137.583 63.8527C137.445 63.3897 137.442 63.1105 137.402 63.1118C137.382 63.1097 137.323 63.3909 137.416 63.8943C137.508 64.3868 137.805 65.1273 138.539 65.7155C139.248 66.3042 140.459 66.659 141.654 66.233C142.838 65.8457 143.877 64.5878 143.862 63.111C143.876 61.635 142.838 60.3774 141.654 59.9901C140.459 59.5641 139.248 59.919 138.54 60.5076C137.806 61.0958 137.508 61.8363 137.417 62.3289C137.323 62.8327 137.382 63.1139 137.402 63.1118Z" fill="#263238"/>
<path d="M57.4704 62.1758C58.4384 56.2606 54.4279 50.6807 48.5127 49.7127C42.5975 48.7447 37.0176 52.7552 36.0496 58.6704C35.0816 64.5856 39.0921 70.1656 45.0073 71.1336C50.9225 72.1015 56.5025 68.091 57.4704 62.1758Z" fill="white"/>
<path d="M57.6104 60.4242C57.6066 60.4242 57.6 60.3647 57.5904 60.2486C57.5813 60.123 57.5692 59.952 57.5538 59.734C57.5463 59.62 57.5384 59.4936 57.5297 59.355C57.5147 59.2165 57.4843 59.0659 57.4594 58.9024C57.4066 58.5755 57.3566 58.1965 57.2306 57.7846C57.0376 56.9481 56.644 55.9601 56.025 54.913C55.401 53.8705 54.5016 52.7818 53.2782 51.8583C52.0585 50.9435 50.5201 50.1656 48.7446 49.8515C46.9812 49.5487 44.9906 49.604 43.0953 50.3245C42.6128 50.4793 42.1593 50.7176 41.6934 50.9414C41.252 51.2085 40.7865 51.4548 40.3755 51.7888C39.9387 52.0888 39.5568 52.4644 39.1566 52.8255C38.7951 53.2257 38.4153 53.6176 38.1037 54.0714C37.4643 54.9596 36.9057 55.9467 36.5679 57.0321C36.2176 58.1108 36.0291 59.2564 36.0133 60.4225C36.0287 61.5885 36.2168 62.735 36.567 63.8141C36.9048 64.8999 37.4635 65.8871 38.1029 66.7757C38.4145 67.2299 38.7943 67.6218 39.1558 68.022C39.556 68.3835 39.9379 68.7587 40.3751 69.0591C40.7861 69.3935 41.2516 69.6398 41.693 69.9069C42.1593 70.1307 42.6128 70.3695 43.0953 70.5238C44.991 71.2443 46.982 71.2992 48.7454 70.9964C50.5209 70.6823 52.0597 69.9044 53.279 68.9896C54.5025 68.0661 55.4014 66.9774 56.0254 65.9345C56.6444 64.8874 57.038 63.8994 57.231 63.0633C57.357 62.6514 57.407 62.2724 57.4598 61.9455C57.4848 61.782 57.5151 61.6318 57.5301 61.4929C57.5388 61.3543 57.5472 61.2279 57.5542 61.1139C57.57 60.8959 57.5821 60.7249 57.5908 60.5993C57.6 60.4836 57.6066 60.4242 57.6104 60.4242C57.6141 60.4242 57.6146 60.4836 57.6125 60.6001C57.6087 60.7266 57.6037 60.898 57.5971 61.1172C57.5929 61.232 57.5883 61.3593 57.5829 61.4987C57.5713 61.6385 57.5442 61.7899 57.5222 61.955C57.476 62.2845 57.4319 62.6672 57.3113 63.0841C57.1295 63.9302 56.7443 64.9319 56.1282 65.9965C55.5071 67.0564 54.6052 68.1659 53.3705 69.1107C52.14 70.0462 50.5812 70.845 48.7775 71.1719C46.9862 71.4877 44.9607 71.4386 43.0271 70.7102C42.5354 70.5538 42.0728 70.3125 41.5973 70.0849C41.1464 69.8145 40.6721 69.5637 40.2524 69.2242C39.8068 68.9189 39.4162 68.5374 39.0081 68.1692C38.6387 67.7624 38.2514 67.363 37.9328 66.9004C37.2792 65.9952 36.7093 64.9889 36.3636 63.8815C36.0054 62.7812 35.8132 61.6118 35.7979 60.4225C35.8132 59.2336 36.0063 58.065 36.3644 56.9647C36.7101 55.8577 37.2801 54.8514 37.9336 53.9466C38.2522 53.484 38.6395 53.0851 39.009 52.6782C39.4171 52.3101 39.8073 51.929 40.2532 51.6237C40.673 51.2842 41.1472 51.0338 41.5977 50.7634C42.0728 50.5363 42.5358 50.295 43.0275 50.1386C44.9607 49.4106 46.9862 49.3611 48.7771 49.6768C50.5808 50.0038 52.1392 50.8021 53.3701 51.7377C54.6048 52.682 55.5067 53.7919 56.1278 54.8518C56.7439 55.9164 57.1291 56.9185 57.3113 57.7647C57.4319 58.1815 57.476 58.5642 57.5222 58.8941C57.5438 59.0589 57.5709 59.2107 57.5829 59.3505C57.5879 59.4898 57.5929 59.6171 57.5971 59.7319C57.6037 59.9512 57.6087 60.1226 57.6125 60.249C57.6146 60.3647 57.6141 60.4242 57.6104 60.4242Z" fill="#263238"/>
<path d="M43.4427 58.3439H45.2161C45.2161 58.3439 45.2161 56.855 46.7636 56.828C47.5673 56.8142 47.9842 57.3405 48.1535 57.744C48.3503 58.2124 48.2903 58.7461 48.027 59.1804C47.7263 59.6763 47.0669 60.1273 45.8717 59.9168V63.9158H47.6252V61.5733C47.6252 61.5733 50.0846 60.9376 50.0846 58.227C50.0846 55.6336 47.7591 55.0312 46.7632 55.0312C46.0028 55.0312 43.4094 55.2151 43.4427 58.3439Z" fill="#263238"/>
<path d="M47.6468 64.7402H45.8672V66.4026H47.6468V64.7402Z" fill="#263238"/>
<path d="M62.4324 65.5726C62.4324 66.5802 61.6153 67.3972 60.6078 67.3972C59.6002 67.3972 58.7832 66.5802 58.7832 65.5726C58.7832 64.5651 59.6002 63.748 60.6078 63.748C61.6157 63.748 62.4324 64.5646 62.4324 65.5726Z" fill="white"/>
<path d="M62.4319 65.5717C62.4086 65.5726 62.407 65.4095 62.3259 65.1383C62.246 64.8725 62.0579 64.4868 61.6557 64.194C61.2667 63.8998 60.634 63.7397 60.0262 63.9697C59.423 64.1811 58.9051 64.8229 58.9117 65.5713C58.9051 66.3197 59.423 66.962 60.0262 67.1733C60.6344 67.4034 61.2667 67.2432 61.6557 66.9491C62.0579 66.6563 62.246 66.2706 62.3259 66.0048C62.407 65.734 62.4086 65.5709 62.4319 65.5717C62.4436 65.5705 62.4777 65.7348 62.4236 66.0293C62.37 66.3176 62.1961 66.7507 61.7667 67.0947C61.3524 67.4388 60.6444 67.6463 59.9451 67.3976C59.2524 67.1713 58.6451 66.4354 58.6534 65.5717C58.6451 64.7085 59.2524 63.9731 59.9451 63.7463C60.644 63.4972 61.352 63.7047 61.7663 64.0488C62.1956 64.3928 62.3695 64.8259 62.4232 65.1141C62.4781 65.4083 62.444 65.5726 62.4319 65.5717Z" fill="#263238"/>
<path d="M174.65 171.169C182.734 171.169 189.287 164.616 189.287 156.532C189.287 148.448 182.734 141.895 174.65 141.895C166.566 141.895 160.013 148.448 160.013 156.532C160.013 164.616 166.566 171.169 174.65 171.169Z" fill="white"/>
<path d="M189.287 156.532C189.282 156.532 189.273 156.452 189.261 156.296C189.248 156.126 189.232 155.896 189.211 155.601C189.201 155.447 189.19 155.277 189.178 155.09C189.158 154.903 189.117 154.701 189.083 154.48C189.012 154.039 188.945 153.528 188.775 152.973C188.515 151.844 187.983 150.512 187.148 149.1C186.307 147.694 185.094 146.225 183.444 144.98C181.799 143.746 179.724 142.696 177.329 142.273C174.951 141.865 172.266 141.939 169.709 142.911C169.058 143.119 168.447 143.441 167.818 143.743C167.222 144.103 166.595 144.435 166.04 144.886C165.451 145.291 164.936 145.797 164.396 146.284C163.909 146.824 163.396 147.352 162.976 147.965C162.113 149.163 161.36 150.494 160.904 151.958C160.432 153.413 160.178 154.958 160.156 156.531C160.177 158.104 160.431 159.649 160.903 161.105C161.359 162.569 162.112 163.901 162.975 165.099C163.395 165.712 163.907 166.24 164.395 166.78C164.934 167.268 165.45 167.774 166.039 168.179C166.594 168.63 167.221 168.962 167.817 169.322C168.446 169.624 169.057 169.946 169.708 170.154C172.265 171.126 174.95 171.2 177.329 170.792C179.724 170.368 181.799 169.319 183.444 168.085C185.094 166.839 186.306 165.371 187.148 163.965C187.983 162.553 188.514 161.22 188.774 160.092C188.944 159.536 189.011 159.025 189.082 158.584C189.116 158.364 189.156 158.161 189.177 157.974C189.189 157.787 189.2 157.616 189.21 157.463C189.231 157.169 189.247 156.938 189.259 156.769C189.273 156.613 189.282 156.532 189.287 156.532C189.292 156.532 189.293 156.613 189.29 156.769C189.285 156.94 189.278 157.171 189.269 157.467C189.263 157.621 189.257 157.793 189.25 157.981C189.234 158.169 189.198 158.374 189.169 158.596C189.106 159.041 189.047 159.557 188.884 160.119C188.639 161.26 188.119 162.612 187.288 164.047C186.45 165.477 185.234 166.974 183.568 168.248C181.909 169.51 179.806 170.587 177.373 171.028C174.957 171.454 172.225 171.387 169.617 170.405C168.954 170.194 168.33 169.868 167.689 169.562C167.081 169.197 166.441 168.859 165.875 168.401C165.274 167.989 164.747 167.475 164.197 166.978C163.699 166.429 163.176 165.891 162.746 165.267C161.865 164.047 161.096 162.689 160.63 161.195C160.147 159.711 159.888 158.134 159.867 156.53C159.888 154.927 160.148 153.35 160.631 151.866C161.097 150.374 161.866 149.016 162.747 147.796C163.177 147.172 163.699 146.634 164.197 146.085C164.748 145.589 165.274 145.074 165.875 144.663C166.442 144.205 167.081 143.867 167.689 143.502C168.33 143.195 168.955 142.87 169.617 142.659C172.225 141.677 174.956 141.61 177.372 142.036C179.805 142.477 181.907 143.554 183.568 144.816C185.233 146.089 186.449 147.586 187.287 149.016C188.119 150.451 188.638 151.803 188.884 152.944C189.046 153.506 189.106 154.023 189.168 154.467C189.197 154.69 189.234 154.894 189.25 155.083C189.257 155.271 189.263 155.442 189.269 155.597C189.278 155.893 189.285 156.124 189.29 156.295C189.293 156.452 189.292 156.532 189.287 156.532Z" fill="#263238"/>
<path d="M170.697 153.209H172.812C172.812 153.209 172.812 151.433 174.658 151.401C175.617 151.385 176.113 152.013 176.316 152.494C176.55 153.053 176.479 153.689 176.165 154.207C175.806 154.799 175.02 155.337 173.594 155.086V159.855H175.686V157.061C175.686 157.061 178.619 156.303 178.619 153.07C178.619 149.976 175.846 149.258 174.658 149.258C173.75 149.258 170.657 149.477 170.697 153.209Z" fill="#263238"/>
<path d="M175.711 160.838H173.588V162.821H175.711V160.838Z" fill="#263238"/>
<path d="M159.134 140.334C159.134 141.675 160.221 142.762 161.562 142.762C162.902 142.762 163.989 141.675 163.989 140.334C163.989 138.993 162.902 137.906 161.562 137.906C160.22 137.907 159.134 138.993 159.134 140.334Z" fill="white"/>
<path d="M159.134 140.335C159.165 140.336 159.167 140.119 159.275 139.758C159.381 139.404 159.632 138.891 160.167 138.501C160.684 138.11 161.526 137.897 162.335 138.203C163.137 138.484 163.827 139.339 163.818 140.334C163.827 141.329 163.138 142.184 162.335 142.465C161.526 142.772 160.684 142.558 160.167 142.167C159.632 141.777 159.381 141.264 159.275 140.91C159.167 140.551 159.165 140.334 159.134 140.335C159.118 140.333 159.073 140.552 159.145 140.944C159.217 141.327 159.448 141.903 160.019 142.361C160.57 142.819 161.513 143.095 162.443 142.764C163.364 142.462 164.173 141.483 164.161 140.334C164.172 139.186 163.364 138.207 162.443 137.906C161.513 137.574 160.571 137.85 160.019 138.308C159.448 138.766 159.217 139.342 159.145 139.726C159.073 140.117 159.118 140.336 159.134 140.335Z" fill="#263238"/>
<path d="M42.1593 182.237C43.7901 176.888 40.7757 171.23 35.4264 169.599C30.0771 167.968 24.4186 170.982 22.7878 176.332C21.157 181.681 24.1714 187.34 29.5207 188.97C34.8701 190.601 40.5285 187.587 42.1593 182.237Z" fill="white"/>
<path d="M42.6071 179.282C42.6038 179.282 42.5976 179.226 42.5888 179.118C42.5805 179.001 42.5693 178.841 42.5547 178.638C42.548 178.531 42.5401 178.413 42.5322 178.284C42.5181 178.155 42.4898 178.014 42.4665 177.862C42.4174 177.557 42.3704 177.203 42.2531 176.819C42.073 176.038 41.7057 175.116 41.1282 174.139C40.5458 173.167 39.7068 172.151 38.5653 171.289C37.4275 170.435 35.9919 169.709 34.335 169.416C32.6897 169.134 30.8322 169.186 29.0634 169.858C28.6133 170.002 28.1902 170.225 27.7551 170.434C27.3428 170.683 26.9089 170.912 26.5254 171.224C26.1177 171.504 25.7612 171.855 25.3881 172.192C25.0507 172.565 24.6962 172.93 24.4055 173.354C23.8085 174.183 23.2877 175.104 22.9723 176.117C22.6454 177.123 22.4694 178.192 22.4548 179.28C22.4694 180.369 22.6449 181.438 22.9715 182.445C23.2864 183.458 23.8081 184.379 24.4046 185.208C24.6954 185.632 25.0498 185.998 25.3872 186.371C25.7608 186.709 26.1173 187.059 26.525 187.339C26.9085 187.651 27.3428 187.881 27.7547 188.13C28.1898 188.339 28.6129 188.561 29.063 188.706C30.8318 189.378 32.6897 189.429 34.335 189.147C35.9919 188.854 37.4275 188.128 38.5653 187.274C39.7068 186.412 40.5458 185.396 41.1278 184.424C41.7052 183.447 42.0726 182.525 42.2527 181.744C42.3704 181.36 42.417 181.006 42.4661 180.701C42.4894 180.549 42.5177 180.408 42.5318 180.279C42.5401 180.15 42.5476 180.032 42.5543 179.925C42.5689 179.722 42.5801 179.563 42.5884 179.445C42.5971 179.338 42.6034 179.282 42.6071 179.282C42.6109 179.282 42.6113 179.338 42.6092 179.446C42.6059 179.564 42.6009 179.724 42.5946 179.929C42.5909 180.036 42.5863 180.155 42.5813 180.284C42.5705 180.415 42.5451 180.556 42.5248 180.71C42.4815 181.017 42.4403 181.375 42.328 181.764C42.1583 182.553 41.7988 183.488 41.2239 184.481C40.6444 185.47 39.8029 186.506 38.651 187.387C37.5028 188.26 36.0485 189.005 34.3653 189.311C32.6938 189.605 30.8035 189.56 28.9998 188.88C28.5409 188.734 28.1091 188.509 27.6656 188.297C27.2451 188.044 26.8025 187.81 26.4106 187.493C25.9946 187.208 25.6302 186.853 25.2495 186.509C24.9047 186.129 24.5432 185.757 24.2461 185.325C23.6367 184.481 23.1046 183.541 22.7818 182.508C22.4478 181.482 22.2685 180.391 22.2539 179.281C22.2685 178.172 22.4482 177.081 22.7826 176.055C23.1055 175.022 23.6371 174.083 24.247 173.239C24.544 172.807 24.9055 172.435 25.2504 172.055C25.631 171.712 25.9954 171.356 26.4114 171.071C26.8029 170.755 27.2455 170.521 27.6661 170.268C28.1095 170.056 28.5413 169.831 29.0002 169.685C30.804 169.006 32.6938 168.96 34.3653 169.254C36.0485 169.559 37.5028 170.304 38.651 171.177C39.8029 172.058 40.6449 173.094 41.2243 174.083C41.7993 175.077 42.1587 176.011 42.3288 176.801C42.4411 177.19 42.4823 177.547 42.5256 177.855C42.546 178.009 42.5709 178.15 42.5822 178.28C42.5872 178.41 42.5913 178.529 42.5955 178.636C42.6017 178.841 42.6063 179 42.61 179.118C42.6109 179.227 42.6105 179.282 42.6071 179.282Z" fill="#263238"/>
<path d="M29.7464 176.984H31.2098C31.2098 176.984 31.2098 175.756 32.487 175.733C33.1501 175.722 33.4941 176.157 33.6339 176.489C33.7961 176.876 33.747 177.316 33.5299 177.675C33.2815 178.084 32.7378 178.456 31.7515 178.282V181.582H33.1987V179.648C33.1987 179.648 35.2284 179.124 35.2284 176.887C35.2284 174.747 33.3094 174.25 32.4878 174.25C31.8588 174.251 29.7189 174.403 29.7464 176.984Z" fill="#263238"/>
<path d="M33.2155 182.262H31.7471V183.633H33.2155V182.262Z" fill="#263238"/>
<path d="M39.124 166.411C39.124 167.703 40.1719 168.752 41.4649 168.752C42.7578 168.752 43.8053 167.704 43.8053 166.411C43.8053 165.118 42.7574 164.07 41.4649 164.07C40.1723 164.07 39.124 165.118 39.124 166.411Z" fill="white"/>
<path d="M39.1242 166.41C39.1542 166.412 39.1562 166.202 39.2598 165.855C39.3622 165.513 39.6034 165.019 40.1197 164.643C40.6185 164.266 41.4301 164.06 42.2101 164.355C42.9839 164.627 43.6482 165.45 43.6399 166.41C43.6486 167.37 42.9839 168.194 42.2101 168.465C41.4301 168.76 40.6185 168.554 40.1197 168.177C39.6039 167.801 39.3626 167.307 39.2602 166.966C39.1562 166.619 39.1542 166.409 39.1242 166.41C39.1092 166.409 39.0651 166.62 39.135 166.997C39.2041 167.367 39.4271 167.922 39.9778 168.364C40.5095 168.805 41.418 169.071 42.3145 168.752C43.2031 168.461 43.9823 167.518 43.9714 166.41C43.9818 165.303 43.2031 164.359 42.3145 164.068C41.418 163.749 40.5095 164.015 39.9778 164.456C39.4271 164.898 39.2041 165.453 39.135 165.823C39.0651 166.201 39.1092 166.412 39.1242 166.41Z" fill="#263238"/>
</svg>
