<svg width="377" height="93" viewBox="0 0 377 93" fill="none" xmlns="http://www.w3.org/2000/svg">
<rect width="340" height="63" transform="translate(7 22)" fill="white"/>
<path d="M15 22H339" stroke="#D5A618" stroke-width="2"/>
<path d="M339 86H15" stroke="#D5A618" stroke-width="2"/>
<path d="M7 22H15M7 22V30M7 22V19C7 17.3431 5.65685 16 4 16C2.34315 16 1 17.3431 1 19C1 20.6569 2.34315 22 4 22H7Z" stroke="#D5A618" stroke-width="2"/>
<path d="M7 30V75" stroke="#D5A618" stroke-width="2"/>
<path d="M7 86L7 74M7 86L15 86M7 86L4 86C2.34315 86 1 87.3431 1 89C1 90.6569 2.34315 92 4 92C5.65685 92 7 90.6569 7 89L7 86Z" stroke="#D5A618" stroke-width="2"/>
<path d="M347 22L347 30M347 22L339 22M347 22L350 22C351.657 22 353 20.6569 353 19C353 17.3431 351.657 16 350 16C348.343 16 347 17.3431 347 19L347 22Z" stroke="#D5A618" stroke-width="2"/>
<path d="M347 30L347 75" stroke="#D5A618" stroke-width="2"/>
<path d="M347 86L339 86M347 86L347 74M347 86L347 89C347 90.6569 348.343 92 350 92C351.657 92 353 90.6569 353 89C353 87.3431 351.657 86 350 86L347 86Z" stroke="#D5A618" stroke-width="2"/>
<path fill-rule="evenodd" clip-rule="evenodd" d="M368.763 24.5931C371.055 23.9486 373.454 23.6235 375.781 23.3256C376.283 23.2632 376.748 23.6116 376.784 24.1025C376.855 24.5938 376.497 25.0431 376.032 25.1056C373.776 25.3923 371.449 25.6991 369.264 26.3196C368.799 26.4542 368.297 26.1772 368.154 25.7006C368.011 25.2244 368.297 24.7281 368.763 24.5931Z" fill="#D5A803"/>
<path fill-rule="evenodd" clip-rule="evenodd" d="M361.817 15.4547C365.505 11.6826 369.659 8.39608 373.275 4.52281C373.597 4.16107 374.17 4.14169 374.528 4.47939C374.886 4.81744 374.922 5.38589 374.564 5.74762C370.948 9.63202 366.794 12.9293 363.106 16.7125C362.748 17.0656 362.175 17.0706 361.817 16.7233C361.495 16.3762 361.459 15.8078 361.817 15.4547Z" fill="#D5A803"/>
<path fill-rule="evenodd" clip-rule="evenodd" d="M354.905 0.945891C354.798 3.10484 354.691 5.26379 354.583 7.4231C354.583 7.91762 354.154 8.29946 353.652 8.27542C353.151 8.25101 352.793 7.83006 352.793 7.33518C352.9 5.17264 353.008 3.01046 353.115 0.848278C353.151 0.353757 353.581 -0.0255669 354.082 0.00134821C354.547 0.0282633 354.941 0.451729 354.905 0.945891Z" fill="#D5A803"/>
</svg>
