<svg width="231" height="231" viewBox="0 0 231 231" fill="none" xmlns="http://www.w3.org/2000/svg">
<g clip-path="url(#clip0_1153_16788)">
<path d="M202.122 2.5721C191.336 -2.18599 178.713 -0.160268 165.902 7.14175C134.063 25.2319 96.3827 25.2319 64.5433 7.14175C51.7321 -0.160268 39.1094 -2.18599 28.3235 2.5721C-4.41088 16.6579 -9.54476 85.8152 16.9724 156.81C25.4033 179.469 35.6711 202.883 46.6453 223.564C52.2973 234.352 67.5105 231.997 70.0539 219.701C77.5428 185.5 94.9226 161.521 115.223 161.521C134.957 161.521 152.196 184.369 159.873 217.157C162.605 228.888 177.065 231.243 182.905 221.02C194.633 200.904 205.23 178.574 213.473 156.621C239.99 85.6267 234.856 16.6579 202.122 2.5721Z" fill="white"/>
<path d="M199.016 39.1836H31.4297V101.874H199.016V39.1836Z" fill="white"/>
<path d="M39.4297 39.1836H191.429" stroke="#D5A618" stroke-width="2"/>
<path d="M191.429 103.184H39.4297" stroke="#D5A618" stroke-width="2"/>
<path d="M31.4297 39.1836H39.4297M31.4297 39.1836V47.1836M31.4297 39.1836V36.1836C31.4297 34.5267 30.0865 33.1836 28.4297 33.1836C26.7728 33.1836 25.4297 34.5267 25.4297 36.1836C25.4297 37.8404 26.7728 39.1836 28.4297 39.1836H31.4297Z" stroke="#D5A618" stroke-width="2"/>
<path d="M31.4297 47.1836V92.1836" stroke="#D5A618" stroke-width="2"/>
<path d="M31.4297 103.184V91.1836M31.4297 103.184H39.4297M31.4297 103.184H28.4297C26.7728 103.184 25.4297 104.527 25.4297 106.184C25.4297 107.84 26.7728 109.184 28.4297 109.184C30.0865 109.184 31.4297 107.84 31.4297 106.184V103.184Z" stroke="#D5A618" stroke-width="2"/>
<path d="M199.429 39.1836V47.1836M199.429 39.1836H191.429M199.429 39.1836H202.429C204.086 39.1836 205.429 37.8404 205.429 36.1836C205.429 34.5267 204.086 33.1836 202.429 33.1836C200.772 33.1836 199.429 34.5267 199.429 36.1836V39.1836Z" stroke="#D5A618" stroke-width="2"/>
<path d="M199.429 47.1836V92.1836" stroke="#D5A618" stroke-width="2"/>
<path d="M199.429 103.184H191.429M199.429 103.184V91.1836M199.429 103.184V106.184C199.429 107.84 200.772 109.184 202.429 109.184C204.086 109.184 205.429 107.84 205.429 106.184C205.429 104.527 204.086 103.184 202.429 103.184H199.429Z" stroke="#D5A618" stroke-width="2"/>
<path fill-rule="evenodd" clip-rule="evenodd" d="M213.192 41.595C215.484 40.9505 217.883 40.6254 220.211 40.3275C220.712 40.2651 221.177 40.6135 221.213 41.1044C221.285 41.5957 220.926 42.045 220.461 42.1075C218.205 42.3942 215.878 42.701 213.694 43.3215C213.228 43.4561 212.727 43.1791 212.583 42.7025C212.44 42.2263 212.727 41.73 213.192 41.595Z" fill="#D5A803"/>
<path fill-rule="evenodd" clip-rule="evenodd" d="M206.246 32.4547C209.934 28.6826 214.088 25.3961 217.704 21.5228C218.027 21.1611 218.599 21.1417 218.958 21.4794C219.316 21.8174 219.351 22.3859 218.993 22.7476C215.377 26.632 211.223 29.9293 207.535 33.7125C207.177 34.0656 206.604 34.0706 206.246 33.7233C205.924 33.3762 205.888 32.8078 206.246 32.4547Z" fill="#D5A803"/>
<path fill-rule="evenodd" clip-rule="evenodd" d="M199.335 17.9459C199.227 20.1048 199.12 22.2638 199.013 24.4231C199.013 24.9176 198.583 25.2995 198.081 25.2754C197.58 25.251 197.222 24.8301 197.222 24.3352C197.33 22.1726 197.437 20.0105 197.544 17.8483C197.58 17.3538 198.01 16.9744 198.511 17.0013C198.977 17.0283 199.371 17.4517 199.335 17.9459Z" fill="#D5A803"/>
</g>
<defs>
<clipPath id="clip0_1153_16788">
<rect width="231" height="231" fill="white"/>
</clipPath>
</defs>
</svg>
