<svg width="1440" height="681" viewBox="0 0 1440 681" fill="none" xmlns="http://www.w3.org/2000/svg" xmlns:xlink="http://www.w3.org/1999/xlink">
<g clip-path="url(#clip0_522_7014)">
<path d="M1009.6 33.8085C509.487 -57.0367 122.579 62.0778 -4.73807 114.395L-68.0741 187.801L-124.158 366.653L-245.512 459.931L-480 568.621C-470.814 634.186 -362.901 740.01 -4.73807 638.783C442.965 512.248 735.955 556.86 1125.64 620.127C1437.39 670.741 1739.98 621.208 1852.31 590.116L1898.24 568.621L1920 545.099L1898.24 36.1221C1807.99 85.6003 1509.71 124.654 1009.6 33.8085Z" fill="#85775F"/>
<path d="M1009.6 33.8085C509.487 -57.0367 122.579 62.0779 -4.73807 114.395L-68.0741 187.801L-124.158 366.653L-245.512 459.931L-480 568.621C-470.814 634.186 -362.901 740.01 -4.73807 638.783C442.965 512.248 735.955 556.86 1125.64 620.127C1437.39 670.741 1739.98 621.208 1852.31 590.116L1898.24 568.621L1920 545.099L1898.24 36.1221C1807.99 85.6003 1509.71 124.654 1009.6 33.8085Z" fill="url(#pattern0_522_7014)"/>
</g>
<defs>
<clipPath id="clip0_522_7014">
<rect width="1440" height="680" fill="white" transform="translate(0 0.664062)"/>
</clipPath>
<pattern id="pattern0_522_7014" patternUnits="userSpaceOnUse" viewBox="-4519.7 31889.6 815.305 696.111" width="4.0765224308552774%" height="12.284311895116321%" patternContentUnits="objectBoundingBox">
<g id="pattern0_522_7014_inner">
<path d="M-5253.08 31254.3L-5238.95 31321.6L-5171.17 31335.7L-5238.95 31349.7L-5253.08 31417.1L-5267.22 31349.7L-5335 31335.7L-5267.22 31321.6L-5253.08 31254.3Z" fill="#F7F5F2" fill-opacity="0.06"/>
<g clip-path="url(#clip1_522_7014)">
<path fill-rule="evenodd" clip-rule="evenodd" d="M-5067.94 31365.4C-5068.13 31377.3 -5068.3 31388.5 -5074.57 31393.6C-5077.33 31395.9 -5080.1 31397.1 -5082.81 31397.1C-5083.73 31397.1 -5084.64 31396.9 -5085.55 31396.7C-5095.57 31393.8 -5101.31 31375.7 -5111.73 31343L-5111.74 31343C-5113.41 31337.7 -5115.18 31332.2 -5117.08 31326.3C-5126.69 31296.8 -5111.41 31283.9 -5104.39 31279.8C-5102.62 31278.7 -5100.75 31277.8 -5098.83 31277.1C-5075.58 31268 -5040.77 31268.4 -5017.68 31277.8C-5015.51 31278.7 -5013.42 31279.7 -5011.43 31281C-4996.44 31290.5 -4992.18 31308.1 -5000.04 31328.1C-5003.51 31336.9 -5006.5 31344.7 -5009.13 31351.6L-5009.13 31351.6C-5019.44 31378.7 -5024.15 31391.1 -5031.85 31394.3C-5034.65 31395.4 -5037.73 31395.3 -5041.01 31393.9C-5047.06 31391.2 -5047.74 31381.6 -5048.6 31369.3L-5048.6 31369.3C-5049.78 31352.7 -5051.33 31339.9 -5059.43 31339.9C-5066.97 31339.9 -5067.7 31350 -5067.94 31365.4L-5067.94 31365.4ZM-5055.92 31289.9C-5057.36 31291.4 -5059.73 31291.4 -5061.16 31289.9C-5066.58 31284.4 -5075.08 31281.5 -5083.66 31281.5C-5089.72 31281.5 -5095.81 31282.9 -5100.9 31285.9C-5112.75 31293 -5116.12 31306.5 -5110.4 31324.1C-5108.5 31330 -5106.72 31335.5 -5105.04 31340.8L-5105.04 31340.8L-5105.04 31340.8L-5105.04 31340.8C-5096.99 31366.1 -5090.04 31387.9 -5083.76 31389.8L-5083.75 31389.8C-5083.34 31389.9 -5082.09 31390.2 -5079.51 31388.1C-5075.81 31385 -5075.65 31374.6 -5075.5 31365.3L-5075.5 31365.3C-5075.27 31350.8 -5074.99 31332.7 -5059.69 31332.7C-5044.14 31332.7 -5042.73 31352.7 -5041.59 31368.8C-5041.13 31375.3 -5040.37 31386.1 -5038.32 31387.3C-5036.5 31388.1 -5035.56 31387.9 -5034.94 31387.6C-5030.13 31385.6 -5024.6 31371.1 -5016.23 31349.1L-5016.22 31349.1L-5016.21 31349.1C-5013.57 31342.1 -5010.58 31334.3 -5007.1 31325.4C-4998.08 31302.5 -5008.57 31291.5 -5015.63 31287.1C-5028.18 31279.1 -5046.63 31280.4 -5055.92 31289.9Z" fill="#F7F5F2" fill-opacity="0.06"/>
<path d="M-5101.64 31320.1C-5103.06 31320.3 -5104.38 31319.4 -5104.71 31318C-5109.1 31299.6 -5099.75 31292.3 -5095.38 31290C-5087.47 31285.8 -5077.08 31287.1 -5070.89 31293C-5070.16 31293.6 -5070.26 31294.8 -5071.03 31295.4C-5071.78 31296.1 -5072.89 31296 -5073.6 31295.3C-5078.83 31290.4 -5086.36 31289.8 -5093.32 31293.5C-5101.08 31297.6 -5101.85 31305.2 -5099.09 31316.4C-5098.66 31318.1 -5099.84 31319.9 -5101.64 31320.1Z" fill="#F7F5F2" fill-opacity="0.4"/>
</g>
<path d="M-4669.89 31250.1L-4710.92 31300.2L-4714.76 31304.9L-4710.11 31308.7L-4660.36 31349.4L-4696.13 31393.1L-4745.88 31352.4L-4750.53 31348.6L-4754.36 31353.3L-4795.4 31403.5L-4838.75 31368L-4797.72 31317.9L-4793.88 31313.2L-4798.53 31309.4L-4848.29 31268.7L-4812.52 31224.9L-4762.76 31265.6L-4758.11 31269.5L-4754.28 31264.8L-4713.23 31214.6L-4669.88 31250.1M-4661.41 31249.2L-4714.04 31206.1L-4758.91 31261L-4813.31 31216.5L-4856.73 31269.5L-4802.35 31314L-4847.22 31368.9L-4794.59 31411.9L-4749.74 31357.1L-4695.36 31401.6L-4651.92 31348.5L-4706.3 31304L-4661.43 31249.2L-4661.41 31249.2Z" fill="#F7F5F2" fill-opacity="0.4"/>
<path d="M-4821.68 31403.6L-4833.35 31417.9L-4834.44 31419.2L-4833.15 31420.3L-4819.35 31431.6L-4829.52 31444L-4843.31 31432.7L-4844.61 31431.7L-4845.7 31433L-4857.37 31447.3L-4869.39 31437.4L-4857.73 31423.2L-4856.63 31421.8L-4857.93 31420.8L-4871.72 31409.5L-4861.56 31397L-4847.76 31408.3L-4846.46 31409.4L-4845.37 31408.1L-4833.71 31393.8L-4821.68 31403.6ZM-4819.29 31403.4L-4833.91 31391.4L-4846.66 31407L-4861.76 31394.6L-4874.11 31409.7L-4859.02 31422.1L-4871.78 31437.7L-4857.17 31449.6L-4844.41 31434L-4829.32 31446.4L-4816.96 31431.3L-4832.05 31418.9L-4819.29 31403.4Z" fill="#F7F5F2" fill-opacity="0.4"/>
</g>
<use xlink:href="#pattern0_522_7014_inner" transform="translate(815.305 0)"/>
<use xlink:href="#pattern0_522_7014_inner" transform="translate(407.652 348.056)"/>
<use xlink:href="#pattern0_522_7014_inner" transform="translate(1222.96 348.056)"/>
<use xlink:href="#pattern0_522_7014_inner" transform="translate(0 696.111)"/>
<use xlink:href="#pattern0_522_7014_inner" transform="translate(815.305 696.111)"/>
</pattern><clipPath id="clip1_522_7014">
<rect width="124" height="122.839" fill="white" transform="translate(-5120.17 31274.2)"/>
</clipPath>
</defs>
</svg>
