<svg width="40" height="40" viewBox="0 0 40 40" fill="none" xmlns="http://www.w3.org/2000/svg">
<g clip-path="url(#clip0_1973_12344)">
<path opacity="0.992" fill-rule="evenodd" clip-rule="evenodd" d="M18.8672 -0.0390625C19.5963 -0.0390625 20.3255 -0.0390625 21.0547 -0.0390625C22.7795 0.193212 24.342 0.831234 25.7422 1.875C26.8441 2.69308 27.9249 3.53943 28.9844 4.41406C29.0104 3.60677 29.0365 2.79948 29.0625 1.99219C29.5555 0.924758 30.3498 0.625278 31.4453 1.09375C31.6697 1.29192 31.865 1.51327 32.0312 1.75781C32.1594 3.86234 32.1855 5.97171 32.1094 8.08594C31.7523 8.93523 31.1142 9.2868 30.1953 9.14062C30.004 9.08398 29.8216 9.00586 29.6484 8.90625C27.7333 7.46684 25.8323 6.00852 23.9453 4.53125C23.5916 4.2894 23.227 4.06804 22.8516 3.86719C20.8487 2.81316 18.8434 2.82618 16.8359 3.90625C13.098 6.69977 9.37398 9.51227 5.66406 12.3438C4.24871 13.4155 3.40236 14.8348 3.125 16.6016C3.07291 21.4974 3.07291 26.3932 3.125 31.2891C3.50797 33.8039 4.87516 35.5227 7.22656 36.4453C7.91406 36.6467 8.61719 36.7639 9.33594 36.7969C16.4193 36.849 23.5026 36.849 30.5859 36.7969C34.3757 36.4446 36.446 34.3743 36.7969 30.5859C36.849 26.2109 36.849 21.8359 36.7969 17.4609C36.7044 15.2185 35.7669 13.4216 33.9844 12.0703C33.5278 11.0179 33.8013 10.2236 34.8047 9.6875C35.3999 9.56648 35.9468 9.67062 36.4453 10C38.3608 11.6573 39.5327 13.7276 39.9609 16.2109C39.9609 21.3932 39.9609 26.5755 39.9609 31.7578C39.3515 35.2721 37.4244 37.7851 34.1797 39.2969C33.3555 39.5939 32.5222 39.8152 31.6797 39.9609C23.8672 39.9609 16.0547 39.9609 8.24219 39.9609C4.6857 39.3876 2.14663 37.4605 0.625 34.1797C0.340447 33.3791 0.119093 32.5718 -0.0390625 31.7578C-0.0390625 26.5755 -0.0390625 21.3932 -0.0390625 16.2109C0.354421 13.9268 1.39609 11.9867 3.08594 10.3906C6.94391 7.39193 10.8241 4.42318 14.7266 1.48438C16.0075 0.688673 17.3877 0.180861 18.8672 -0.0390625Z" fill="white"/>
<path opacity="0.975" fill-rule="evenodd" clip-rule="evenodd" d="M16.29 18.0085C17.4933 17.8221 18.3136 18.2909 18.7509 19.4148C18.9758 20.619 18.5201 21.4393 17.3837 21.8757C16.1795 22.1006 15.3592 21.6449 14.9228 20.5085C14.7078 19.2973 15.1635 18.4639 16.29 18.0085Z" fill="white"/>
<path opacity="0.975" fill-rule="evenodd" clip-rule="evenodd" d="M22.54 18.0085C23.7433 17.8221 24.5636 18.2909 25.0009 19.4148C25.2258 20.619 24.7701 21.4393 23.6337 21.8757C22.4295 22.1006 21.6092 21.6449 21.1728 20.5085C20.9578 19.2973 21.4135 18.4639 22.54 18.0085Z" fill="white"/>
<path opacity="0.975" fill-rule="evenodd" clip-rule="evenodd" d="M16.29 24.2585C17.4933 24.0721 18.3136 24.5409 18.7509 25.6648C18.9758 26.869 18.5201 27.6893 17.3837 28.1257C16.1795 28.3506 15.3592 27.8949 14.9228 26.7585C14.7078 25.5473 15.1635 24.7139 16.29 24.2585Z" fill="white"/>
<path opacity="0.975" fill-rule="evenodd" clip-rule="evenodd" d="M22.54 24.2585C23.7433 24.0721 24.5636 24.5409 25.0009 25.6648C25.2258 26.869 24.7701 27.6893 23.6337 28.1257C22.4295 28.3506 21.6092 27.8949 21.1728 26.7585C20.9578 25.5473 21.4135 24.7139 22.54 24.2585Z" fill="white"/>
</g>
<defs>
<clipPath id="clip0_1973_12344">
<rect width="40" height="40" fill="white"/>
</clipPath>
</defs>
</svg>
