<svg width="180" height="180" viewBox="0 0 180 180" fill="none" xmlns="http://www.w3.org/2000/svg">
<path fill-rule="evenodd" clip-rule="evenodd" d="M148.75 37.5L122.5 11.25H92.5H55L36.25 30L10 56.25V86.25V123.75L28.75 142.5L55 168.75H85H122.5L141.25 150L167.5 123.75V93.75V56.25L148.75 37.5ZM148.75 37.5L130 56.25L167.5 93.75H141.25V150L122.5 131.25L85 168.75V142.5H28.75L47.5 123.75L10 86.25H36.25V30L55 48.75L92.5 11.25V37.5H148.75Z" fill="#F7F5F2"/>
<g clip-path="url(#clip0_1055_10278)">
<path opacity="0.8" fill-rule="evenodd" clip-rule="evenodd" d="M115.391 52.8594C115.646 53.0545 115.829 53.3149 115.938 53.6406C116.101 53.4652 116.205 53.2569 116.25 53.0156C116.542 52.8332 116.777 52.9113 116.953 53.25C116.225 53.8485 116.33 54.0829 117.266 53.9531C117.266 54.1615 117.266 54.3698 117.266 54.5781C116.951 54.4978 116.639 54.4718 116.328 54.5C116.565 54.7111 116.774 54.9455 116.953 55.2031C116.824 55.346 116.668 55.4502 116.484 55.5156C116.227 55.3158 116.045 55.0554 115.938 54.7344C115.826 55.428 115.487 55.6103 114.922 55.2812C115.071 54.9757 115.279 54.7153 115.547 54.5C115.236 54.4718 114.924 54.4978 114.609 54.5781C114.609 54.3698 114.609 54.1615 114.609 53.9531C115.545 54.0829 115.65 53.8485 114.922 53.25C115.089 53.1169 115.245 52.9867 115.391 52.8594Z" fill="#DCAA14"/>
<path opacity="0.777" fill-rule="evenodd" clip-rule="evenodd" d="M72.7344 54.2656C72.99 54.4608 73.1723 54.7212 73.2812 55.0469C73.3433 54.2404 73.6298 54.1102 74.1406 54.6562C73.7197 55.0551 73.8239 55.2374 74.4531 55.2031C74.4531 55.4115 74.4531 55.6198 74.4531 55.8281C74.1834 55.779 73.923 55.7529 73.6719 55.75C74.3187 56.265 74.2667 56.5254 73.5156 56.5312C73.3075 55.8229 73.1513 55.8489 73.0469 56.6094C72.2756 56.4936 72.2234 56.2071 72.8906 55.75C72.6395 55.7529 72.3791 55.779 72.1094 55.8281C72.1094 55.6198 72.1094 55.4115 72.1094 55.2031C72.7475 55.2898 72.8517 55.1335 72.4219 54.7344C72.5302 54.5753 72.6342 54.4191 72.7344 54.2656Z" fill="#D3A519"/>
<path opacity="0.68" fill-rule="evenodd" clip-rule="evenodd" d="M52.2656 54.7344C52.5027 54.736 52.685 54.8402 52.8125 55.0469C52.9416 54.7492 53.1239 54.6971 53.3594 54.8906C53.1747 55.198 53.2789 55.4063 53.6719 55.5156C53.535 55.6329 53.3787 55.7111 53.2031 55.75C53.3338 55.908 53.3859 56.0903 53.3594 56.2969C53.1057 56.3187 52.9234 56.2146 52.8125 55.9844C52.5995 56.3413 52.3652 56.3673 52.1094 56.0625C52.5204 55.7983 52.4683 55.616 51.9531 55.5156C52.4683 55.4153 52.5204 55.233 52.1094 54.9688C52.1962 54.909 52.2483 54.8308 52.2656 54.7344Z" fill="#DCAA14"/>
<path opacity="0.876" fill-rule="evenodd" clip-rule="evenodd" d="M93.2031 58.4835C94.6855 58.3772 95.3366 59.0542 95.1562 60.5147C94.7001 61.378 93.997 61.6644 93.0469 61.3741C92.3198 60.9144 92.0855 60.2634 92.3437 59.421C92.5562 59.0268 92.8426 58.7143 93.2031 58.4835ZM93.3594 59.421C94.168 59.2658 94.4545 59.5783 94.2187 60.3585C93.7505 60.7167 93.3598 60.6126 93.0469 60.046C93.1531 59.8335 93.2573 59.6252 93.3594 59.421Z" fill="#D3A519"/>
<path opacity="0.96" fill-rule="evenodd" clip-rule="evenodd" d="M69.7656 63.1699C83.2033 63.1439 96.6408 63.1699 110.078 63.248C111.319 63.6038 112.075 64.4111 112.344 65.6699C112.473 84.5284 112.447 103.383 112.266 122.232C115.599 122.206 118.933 122.232 122.266 122.311C123.003 122.869 123.055 123.494 122.422 124.186C100.755 124.29 79.0886 124.29 57.4219 124.186C56.7885 123.494 56.8405 122.869 57.5781 122.311C60.9111 122.232 64.2444 122.206 67.5781 122.232C67.3967 103.383 67.3706 84.5284 67.5 65.6699C67.7984 64.4085 68.5538 63.5752 69.7656 63.1699ZM70.2344 65.2012C73.4636 65.2012 76.6927 65.2012 79.9219 65.2012C79.8959 66.4523 79.9219 67.7023 80 68.9512C80.3497 69.9777 81.0528 70.6288 82.1094 70.9043C87.3177 71.0085 92.5261 71.0085 97.7344 70.9043C98.7909 70.6288 99.4941 69.9777 99.8438 68.9512C99.9219 67.7023 99.9478 66.4523 99.9219 65.2012C103.151 65.1751 106.381 65.2012 109.609 65.2793C110.016 65.4254 110.25 65.7118 110.313 66.1387C110.417 84.5762 110.417 103.014 110.313 121.451C110.223 121.762 110.04 121.997 109.766 122.154C105.703 122.232 101.641 122.259 97.5781 122.232C97.6042 117.857 97.5781 113.482 97.5 109.107C96.9736 107.581 95.9059 106.904 94.2969 107.076C94.2709 106.449 94.297 105.824 94.375 105.201C95 104.993 95.4167 104.576 95.625 103.951C95.765 102.741 95.713 101.543 95.4688 100.357C95.2089 99.9798 94.8705 99.6934 94.4531 99.4981C91.4324 99.3938 88.4114 99.3938 85.3906 99.4981C84.9733 99.6934 84.6349 99.9798 84.375 100.357C84.1308 101.543 84.0788 102.741 84.2188 103.951C84.427 104.576 84.8438 104.993 85.4688 105.201C85.5467 105.824 85.5728 106.449 85.5469 107.076C83.9378 106.904 82.8702 107.581 82.3438 109.107C82.2656 113.482 82.2395 117.857 82.2656 122.232C78.2028 122.259 74.1403 122.232 70.0781 122.154C69.8033 121.997 69.6209 121.762 69.5313 121.451C69.427 103.014 69.427 84.5762 69.5313 66.1387C69.6249 65.7083 69.8592 65.3958 70.2344 65.2012ZM81.9531 65.2012C87.2656 65.2012 92.5781 65.2012 97.8906 65.2012C97.9166 66.2962 97.8906 67.3899 97.8125 68.4824C97.6714 68.6701 97.4892 68.8004 97.2656 68.873C92.3699 68.9773 87.4739 68.9773 82.5781 68.873C82.3545 68.8004 82.1724 68.6701 82.0313 68.4824C81.9531 67.3899 81.9272 66.2962 81.9531 65.2012ZM77.8906 78.6387C77.3878 78.8249 76.893 79.0332 76.4063 79.2637C76.0189 78.2096 75.3419 77.9493 74.375 78.4824C74.2308 78.7221 74.1527 78.9826 74.1406 79.2637C74.3583 80.0896 74.7228 80.8448 75.2344 81.5293C75.6511 81.6335 76.0677 81.6335 76.4844 81.5293C76.9233 81.2573 77.392 81.0749 77.8906 80.9824C77.8906 81.3991 77.8906 81.8157 77.8906 82.2324C76.3802 82.2324 74.8699 82.2324 73.3594 82.2324C73.3594 80.722 73.3594 79.2116 73.3594 77.7012C74.8699 77.7012 76.3802 77.7012 77.8906 77.7012C77.8906 78.0137 77.8906 78.3262 77.8906 78.6387ZM77.8906 89.1074C77.4069 89.271 76.9381 89.4793 76.4844 89.7324C76.2206 89.4935 76.0124 89.207 75.8594 88.873C74.8984 88.416 74.3255 88.7024 74.1406 89.7324C74.3583 90.5584 74.7228 91.3135 75.2344 91.998C75.6511 92.1023 76.0677 92.1023 76.4844 91.998C76.9261 91.738 77.3949 91.5559 77.8906 91.4512C77.8906 91.8679 77.8906 92.2845 77.8906 92.7012C76.3802 92.7012 74.8699 92.7012 73.3594 92.7012C73.3594 91.1907 73.3594 89.6804 73.3594 88.1699C74.8699 88.1699 76.3802 88.1699 77.8906 88.1699C77.8906 88.4824 77.8906 88.7949 77.8906 89.1074ZM86.1719 101.451C88.6719 101.451 91.1719 101.451 93.6719 101.451C93.6719 102.024 93.6719 102.597 93.6719 103.17C91.1719 103.17 88.6719 103.17 86.1719 103.17C86.1719 102.597 86.1719 102.024 86.1719 101.451ZM87.5781 105.201C89.1406 105.201 90.7031 105.201 92.2656 105.201C92.2656 105.826 92.2656 106.451 92.2656 107.076C90.7031 107.076 89.1406 107.076 87.5781 107.076C87.5781 106.451 87.5781 105.826 87.5781 105.201ZM84.7656 109.107C88.2036 109.081 91.6411 109.107 95.0781 109.186C95.2083 109.316 95.3386 109.446 95.4688 109.576C95.573 113.639 95.573 117.701 95.4688 121.764C95.3386 121.894 95.2083 122.024 95.0781 122.154C91.6406 122.259 88.2031 122.259 84.7656 122.154C84.6355 122.024 84.5052 121.894 84.375 121.764C84.2708 117.701 84.2708 113.639 84.375 109.576C84.5383 109.44 84.6684 109.284 84.7656 109.107Z" fill="white"/>
<path opacity="0.824" fill-rule="evenodd" clip-rule="evenodd" d="M126.797 65.0469C127.828 65.0748 128.218 65.5956 127.969 66.6094C127.891 66.7917 127.761 66.9219 127.578 67C126.519 67.293 126.024 66.9024 126.094 65.8281C126.254 65.4864 126.488 65.226 126.797 65.0469ZM126.953 65.6719C127.537 65.9021 127.563 66.1626 127.031 66.4531C126.551 66.2581 126.525 65.9977 126.953 65.6719Z" fill="#D3A519"/>
<path opacity="0.929" fill-rule="evenodd" clip-rule="evenodd" d="M89.7656 65.9844C90.8169 66.1466 91.1553 66.7195 90.7812 67.7031C89.8483 68.4228 89.1973 68.2145 88.8281 67.0781C88.9294 66.5097 89.2419 66.1451 89.7656 65.9844Z" fill="#D3A519"/>
<path opacity="0.825" fill-rule="evenodd" clip-rule="evenodd" d="M63.6719 68.0149C65.0766 67.9348 65.4933 68.5337 64.9219 69.8118C63.9609 70.2688 63.388 69.9824 63.2031 68.9524C63.2232 68.5688 63.3794 68.2563 63.6719 68.0149ZM63.9844 68.6399C64.6951 68.7074 64.7732 68.9679 64.2188 69.4212C63.8267 69.241 63.7486 68.9805 63.9844 68.6399Z" fill="#D4A519"/>
<path opacity="0.776" fill-rule="evenodd" clip-rule="evenodd" d="M51.9531 70.0473C52.1175 70.024 52.2737 70.05 52.4219 70.1254C52.7372 71.0858 52.9456 71.0597 53.0469 70.0473C53.9564 70.1333 54.0085 70.4718 53.2031 71.0629C53.4742 71.1647 53.7346 71.1387 53.9844 70.9848C54.1611 71.2308 54.1871 71.4912 54.0625 71.7661C53.7928 71.5979 53.5063 71.5718 53.2031 71.6879C53.4405 71.899 53.6488 72.1334 53.8281 72.3911C53.2524 72.8439 52.9138 72.6876 52.8125 71.9223C52.6403 72.2162 52.432 72.4767 52.1875 72.7036C52.0669 72.6809 51.9627 72.6289 51.875 72.5473C51.9097 72.2417 52.0399 71.9551 52.2656 71.6879C51.9945 71.5862 51.7341 71.6122 51.4844 71.7661C51.276 71.5056 51.276 71.2453 51.4844 70.9848C51.7341 71.1387 51.9945 71.1647 52.2656 71.0629C51.9236 70.7643 51.8194 70.4259 51.9531 70.0473Z" fill="#DCAA14"/>
<path opacity="0.811" fill-rule="evenodd" clip-rule="evenodd" d="M116.016 70.8282C117.16 70.7488 117.603 71.2697 117.344 72.3907C116.656 73.0397 116.031 72.9877 115.469 72.2344C115.309 71.6177 115.492 71.149 116.016 70.8282ZM116.172 71.4532C116.744 71.4297 116.9 71.6641 116.641 72.1563C116.048 72.2324 115.892 71.998 116.172 71.4532Z" fill="#D3A519"/>
<path opacity="0.968" fill-rule="evenodd" clip-rule="evenodd" d="M72.1094 75.5137C74.4538 75.4876 76.7975 75.5137 79.1407 75.5918C79.4264 75.6345 79.6608 75.7648 79.8438 75.9824C79.948 78.5867 79.948 81.1907 79.8438 83.7949C79.7957 83.9212 79.7175 84.0254 79.6094 84.1074C77.0122 84.2874 74.408 84.3134 71.7969 84.1856C71.6668 84.0554 71.5364 83.9251 71.4063 83.7949C71.3021 81.2429 71.3021 78.6907 71.4063 76.1387C71.548 75.8092 71.7824 75.6009 72.1094 75.5137ZM77.8907 78.6387C77.3879 78.8249 76.893 79.0332 76.4063 79.2637C76.0189 78.2096 75.3419 77.9493 74.375 78.4824C74.2308 78.7221 74.1527 78.9826 74.1407 79.2637C74.3583 80.0896 74.7229 80.8448 75.2344 81.5293C75.6511 81.6335 76.0677 81.6335 76.4844 81.5293C76.9233 81.2573 77.3921 81.0749 77.8907 80.9824C77.8907 81.3992 77.8907 81.8157 77.8907 82.2324C76.3802 82.2324 74.8699 82.2324 73.3594 82.2324C73.3594 80.722 73.3594 79.2117 73.3594 77.7012C74.8699 77.7012 76.3802 77.7012 77.8907 77.7012C77.8907 78.0137 77.8907 78.3262 77.8907 78.6387Z" fill="#F6F4F1"/>
<path opacity="0.933" fill-rule="evenodd" clip-rule="evenodd" d="M82.2658 77.0762C90.8597 77.0501 99.4535 77.0762 108.047 77.1543C108.409 77.3568 108.565 77.6693 108.516 78.0918C108.559 78.5699 108.351 78.8824 107.891 79.0293C99.4013 79.1335 90.9116 79.1335 82.4221 79.0293C81.8296 78.7085 81.6474 78.2139 81.8752 77.5449C81.9843 77.3589 82.1144 77.2026 82.2658 77.0762Z" fill="#DCAA14"/>
<path opacity="0.935" fill-rule="evenodd" clip-rule="evenodd" d="M82.2655 80.8262C90.8594 80.8001 99.4531 80.8262 108.047 80.9043C108.672 81.5293 108.672 82.1543 108.047 82.7793C99.453 82.8835 90.8592 82.8835 82.2655 82.7793C81.6478 82.1285 81.6478 81.4776 82.2655 80.8262Z" fill="#F6F4F1"/>
<path opacity="0.821" fill-rule="evenodd" clip-rule="evenodd" d="M125.078 84.5781C126.39 84.8222 126.65 85.4733 125.86 86.5312C124.714 86.7916 124.219 86.3489 124.375 85.2031C124.517 84.8736 124.751 84.6653 125.078 84.5781ZM125.235 85.2031C125.784 85.4559 125.81 85.7164 125.313 85.9844C124.832 85.7894 124.806 85.5289 125.235 85.2031Z" fill="#D3A519"/>
<path opacity="0.958" fill-rule="evenodd" clip-rule="evenodd" d="M72.2657 85.9824C74.5579 85.9564 76.8496 85.9824 79.1407 86.0606C79.4265 86.1032 79.6609 86.2335 79.8438 86.4512C79.948 89.0554 79.948 91.6595 79.8438 94.2637C79.7957 94.3899 79.7176 94.4942 79.6095 94.5762C77.0123 94.7562 74.408 94.7821 71.797 94.6543C71.6707 94.6062 71.5665 94.5281 71.4845 94.4199C71.3045 91.8228 71.2785 89.2185 71.4063 86.6074C71.4648 86.4643 71.5429 86.334 71.6407 86.2168C71.8841 86.184 72.0924 86.1059 72.2657 85.9824ZM77.8907 89.1074C77.407 89.271 76.9382 89.4793 76.4845 89.7324C76.2207 89.4935 76.0124 89.207 75.8595 88.8731C74.8985 88.416 74.3255 88.7024 74.1407 89.7324C74.3584 90.5584 74.7229 91.3135 75.2345 91.9981C75.6512 92.1023 76.0677 92.1023 76.4845 91.9981C76.9262 91.7381 77.3949 91.5559 77.8907 91.4512C77.8907 91.8679 77.8907 92.2845 77.8907 92.7012C76.3802 92.7012 74.8699 92.7012 73.3595 92.7012C73.3595 91.1907 73.3595 89.6804 73.3595 88.1699C74.8699 88.1699 76.3802 88.1699 77.8907 88.1699C77.8907 88.4824 77.8907 88.7949 77.8907 89.1074Z" fill="#F1EFEC"/>
<path opacity="0.937" fill-rule="evenodd" clip-rule="evenodd" d="M82.2658 87.5449C90.8597 87.5189 99.4535 87.5449 108.047 87.6231C108.409 87.8256 108.565 88.1381 108.516 88.5606C108.559 89.0387 108.351 89.3512 107.891 89.4981C99.4013 89.6023 90.9116 89.6023 82.4221 89.4981C81.8296 89.1773 81.6474 88.6826 81.8752 88.0137C81.9843 87.8276 82.1144 87.6714 82.2658 87.5449Z" fill="#DCAA14"/>
<path opacity="0.936" fill-rule="evenodd" clip-rule="evenodd" d="M82.2655 91.2949C90.8594 91.2689 99.4531 91.2949 108.047 91.3731C108.672 91.9981 108.672 92.6231 108.047 93.2481C99.453 93.3523 90.8592 93.3523 82.2655 93.2481C81.6478 92.5973 81.6478 91.9464 82.2655 91.2949Z" fill="#F6F4F1"/>
<path opacity="0.964" fill-rule="evenodd" clip-rule="evenodd" d="M73.6717 110.83C74.9749 110.804 76.2769 110.83 77.578 110.908C78.203 111.533 78.203 112.158 77.578 112.783C76.276 112.887 74.9738 112.887 73.6717 112.783C73.0541 112.132 73.0541 111.481 73.6717 110.83Z" fill="#DCAA14"/>
<path opacity="0.965" fill-rule="evenodd" clip-rule="evenodd" d="M102.265 110.83C103.569 110.804 104.871 110.83 106.172 110.908C106.797 111.533 106.797 112.158 106.172 112.783C104.87 112.887 103.568 112.887 102.265 112.783C101.648 112.132 101.648 111.481 102.265 110.83Z" fill="#DCAA14"/>
<path opacity="0.933" fill-rule="evenodd" clip-rule="evenodd" d="M89.6094 112.703C90.7516 112.794 91.2203 113.419 91.0156 114.578C91.988 114.386 92.613 114.751 92.8906 115.672C92.8362 116.015 92.68 116.302 92.4219 116.531C91.9559 116.609 91.4872 116.635 91.0156 116.609C91.0467 117.147 90.9686 117.668 90.7812 118.172C90.2083 118.797 89.6355 118.797 89.0625 118.172C88.8752 117.668 88.797 117.147 88.8281 116.609C88.3566 116.635 87.8878 116.609 87.4219 116.531C86.7969 115.958 86.7969 115.385 87.4219 114.812C87.8673 114.611 88.3361 114.533 88.8281 114.578C88.668 113.755 88.9284 113.13 89.6094 112.703Z" fill="#DCAA14"/>
<path opacity="0.904" fill-rule="evenodd" clip-rule="evenodd" d="M49.9219 123.797C49.9219 123.433 49.9219 123.068 49.9219 122.703C50.8532 121.947 51.5302 122.129 51.9531 123.25C51.7822 124.118 51.2614 124.43 50.3906 124.188C50.2046 124.079 50.0483 123.948 49.9219 123.797Z" fill="#D4A519"/>
<path opacity="0.911" fill-rule="evenodd" clip-rule="evenodd" d="M53.359 122.232C54.2119 122.169 55.0453 122.248 55.859 122.466C56.3182 123.094 56.2661 123.667 55.7028 124.185C54.8695 124.289 54.0361 124.289 53.2028 124.185C52.5443 123.46 52.5964 122.809 53.359 122.232Z" fill="#D3A519"/>
<path opacity="0.911" fill-rule="evenodd" clip-rule="evenodd" d="M124.297 122.232C125.15 122.169 125.983 122.248 126.797 122.466C127.245 123.082 127.193 123.655 126.641 124.185C125.807 124.289 124.974 124.289 124.141 124.185C123.5 123.473 123.552 122.822 124.297 122.232Z" fill="#D3A519"/>
<path opacity="0.91" fill-rule="evenodd" clip-rule="evenodd" d="M129.922 122.704C129.922 123.069 129.922 123.433 129.922 123.798C129.383 124.351 128.784 124.403 128.125 123.954C127.736 122.834 128.127 122.287 129.297 122.313C129.529 122.417 129.737 122.547 129.922 122.704Z" fill="#D3A519"/>
<path opacity="0.933" fill-rule="evenodd" clip-rule="evenodd" d="M73.5158 125.984C75.0908 125.918 76.6533 125.996 78.2033 126.218C78.4991 126.674 78.5772 127.169 78.4377 127.702C78.2547 127.92 78.0203 128.05 77.7345 128.093C76.1605 128.237 74.598 128.185 73.047 127.937C72.5297 127.102 72.6859 126.451 73.5158 125.984Z" fill="#D3A519"/>
<path opacity="0.944" fill-rule="evenodd" clip-rule="evenodd" d="M80.2342 125.982C86.6927 125.956 93.151 125.982 99.6092 126.061C100.421 126.359 100.655 126.906 100.312 127.701C100.129 127.919 99.8949 128.049 99.6092 128.092C97.0576 128.17 94.5056 128.196 91.9529 128.17C91.9529 128.43 91.9529 128.691 91.9529 128.951C93.5163 128.925 95.0788 128.951 96.6404 129.029C97.0856 129.429 97.2159 129.924 97.031 130.514C96.8899 130.701 96.7077 130.832 96.4842 130.904C94.3748 130.93 92.2654 130.956 90.156 130.982C87.9284 131.006 85.7148 130.928 83.5154 130.748C83.0562 130.12 83.1084 129.547 83.6717 129.029C85.077 128.951 86.4832 128.925 87.8904 128.951C87.8904 128.691 87.8904 128.43 87.8904 128.17C85.3377 128.196 82.7857 128.17 80.2342 128.092C79.4227 127.793 79.1884 127.247 79.531 126.451C79.7512 126.251 79.9856 126.095 80.2342 125.982Z" fill="#DCAA14"/>
<path opacity="0.936" fill-rule="evenodd" clip-rule="evenodd" d="M102.109 125.986C103.516 125.96 104.923 125.986 106.328 126.064C107.166 126.501 107.322 127.126 106.797 127.939C105.246 128.188 103.683 128.24 102.109 128.096C101.562 128.018 101.302 127.705 101.328 127.158C101.304 126.549 101.565 126.158 102.109 125.986Z" fill="#DCAA14"/>
</g>
<defs>
<clipPath id="clip0_1055_10278">
<rect width="80" height="80" fill="white" transform="translate(50 52)"/>
</clipPath>
</defs>
</svg>
