<svg width="141" height="812" viewBox="0 0 141 812" fill="none" xmlns="http://www.w3.org/2000/svg">
<path d="M23.0719 20.0698C2.5271 69.3297 10.2788 127.379 40.1105 186.572C114.01 333.68 111.832 506.644 34.2514 651.845C2.93854 710.267 -6.27248 768.103 13.0253 817.865C70.1081 968.87 359.361 996.082 658.135 878.102C753.495 840.596 852.117 794.698 939.34 745.413C984.835 720.037 975.853 650.079 924.52 637.756C781.756 601.576 682.365 520.532 683.539 427.348C684.679 336.758 781.338 258.832 919.061 225.319C968.332 213.398 979.03 147.147 936.566 119.799C853.022 64.9032 760.143 15.0799 668.705 -23.9134C372.996 -149.38 83.9391 -129.45 23.0719 20.0698Z" fill="#F7F5F2"/>
<path fill-rule="evenodd" clip-rule="evenodd" d="M130.898 97.0612C136.666 95.0173 142.151 92.2037 147.207 88.7037C131.399 85.6007 112.514 77.3649 93.0821 58.8589C72.3317 39.0974 52.9236 32.862 38.5777 31.5297C38.7336 35.7595 39.2507 39.9341 40.1051 44.0105C56.1348 46.9426 75.4511 55.125 95.3398 74.0658C107.969 86.0935 120.102 93.1107 130.898 97.0612ZM45.4599 60.0979C53.784 77.9558 69.1442 92.2067 89.0148 98.1204C94.8501 99.8571 100.727 100.771 106.529 100.929C99.7938 96.6895 92.87 91.3589 85.8758 84.6978C71.3145 70.8303 57.4139 63.6236 45.4599 60.0979ZM39.4538 17.1062C56.8066 18.638 79.2851 26.0741 102.546 48.2269C124.292 68.9373 144.565 74.7915 159.082 75.7147C159.831 75.7625 160.566 75.7971 161.286 75.8197C164.193 72.3323 166.797 68.5304 169.044 64.4462C167.867 64.423 166.658 64.3741 165.419 64.2954C147.808 63.1752 124.471 56.0508 100.288 33.02C78.5416 12.3095 58.269 6.45532 43.7524 5.532C43.2552 5.50018 42.7636 5.47418 42.2788 5.45394C41.9239 6.53354 41.592 7.62747 41.2832 8.7347C40.5063 11.5201 39.8985 14.3145 39.4538 17.1062ZM48.555 -8.54383C65.6332 -6.64612 87.3289 1.03326 109.752 22.388C131.499 43.0984 151.771 48.9526 166.288 49.8758C169.51 50.0811 172.47 50.0438 175.123 49.8638C175.241 49.4676 175.355 49.0695 175.467 48.6696C186.159 10.3309 164.789 -29.6885 127.735 -40.7162C96.6814 -49.9582 64.4673 -35.9048 48.555 -8.54383Z" fill="#3E372C"/>
<path fill-rule="evenodd" clip-rule="evenodd" d="M120.895 757.534C126.643 759.619 132.102 762.472 137.127 766.008C121.298 768.994 102.349 777.088 82.7669 795.445C61.8555 815.047 42.4011 821.138 28.0489 822.364C28.2406 818.137 28.7931 813.968 29.6819 809.899C45.731 807.086 65.1103 799.048 85.1532 780.26C97.8806 768.329 110.069 761.403 120.895 757.534ZM35.1718 793.857C43.645 776.066 59.1211 761.933 79.0351 756.167C84.8832 754.474 90.7658 753.603 96.5667 753.488C89.7982 757.677 82.8314 762.955 75.783 769.562C61.1087 783.318 47.1516 790.42 35.1718 793.857ZM28.8018 836.789C46.1617 835.385 68.6957 828.117 92.1371 806.143C114.052 785.599 134.368 779.896 148.887 779.08C149.636 779.037 150.371 779.008 151.092 778.991C153.968 782.498 156.539 786.318 158.75 790.417C157.574 790.432 156.365 790.472 155.125 790.541C137.511 791.532 114.121 798.483 89.7507 821.328C67.8353 841.871 47.5198 847.575 33.0005 848.391C32.5031 848.419 32.0115 848.442 31.5267 848.458C31.1811 847.376 30.8586 846.28 30.5593 845.171C29.8065 842.381 29.2226 839.583 28.8018 836.789ZM37.6816 862.497C54.7701 860.726 76.5236 853.208 99.1209 832.026C121.036 811.482 141.352 805.779 155.871 804.962C159.093 804.781 162.053 804.84 164.703 805.039C164.817 805.436 164.928 805.835 165.036 806.236C175.398 844.64 153.695 884.488 116.561 895.24C85.4389 904.251 53.3555 889.966 37.6816 862.497Z" fill="#3E372C"/>
<g filter="url(#filter0_f_600_8150)">
<ellipse cx="9.76792" cy="10.104" rx="9.76792" ry="10.104" transform="matrix(1 -0.00043356 -0.000419132 1 153.327 440.418)" fill="#B19E7F"/>
<path d="M163.095 440.914C168.197 440.912 172.361 445.194 172.359 450.514C172.357 455.834 168.189 460.12 163.086 460.122C157.984 460.124 153.821 455.842 153.823 450.522C153.825 445.202 157.992 440.916 163.095 440.914Z" stroke="url(#paint0_linear_600_8150)"/>
</g>
<defs>
<filter id="filter0_f_600_8150" x="128.323" y="415.414" width="69.5352" height="70.207" filterUnits="userSpaceOnUse" color-interpolation-filters="sRGB">
<feFlood flood-opacity="0" result="BackgroundImageFix"/>
<feBlend mode="normal" in="SourceGraphic" in2="BackgroundImageFix" result="shape"/>
<feGaussianBlur stdDeviation="12.5" result="effect1_foregroundBlur_600_8150"/>
</filter>
<linearGradient id="paint0_linear_600_8150" x1="163.097" y1="435.584" x2="163.11" y2="465.177" gradientUnits="userSpaceOnUse">
<stop stop-color="#B19E7F"/>
<stop offset="0.796875" stop-color="#B19E7F" stop-opacity="0"/>
</linearGradient>
</defs>
</svg>
