<svg width="1340" height="892" viewBox="0 0 1340 892" fill="none" xmlns="http://www.w3.org/2000/svg">
<rect width="1340" height="892" fill="#B19E7F"/>
<g clip-path="url(#clip0_1153_16826)">
<path opacity="0.94" fill-rule="evenodd" clip-rule="evenodd" d="M384.981 352.879C385.783 352.879 386.584 352.879 387.385 352.879C388.967 353.08 390.57 353.36 392.194 353.72C395.617 354.99 399.063 356.192 402.532 357.325C407.023 358.43 411.511 358.43 415.995 357.325C419.714 355.899 423.48 354.617 427.295 353.48C434.962 352.632 441.854 354.554 447.971 359.247C449.779 360.583 451.021 362.305 451.698 364.414C452.129 367.594 450.806 369.716 447.731 370.782C443.511 372.054 439.424 373.656 435.47 375.588C426.101 381.438 420.291 389.809 418.039 400.701C417.616 405.978 418.818 410.865 421.645 415.36C423.235 417.829 424.918 420.232 426.694 422.569C432.576 429.168 438.186 435.976 443.524 442.995C450.705 428.365 453.671 412.905 452.419 396.615C452.097 391.796 451.416 387.03 450.376 382.317C450.473 382.09 450.633 381.93 450.856 381.836C451.785 381.667 452.707 381.466 453.621 381.235C453.742 381.316 453.862 381.396 453.982 381.476C458.993 404.209 456.348 425.997 446.048 446.84C453.307 458.737 455.03 471.393 451.217 484.809C448.585 493.355 444.738 501.285 439.677 508.6C434.711 515.556 429.342 522.205 423.569 528.546C420.114 531.958 416.708 535.403 413.351 538.879C413.271 538.879 413.19 538.879 413.11 538.879C414.132 515.788 419.301 493.679 428.618 472.553C432.761 463.973 437.048 455.482 441.48 447.08C439.517 443.874 437.313 440.831 434.869 437.949C430.691 433.213 426.604 428.407 422.607 423.53C419.787 419.826 417.463 415.821 415.635 411.515C413.365 404.907 413.686 398.419 416.597 392.049C422.234 379.031 431.971 370.821 445.808 367.418C446.853 367.1 447.654 366.5 448.212 365.615C447.309 363.712 445.947 362.23 444.125 361.17C440.17 358.61 435.842 357.128 431.142 356.724C430.263 356.864 429.382 356.984 428.497 357.084C424.042 358.622 419.554 360.064 415.034 361.41C409.039 362.312 403.188 361.751 397.483 359.728C388.365 355.291 379.549 355.852 371.037 361.41C368.983 362.717 367.06 364.199 365.267 365.856C364.26 365.05 363.379 364.129 362.622 363.092C368.889 357.076 376.342 353.672 384.981 352.879ZM443.884 451.166C448.84 459.578 450.483 468.63 448.813 478.321C447.39 485.632 444.825 492.52 441.119 498.987C434.632 509.962 426.859 519.975 417.799 529.026C419.612 508.24 425.061 488.454 434.147 469.67C437.273 463.419 440.519 457.251 443.884 451.166Z" fill="white"/>
<path opacity="0.936" fill-rule="evenodd" clip-rule="evenodd" d="M660.984 354.322C662.864 354.199 663.826 355.08 663.869 356.965C663.747 358.021 663.545 359.062 663.268 360.089C657.712 373.439 652.423 386.897 647.4 400.461C640.897 418.689 636.089 437.353 632.975 456.454C632.422 460.282 632.261 464.127 632.494 467.988C632.617 468.56 632.778 469.121 632.975 469.671C633.684 470.261 634.324 470.902 634.899 471.593C635.276 473.008 634.754 473.809 633.336 473.996C631.576 473.72 630.333 472.759 629.609 471.112C629.174 470.034 628.934 468.913 628.888 467.748C628.652 462.257 629.052 456.81 630.09 451.407C634.23 428.82 640.56 406.872 649.083 385.562C652.288 377.712 655.495 369.862 658.7 362.012C658.938 361.544 659.018 361.063 658.941 360.57C654.024 365.724 649.374 371.091 644.996 376.671C637.185 386.998 629.492 397.412 621.916 407.911C619.259 411.449 616.333 414.773 613.14 417.884C611.525 419.463 609.602 420.024 607.37 419.566C605.978 418.827 605.216 417.666 605.086 416.081C604.791 412.708 605.07 409.384 605.928 406.109C597.292 419.596 588.438 433.173 579.361 446.841C578.383 448.382 577.502 449.984 576.717 451.647C575.949 452.81 574.947 453.091 573.711 452.488C573.335 452.084 573.095 451.603 572.99 451.047C573.734 449.359 574.576 447.717 575.515 446.12C582.146 436.148 588.717 426.136 595.229 416.081C600.725 407.296 605.935 398.325 610.856 389.167C612.876 382.967 615.36 376.959 618.31 371.143C619.028 370.026 620.029 369.665 621.315 370.062C622.127 370.815 622.406 371.736 622.156 372.826C621.546 375.136 620.745 377.379 619.752 379.554C617.894 383.509 615.97 387.434 613.982 391.33C611.354 398.482 609.472 405.812 608.332 413.318C608.522 414.057 608.642 414.818 608.693 415.601C608.868 415.999 609.147 416.119 609.534 415.961C612.294 413.603 614.819 410.999 617.107 408.151C624.241 398.459 631.372 388.766 638.505 379.074C644.424 371.374 650.716 363.964 657.378 356.845C658.52 355.877 659.722 355.036 660.984 354.322Z" fill="white"/>
<path opacity="0.939" fill-rule="evenodd" clip-rule="evenodd" d="M799.948 355.043C802.203 354.813 803.325 355.854 803.313 358.167C803.232 358.736 803.111 359.297 802.953 359.849C796.928 373.256 791.639 386.954 787.085 400.942C786.171 403.716 785.45 406.52 784.921 409.353C791.776 394.894 801.272 382.438 813.411 371.985C818.664 367.707 824.516 364.422 830.962 362.132C835.914 360.491 840.882 360.41 845.868 361.892C851.792 364.616 854.838 369.262 855.004 375.83C854.441 381.48 852.559 386.647 849.354 391.33C840.92 403.127 830.38 412.539 817.739 419.566C811.339 423.073 804.528 425.356 797.303 426.415C802.364 430.955 807.732 435.08 813.411 438.791C822.602 444.177 831.419 443.616 839.857 437.109C846.601 431.249 852.773 424.841 858.37 417.884C859.894 417.298 860.935 417.779 861.495 419.326C861.341 419.865 861.142 420.386 860.894 420.888C855.759 427.304 850.109 433.272 843.945 438.791C839.379 442.554 834.171 444.957 828.317 446C823.809 446.365 819.482 445.644 815.334 443.838C812.572 442.498 809.927 440.976 807.401 439.272C802.133 435.288 797.002 431.123 792.014 426.776C788.742 426.471 785.537 425.91 782.397 425.093C781.541 427.34 780.779 429.623 780.113 431.942C777.987 442.725 776.345 453.579 775.184 464.504C775.227 465.431 775.307 466.353 775.425 467.268C777.134 467.561 777.656 468.523 776.987 470.152C775.836 471.458 774.513 471.658 773.02 470.752C772.503 470.159 772.143 469.478 771.938 468.71C771.477 465.427 771.477 462.143 771.938 458.857C773.083 451.751 774.045 444.622 774.824 437.469C776.22 432.574 777.182 427.608 777.709 422.57C776.365 421.708 775.163 420.667 774.102 419.446C773.126 420.905 771.963 422.227 770.616 423.411C763.204 430.182 755.511 436.59 747.536 442.636C743.439 445.566 739.111 448.129 734.553 450.326C726.949 452.621 723.102 449.777 723.013 441.795C723.777 432.818 726.22 424.327 730.346 416.322C735.387 405.997 740.838 395.984 746.694 386.283C736.426 399.191 726.247 412.168 716.161 425.214C709.434 433.623 702.101 441.513 694.162 448.884C690.344 452.22 686.257 455.184 681.901 457.776C678.186 459.961 674.181 461.202 669.88 461.5C664.172 461.04 660.287 458.157 658.219 452.849C656.082 442.187 657.205 431.854 661.585 421.849C667.305 409.736 675.359 399.443 685.748 390.969C702.291 378.466 720.724 374.461 741.044 378.954C742.804 379.453 744.526 380.053 746.213 380.756C749.12 377.367 752.046 373.962 754.989 370.543C756.181 369.716 757.345 369.756 758.475 370.663C758.927 371.966 758.848 373.248 758.235 374.508C756.645 377.805 754.842 380.969 752.825 384C755.511 386.206 757.876 388.729 759.917 391.57C761.204 393.66 762.086 395.903 762.562 398.299C762.738 399.993 762.658 401.675 762.322 403.345C761.112 404.374 759.99 404.294 758.956 403.105C759.379 400.037 758.819 397.153 757.273 394.454C755.607 391.627 753.402 389.304 750.661 387.485C743.042 399.431 736.349 411.927 730.586 424.973C728.47 430.472 727.148 436.159 726.619 442.035C726.583 443.972 727.146 445.694 728.302 447.202C729.656 447.655 731.016 447.655 732.389 447.202C736.57 445.473 740.499 443.31 744.17 440.714C753.647 433.646 762.704 426.036 771.337 417.884C771.739 417.804 772.138 417.724 772.54 417.644C771.181 416.134 770.739 414.411 771.217 412.477C772.14 411.395 773.304 411.035 774.703 411.396C776.362 411.748 777.963 412.269 779.512 412.958C784.279 396.138 790.131 379.677 797.062 363.574C796.471 362.273 796.433 360.951 796.942 359.609C797.714 357.898 798.717 356.376 799.948 355.043ZM837.213 364.415C841.961 363.793 845.928 365.235 849.114 368.741C851.253 372.189 851.734 375.873 850.556 379.795C848.883 384.823 846.399 389.388 843.103 393.493C834.691 403.504 824.713 411.555 813.171 417.644C806.949 420.721 800.378 422.523 793.456 423.051C790.773 421.046 788.208 418.924 785.763 416.683C792.701 400.14 802.96 386.042 816.537 374.388C822.653 369.448 829.546 366.124 837.213 364.415ZM721.09 380.756C728.651 380.245 736.024 381.166 743.208 383.52C743.754 383.78 743.792 384.14 743.328 384.601C732.75 398.059 722.171 411.516 711.593 424.973C705.895 431.791 699.846 438.319 693.441 444.559C689.409 448.055 685.161 451.259 680.699 454.171C678.061 455.717 675.256 456.839 672.284 457.535C665.572 458.119 661.763 455.036 660.864 448.283C660.338 436.769 662.982 426.035 668.798 416.082C675.398 404.688 684.334 395.596 695.605 388.807C703.587 384.398 712.083 381.714 721.09 380.756ZM775.425 415.361C776.708 415.642 777.911 416.122 779.031 416.803C778.896 417.368 778.735 417.929 778.55 418.485C777.264 417.679 776.22 416.637 775.425 415.361ZM784.08 420.407C787.758 422.447 787.6 422.807 783.599 421.489C783.859 421.169 784.02 420.809 784.08 420.407Z" fill="white"/>
<path opacity="0.935" fill-rule="evenodd" clip-rule="evenodd" d="M553.997 364.654C562.655 364.858 566.462 369.264 565.417 377.871C564.267 383.401 562.264 388.607 559.407 393.492C557.313 397.632 554.548 401.277 551.112 404.426C549.058 405.224 548.136 404.543 548.347 402.383C554.672 395.751 559.08 387.981 561.57 379.073C562.568 376.226 562.327 373.503 560.849 370.902C559.157 369.016 557.033 368.135 554.478 368.259C548.849 368.919 543.48 370.481 538.37 372.945C523.277 379.787 510.014 389.199 498.58 401.181C496.62 403.498 494.777 405.901 493.05 408.391C488.983 414.865 490.466 419.471 497.498 422.209C499.006 422.738 500.529 423.218 502.066 423.65C508.887 425.215 515.699 426.817 522.502 428.457C525.941 429.442 529.346 430.524 532.72 431.701C542.952 426.663 553.57 422.617 564.576 419.565C567.709 418.731 570.874 418.05 574.072 417.523C575.783 417.695 576.344 418.576 575.755 420.166C575.438 420.643 574.997 420.924 574.433 421.007C561.405 423.532 548.983 427.777 537.168 433.743C542.16 435.931 546.207 439.255 549.309 443.716C551.502 448.271 551.341 452.757 548.828 457.174C545.697 461.906 541.65 465.631 536.687 468.348C524.973 474.8 512.471 477.524 499.181 476.519C494.499 475.447 492.295 472.523 492.57 467.747C493.392 464.421 494.915 461.457 497.138 458.856C500.882 454.312 505.089 450.267 509.76 446.72C515.885 442.256 522.216 438.091 528.753 434.224C526.764 433.535 524.761 432.894 522.742 432.302C514.815 430.348 506.881 428.426 498.941 426.534C494.819 425.618 491.413 423.576 488.723 420.406C487.358 417.652 487.037 414.768 487.761 411.755C488.282 409.992 489.004 408.31 489.925 406.709C493.513 401.516 497.64 396.75 502.307 392.41C515.115 380.83 529.7 372.099 546.063 366.216C548.692 365.432 551.337 364.912 553.997 364.654ZM532.84 435.786C537.912 437.739 542.2 440.783 545.703 444.918C546.683 446.414 547.284 448.056 547.506 449.844C547.088 452.863 545.926 455.547 544.02 457.895C538.245 463.887 531.313 468.013 523.223 470.271C517.16 472.195 510.949 473.277 504.591 473.515C501.74 473.724 499.176 473.003 496.897 471.352C496.107 470.275 495.866 469.073 496.176 467.747C497.202 464.882 498.725 462.318 500.744 460.057C505.411 454.749 510.66 450.143 516.491 446.24C521.916 442.689 527.365 439.205 532.84 435.786Z" fill="white"/>
<path opacity="0.94" fill-rule="evenodd" clip-rule="evenodd" d="M380.173 538.88C380.093 538.88 380.013 538.88 379.932 538.88C358.924 520.948 350.95 498.279 356.011 470.872C357.029 460.655 359.033 450.642 362.021 440.833C363.145 441.285 364.307 441.605 365.507 441.795C360.66 458.764 358.456 476.067 358.896 493.702C360.195 506.467 365.084 517.602 373.561 527.105C369.645 505.276 374.533 485.731 388.227 468.469C392.175 464.043 395.942 459.477 399.527 454.771C400.008 453.81 400.488 452.849 400.969 451.888C401.991 447.725 400.429 445.042 396.281 443.837C391.401 442.686 386.512 441.564 381.615 440.473C371.154 437.551 363.18 431.423 357.694 422.089C352.958 413.458 350.353 404.247 349.88 394.454C349.88 392.691 349.88 390.929 349.88 389.167C350.093 384.381 351.094 379.735 352.885 375.229C354.133 372.379 356.177 370.336 359.016 369.101C360.298 368.941 361.58 368.941 362.863 369.101C365.414 369.871 367.979 370.592 370.556 371.264C376.154 372.008 381.363 370.887 386.183 367.899C394.717 364.635 403.132 364.955 411.428 368.861C405.859 376.511 402.453 385.042 401.21 394.454C400.418 401.552 401.78 408.201 405.297 414.399C418.928 433.65 423.736 454.957 419.722 478.322C415.158 502.202 402.175 519.824 380.774 531.19C382.526 517.122 386.052 503.505 391.352 490.337C393.226 485.628 395.71 481.302 398.806 477.361C403.894 472.606 409.944 470.123 416.957 469.911C418.33 454.463 415.405 439.884 408.182 426.175C405.356 421.888 402.711 417.483 400.248 412.958C396.942 404.661 396.381 396.17 398.565 387.485C400.041 381.537 402.405 375.97 405.657 370.783C400.394 369.125 395.105 369.045 389.79 370.543C386.8 371.957 383.754 373.239 380.654 374.388C377.41 375.165 374.124 375.405 370.796 375.109C367.48 374.391 364.194 373.55 360.939 372.585C359.271 372.849 358.029 373.73 357.213 375.229C354.622 380.444 353.46 385.971 353.727 391.81C353.684 402.614 356.449 412.627 362.021 421.849C366.647 428.952 373.018 433.798 381.135 436.388C385.66 437.613 390.228 438.654 394.839 439.512C404.247 441.532 407.092 446.939 403.374 455.733C402.024 457.802 400.581 459.805 399.046 461.74C394.1 467.083 389.612 472.77 385.582 478.802C377.13 493.126 374.325 508.506 377.168 524.942C377.97 529.635 378.972 534.281 380.173 538.88ZM415.996 473.516C416.249 473.48 416.489 473.52 416.717 473.636C413.833 494.995 403.535 511.697 385.823 523.74C387.668 512.68 390.713 501.946 394.959 491.539C396.532 487.671 398.536 484.066 400.969 480.725C405.132 476.542 410.141 474.139 415.996 473.516Z" fill="white"/>
<path opacity="0.941" fill-rule="evenodd" clip-rule="evenodd" d="M975.935 365.857C978.9 365.998 981.864 366.118 984.831 366.218C986.069 366.282 987.271 366.523 988.437 366.939C989.839 368.052 990 369.334 988.918 370.784C988.589 370.994 988.228 371.114 987.836 371.144C986.913 370.7 985.99 370.259 985.071 369.823C966.258 369.209 947.587 370.531 929.053 373.788C912.132 401.426 900.191 431.024 893.231 462.582C892.19 462.859 891.269 462.659 890.466 461.981C890.305 460.86 890.305 459.739 890.466 458.617C896.892 430.41 907.35 403.815 921.841 378.834C920.836 377.534 920.915 376.293 922.081 375.109C906.038 377.636 890.49 381.962 875.439 388.086C870.629 390.067 866.421 392.911 862.817 396.617C861.507 398.245 861.428 399.927 862.577 401.664C864.844 404.219 867.609 406.022 870.871 407.071C874.543 408.31 878.31 409.111 882.171 409.474C883.818 409.922 884.258 410.923 883.494 412.478C875.959 412.947 869.025 411.065 862.697 406.83C860.937 405.393 859.536 403.671 858.49 401.664C857.716 398.938 858.196 396.455 859.932 394.214C864.096 389.987 868.946 386.743 874.478 384.481C884.323 380.507 894.421 377.303 904.771 374.869C911.697 373.212 918.669 371.77 925.687 370.543C926.822 369.521 928.065 369.321 929.414 369.943C944.858 367.443 960.366 366.081 975.935 365.857Z" fill="white"/>
<path opacity="0.907" fill-rule="evenodd" clip-rule="evenodd" d="M718.204 497.066C720.289 497.026 722.373 497.066 724.455 497.186C725.869 497.252 727.23 497.493 728.542 497.907C728.391 498.659 728.23 499.42 728.062 500.19C724.734 499.273 721.368 499.073 717.964 499.589C715.401 501.023 714.639 503.145 715.68 505.957C715.867 506.386 716.149 506.747 716.521 507.039C719.613 508.032 722.739 508.913 725.898 509.682C728.052 510.863 729.095 512.705 729.023 515.209C728.819 520.86 725.893 523.463 720.248 523.019C717.798 522.921 715.355 522.76 712.915 522.539C712.973 521.718 713.132 520.917 713.396 520.135C716.411 520.733 719.457 520.934 722.532 520.736C724.475 520.316 725.718 519.154 726.258 517.252C726.42 516.05 726.42 514.849 726.258 513.647C725.907 513.056 725.467 512.535 724.936 512.085C721.981 511.254 719.017 510.453 716.041 509.682C713.646 508.46 712.603 506.497 712.915 503.794C712.8 500.066 714.562 497.823 718.204 497.066Z" fill="white"/>
<path opacity="0.907" fill-rule="evenodd" clip-rule="evenodd" d="M780.714 497.066C782.798 497.026 784.883 497.066 786.965 497.186C788.378 497.252 789.739 497.493 791.052 497.907C790.9 498.659 790.739 499.42 790.571 500.19C787.243 499.273 783.878 499.073 780.473 499.589C777.91 501.023 777.148 503.145 778.189 505.957C778.377 506.386 778.658 506.747 779.031 507.039C782.123 508.032 785.248 508.913 788.407 509.682C790.561 510.863 791.605 512.705 791.533 515.209C791.328 520.86 788.402 523.463 782.757 523.019C780.307 522.921 777.865 522.76 775.424 522.539C775.482 521.718 775.641 520.917 775.905 520.135C778.92 520.733 781.966 520.934 785.041 520.736C786.984 520.316 788.227 519.154 788.768 517.252C788.929 516.05 788.929 514.849 788.768 513.647C788.417 513.056 787.977 512.535 787.445 512.085C784.491 511.254 781.526 510.453 778.55 509.682C776.155 508.46 775.112 506.497 775.424 503.794C775.309 500.066 777.071 497.823 780.714 497.066Z" fill="white"/>
<path opacity="0.912" fill-rule="evenodd" clip-rule="evenodd" d="M494.613 497.306C498.541 497.266 502.468 497.306 506.394 497.426C509.801 498.174 511.764 500.297 512.284 503.794C513.191 508.321 513.03 512.807 511.803 517.252C510.748 520.07 508.784 521.872 505.913 522.659C502.147 522.779 498.38 522.819 494.613 522.779C494.613 514.288 494.613 505.797 494.613 497.306ZM497.017 499.469C506.038 497.202 510.526 500.647 510.481 509.802C510.613 519.036 506.125 522.64 497.017 520.616C497.017 513.567 497.017 506.518 497.017 499.469Z" fill="white"/>
<path opacity="0.913" fill-rule="evenodd" clip-rule="evenodd" d="M530.676 497.307C535.805 497.307 540.934 497.307 546.063 497.307C546.063 498.028 546.063 498.749 546.063 499.469C541.736 499.469 537.408 499.469 533.08 499.469C533.08 502.513 533.08 505.557 533.08 508.601C536.687 508.601 540.293 508.601 543.899 508.601C543.899 509.322 543.899 510.043 543.899 510.764C540.293 510.764 536.687 510.764 533.08 510.764C533.08 514.048 533.08 517.332 533.08 520.617C537.408 520.617 541.736 520.617 546.063 520.617C546.063 521.338 546.063 522.059 546.063 522.78C540.934 522.78 535.805 522.78 530.676 522.78C530.676 514.289 530.676 505.798 530.676 497.307Z" fill="white"/>
<path opacity="0.904" fill-rule="evenodd" clip-rule="evenodd" d="M563.133 497.306C564.638 497.232 566.12 497.312 567.581 497.547C571.269 505.245 574.956 512.935 578.64 520.616C578.76 512.847 578.801 505.077 578.76 497.306C579.562 497.306 580.363 497.306 581.165 497.306C581.165 505.797 581.165 514.288 581.165 522.779C579.713 522.858 578.271 522.778 576.837 522.539C573.045 514.878 569.319 507.188 565.657 499.469C565.537 507.239 565.497 515.009 565.537 522.779C564.736 522.779 563.934 522.779 563.133 522.779C563.133 514.288 563.133 505.797 563.133 497.306Z" fill="white"/>
<path opacity="0.934" fill-rule="evenodd" clip-rule="evenodd" d="M597.032 497.307C603.122 497.307 609.214 497.307 615.304 497.307C615.304 498.028 615.304 498.749 615.304 499.469C612.66 499.469 610.015 499.469 607.37 499.469C607.37 507.239 607.37 515.01 607.37 522.78C606.57 522.78 605.767 522.78 604.966 522.78C604.966 515.01 604.966 507.239 604.966 499.469C602.321 499.469 599.677 499.469 597.032 499.469C597.032 498.749 597.032 498.028 597.032 497.307Z" fill="white"/>
<path opacity="0.915" fill-rule="evenodd" clip-rule="evenodd" d="M634.538 497.307C636.3 497.307 638.065 497.307 639.827 497.307C642.231 505.798 644.636 514.289 647.04 522.78C646.239 522.78 645.436 522.78 644.636 522.78C643.994 520.376 643.354 517.973 642.712 515.57C639.022 515.49 635.336 515.57 631.653 515.811C630.898 518.106 630.259 520.43 629.73 522.78C628.845 522.819 627.962 522.779 627.085 522.659C629.691 514.246 632.175 505.795 634.538 497.307ZM636.461 499.469C637.082 499.369 637.603 499.53 638.024 499.95C639.31 504.368 640.633 508.774 641.991 513.167C638.786 513.487 635.579 513.487 632.374 513.167C633.785 508.613 635.149 504.047 636.461 499.469Z" fill="white"/>
<path opacity="0.902" fill-rule="evenodd" clip-rule="evenodd" d="M663.388 497.307C664.189 497.307 664.992 497.307 665.793 497.307C665.793 505.077 665.793 512.847 665.793 520.617C669.719 520.617 673.647 520.617 677.573 520.617C677.573 521.338 677.573 522.059 677.573 522.78C672.844 522.78 668.118 522.78 663.388 522.78C663.388 514.289 663.388 505.798 663.388 497.307Z" fill="white"/>
<path opacity="0.909" fill-rule="evenodd" clip-rule="evenodd" d="M742.727 497.547C743.706 497.229 744.706 497.229 745.733 497.547C747.836 501.511 750 505.436 752.224 509.322C754.347 505.397 756.472 501.472 758.595 497.547C759.557 497.227 760.518 497.227 761.48 497.547C758.795 502.433 756.112 507.32 753.426 512.206C753.306 515.729 753.265 519.254 753.306 522.779C752.505 522.779 751.702 522.779 750.902 522.779C750.942 519.094 750.902 515.409 750.781 511.725C748.091 506.984 745.406 502.258 742.727 497.547Z" fill="white"/>
<path opacity="0.934" fill-rule="evenodd" clip-rule="evenodd" d="M805.958 497.307C812.048 497.307 818.14 497.307 824.23 497.307C824.23 498.028 824.23 498.749 824.23 499.469C821.585 499.469 818.941 499.469 816.296 499.469C816.296 507.239 816.296 515.01 816.296 522.78C815.495 522.78 814.692 522.78 813.892 522.78C813.892 515.01 813.892 507.239 813.892 499.469C811.247 499.469 808.603 499.469 805.958 499.469C805.958 498.749 805.958 498.028 805.958 497.307Z" fill="white"/>
<path opacity="0.913" fill-rule="evenodd" clip-rule="evenodd" d="M840.338 497.307C845.466 497.307 850.597 497.307 855.725 497.307C855.725 498.028 855.725 498.749 855.725 499.469C851.397 499.469 847.07 499.469 842.742 499.469C842.742 502.513 842.742 505.557 842.742 508.601C846.349 508.601 849.955 508.601 853.561 508.601C853.561 509.322 853.561 510.043 853.561 510.764C849.955 510.764 846.349 510.764 842.742 510.764C842.742 514.048 842.742 517.332 842.742 520.617C847.07 520.617 851.397 520.617 855.725 520.617C855.725 521.338 855.725 522.059 855.725 522.78C850.597 522.78 845.466 522.78 840.338 522.78C840.338 514.289 840.338 505.798 840.338 497.307Z" fill="white"/>
<path opacity="0.913" fill-rule="evenodd" clip-rule="evenodd" d="M872.795 497.307C874.168 497.228 875.529 497.308 876.882 497.547C879.553 504.57 882.157 511.619 884.696 518.694C887.324 511.654 889.93 504.605 892.509 497.547C893.863 497.308 895.224 497.228 896.597 497.307C896.597 505.798 896.597 514.289 896.597 522.78C895.796 522.78 894.993 522.78 894.192 522.78C894.233 515.41 894.192 508.04 894.072 500.671C891.418 507.777 888.735 514.866 886.018 521.939C885.076 522.129 884.152 522.089 883.253 521.818C880.609 514.689 877.964 507.56 875.319 500.431C875.199 507.88 875.158 515.33 875.199 522.78C874.399 522.78 873.596 522.78 872.795 522.78C872.795 514.289 872.795 505.798 872.795 497.307Z" fill="white"/>
</g>
<defs>
<clipPath id="clip0_1153_16826">
<rect width="640" height="186" fill="white" transform="translate(350 353)"/>
</clipPath>
</defs>
</svg>
