<svg width="40" height="40" viewBox="0 0 40 40" fill="none" xmlns="http://www.w3.org/2000/svg">
<path d="M16.1133 37.5H16.1101C14.9366 37.499 13.8331 37.0413 13.0037 36.2104L1.32068 24.5107C-0.388144 22.7987 -0.388144 20.013 1.32068 18.3012L17.0696 2.52205C18.6926 0.895839 20.8521 0 23.1501 0H33.1419C35.5648 0 37.5364 1.97109 37.5364 4.39453V14.3557C37.5364 16.652 36.6415 18.8106 35.0169 20.4334L19.219 36.2148C18.3891 37.0436 17.2861 37.5 16.1133 37.5ZM23.1501 2.92969C21.6358 2.92969 20.2128 3.51996 19.1433 4.59158L3.39414 20.3707C2.82443 20.9415 2.82443 21.8699 3.39414 22.4407L15.0771 34.1405C15.3534 34.4172 15.721 34.5701 16.1124 34.5703H16.1135C16.3058 34.5708 16.4962 34.5332 16.6739 34.4597C16.8515 34.3862 17.0129 34.2782 17.1485 34.142L32.9464 18.3609C34.0172 17.2916 34.6067 15.8689 34.6067 14.3558V4.39453C34.6067 3.58681 33.9496 2.92969 33.1419 2.92969H23.1501ZM26.9161 14.8682C24.4929 14.8682 22.5215 12.8971 22.5215 10.4736C22.5215 8.05019 24.4929 6.0791 26.9161 6.0791C29.3393 6.0791 31.3106 8.05019 31.3106 10.4736C31.3106 12.8971 29.3393 14.8682 26.9161 14.8682ZM26.9161 9.00878C26.1083 9.00878 25.4512 9.66591 25.4512 10.4736C25.4512 11.2813 26.1083 11.9385 26.9161 11.9385C27.7241 11.9385 28.3809 11.2813 28.3809 10.4736C28.3809 9.66591 27.7241 9.00878 26.9161 9.00878Z" fill="white"/>
</svg>
