<svg width="180" height="180" viewBox="0 0 180 180" fill="none" xmlns="http://www.w3.org/2000/svg">
<path fill-rule="evenodd" clip-rule="evenodd" d="M148.75 37.5L122.5 11.25H92.5H55L36.25 30L10 56.25V86.25V123.75L28.75 142.5L55 168.75H85H122.5L141.25 150L167.5 123.75V93.75V56.25L148.75 37.5ZM148.75 37.5L130 56.25L167.5 93.75H141.25V150L122.5 131.25L85 168.75V142.5H28.75L47.5 123.75L10 86.25H36.25V30L55 48.75L92.5 11.25V37.5H148.75Z" fill="#F7F5F2"/>
<path opacity="0.962" fill-rule="evenodd" clip-rule="evenodd" d="M77.8908 50.08C78.518 50.0541 79.143 50.0802 79.7658 50.1581C84.5999 51.7521 89.4436 53.3146 94.2971 54.8456C99.9741 54.8977 105.651 54.9498 111.328 55.0019C112.192 55.2404 112.739 55.7872 112.969 56.6425C112.997 58.0869 113.075 59.5192 113.203 60.9394C115.726 61.7109 118.226 62.5443 120.703 63.4394C121.661 64.3341 121.895 65.4018 121.406 66.6425C119.693 71.7797 118.052 76.9359 116.485 82.1112C118.928 81.6267 120.621 82.512 121.563 84.7675C121.667 98.9342 121.667 113.101 121.563 127.267C121.157 128.559 120.297 129.366 118.985 129.689C99.6096 129.794 80.2346 129.794 60.8596 129.689C59.515 129.23 58.6556 128.319 58.2815 126.955C58.1773 112.945 58.1773 98.9342 58.2815 84.9237C58.6634 83.6297 59.4707 82.6922 60.7033 82.1112C59.8627 77.9011 59.0554 73.6823 58.2815 69.455C57.9631 68.0345 58.4579 67.0189 59.7658 66.4081C61.753 66.0472 63.7321 65.6565 65.7033 65.2362C65.7925 64.1299 65.9229 63.0361 66.094 61.955C68.3596 59.6894 70.6252 57.4237 72.8908 55.1581C73.7571 54.9388 74.6424 54.8606 75.5471 54.9237C75.848 53.5262 76.2907 52.1721 76.8752 50.8612C77.1822 50.5409 77.5208 50.2804 77.8908 50.08ZM74.4533 56.7987C86.6779 56.7469 98.8915 56.799 111.094 56.955C111.327 70.0151 111.406 83.0879 111.328 96.1737C104.557 96.1998 97.7865 96.1737 91.0158 96.0956C90.541 95.9345 90.1504 95.6479 89.844 95.2362C88.594 93.1529 87.344 91.0695 86.094 88.9862C85.689 88.4765 85.1941 88.0859 84.6096 87.8144C78.9421 87.5829 73.265 87.5048 67.5783 87.58C67.5783 79.6112 67.5783 71.6425 67.5783 63.6737C69.2979 63.6997 71.0166 63.6737 72.7346 63.5956C73.598 63.3571 74.1449 62.8102 74.3752 61.955C74.4533 60.237 74.4794 58.5183 74.4533 56.7987ZM72.5783 58.0487C72.6822 58.567 72.7344 59.1138 72.7346 59.6894C72.7504 60.3583 72.6722 61.0093 72.5002 61.6425C71.3408 61.8216 70.169 61.8477 68.9846 61.7206C70.2141 60.5172 71.4121 59.2932 72.5783 58.0487ZM101.641 61.1737C101.898 61.1404 102.132 61.1924 102.344 61.33C102.396 62.1633 102.448 62.9966 102.5 63.83C102.63 63.9602 102.761 64.0904 102.891 64.2206C103.724 64.2727 104.558 64.3248 105.391 64.3769C105.808 64.6373 105.808 64.8977 105.391 65.1581C104.558 65.2102 103.724 65.2623 102.891 65.3144C102.761 65.4446 102.63 65.5748 102.5 65.705C102.448 66.5383 102.396 67.3717 102.344 68.205C102.051 68.5606 101.791 68.5086 101.563 68.0487C101.511 67.2154 101.458 66.382 101.406 65.5487C101.289 65.4509 101.159 65.3728 101.016 65.3144C100.183 65.2623 99.3491 65.2102 98.5158 65.1581C98.2829 64.8422 98.3349 64.5818 98.6721 64.3769C99.5054 64.3248 100.339 64.2727 101.172 64.2206C101.25 64.1425 101.328 64.0644 101.406 63.9862C101.454 63.0436 101.532 62.1061 101.641 61.1737ZM78.8283 70.2362C80.626 70.1326 81.4333 70.9659 81.2502 72.7362C80.3865 74.3412 79.2666 74.5497 77.8908 73.3612C77.2335 72.0326 77.546 70.9911 78.8283 70.2362ZM77.4221 75.5487C78.0916 75.7244 78.7686 75.8806 79.4533 76.0175C80.1369 75.8547 80.814 75.7244 81.4846 75.6269C81.8683 76.0031 82.1547 76.4458 82.344 76.955C82.4221 77.9433 82.448 78.9328 82.4221 79.9237C80.4429 79.9237 78.4638 79.9237 76.4846 79.9237C76.4586 78.9328 76.4846 77.9433 76.5627 76.955C76.6935 76.3836 76.9799 75.9148 77.4221 75.5487ZM115.86 83.83C116.861 83.7804 117.851 83.8586 118.828 84.0644C119.335 84.3739 119.674 84.8165 119.844 85.3925C119.974 89.1436 119.948 92.8936 119.766 96.6425C119.427 96.4406 119.063 96.3104 118.672 96.2519C116.798 96.1737 114.923 96.1476 113.047 96.1737C113.021 94.9226 113.047 93.6726 113.125 92.4237C114.053 89.5612 114.965 86.6965 115.86 83.83ZM60.8596 84.1425C61.2364 85.2431 61.4968 86.3889 61.6408 87.58C61.0429 87.5623 60.496 87.7186 60.0002 88.0487C59.8707 86.9965 59.9228 85.9548 60.1565 84.9237C60.3219 84.5864 60.5563 84.3259 60.8596 84.1425ZM61.4846 89.2987C68.8285 89.2726 76.1722 89.2987 83.5158 89.3769C83.9943 89.5426 84.3849 89.829 84.6877 90.2362C85.9377 92.3195 87.1877 94.4029 88.4377 96.4862C89.1357 97.3692 90.0472 97.8639 91.1721 97.9706C100.456 97.9719 109.727 98.0759 118.985 98.2831C119.396 98.5895 119.683 98.9801 119.844 99.455C119.948 108.465 119.948 117.476 119.844 126.486C119.677 127.226 119.234 127.721 118.516 127.971C99.4533 128.075 80.3908 128.075 61.3283 127.971C60.6098 127.721 60.1671 127.226 60.0002 126.486C59.896 114.611 59.896 102.736 60.0002 90.8612C60.2111 90.0517 60.7059 89.5309 61.4846 89.2987Z" fill="white"/>
<path opacity="0.999" fill-rule="evenodd" clip-rule="evenodd" d="M78.3594 51.7969C81.955 52.67 85.4967 53.7377 88.9844 55C85.0784 55.0781 81.1722 55.1042 77.2656 55.0781C77.5395 53.944 77.9041 52.8502 78.3594 51.7969Z" fill="#D5A618"/>
<path opacity="0.961" fill-rule="evenodd" clip-rule="evenodd" d="M101.328 59.2992C103.559 59.2397 104.549 60.3334 104.297 62.5804C106.595 62.3006 107.611 63.2902 107.344 65.5492C106.709 66.7906 105.693 67.2593 104.297 66.9554C104.475 69.5139 103.329 70.5295 100.859 70.0023C99.865 69.2276 99.5005 68.212 99.7656 66.9554C97.8872 67.3471 96.7934 66.6181 96.4844 64.7679C96.8084 62.939 97.9022 62.2098 99.7656 62.5804C99.4584 61.0392 99.9792 59.9455 101.328 59.2992ZM101.641 61.1742C101.532 62.1065 101.453 63.044 101.406 63.9867C101.328 64.0648 101.25 64.1429 101.172 64.2211C100.339 64.2731 99.5052 64.3252 98.6719 64.3773C98.3347 64.5823 98.2827 64.8427 98.5156 65.1586C99.3489 65.2106 100.182 65.2627 101.016 65.3148C101.159 65.3733 101.289 65.4514 101.406 65.5492C101.458 66.3825 101.51 67.2159 101.562 68.0492C101.79 68.509 102.051 68.5611 102.344 68.2054C102.396 67.3721 102.448 66.5387 102.5 65.7054C102.63 65.5752 102.76 65.445 102.891 65.3148C103.724 65.2627 104.557 65.2106 105.391 65.1586C105.807 64.8981 105.807 64.6377 105.391 64.3773C104.557 64.3252 103.724 64.2731 102.891 64.2211C102.76 64.0908 102.63 63.9606 102.5 63.8304C102.448 62.9971 102.396 62.1638 102.344 61.3304C102.132 61.1929 101.898 61.1408 101.641 61.1742Z" fill="white"/>
<path opacity="0.761" fill-rule="evenodd" clip-rule="evenodd" d="M113.047 62.7344C112.995 70.7295 113.047 78.6983 113.203 86.6406C113.159 86.7639 113.081 86.8681 112.969 86.9531C112.839 78.8539 112.865 70.7809 113.047 62.7344Z" fill="#5CA7EF"/>
<path fill-rule="evenodd" clip-rule="evenodd" d="M113.047 62.7344C115.132 63.3686 117.215 64.0197 119.297 64.6875C119.646 64.8022 119.854 65.0365 119.922 65.3906C117.681 72.4769 115.442 79.5602 113.203 86.6406C113.047 78.6983 112.995 70.7295 113.047 62.7344Z" fill="#D5A618"/>
<path opacity="0.982" fill-rule="evenodd" clip-rule="evenodd" d="M71.6407 65.5449C76.8493 65.5189 82.0575 65.5449 87.2657 65.623C88.1566 65.9926 88.7035 66.6435 88.9063 67.5762C89.0105 72.5762 89.0105 77.5762 88.9063 82.5762C88.7507 83.4604 88.256 84.0595 87.4219 84.373C82.1094 84.4773 76.7969 84.4773 71.4844 84.373C70.7144 84.072 70.2197 83.5251 70 82.7324C69.8958 77.6282 69.8958 72.5241 70 67.4199C70.2491 66.5207 70.796 65.8957 71.6407 65.5449ZM78.8282 70.2324C77.5458 70.9873 77.2333 72.0288 77.8907 73.3574C79.2664 74.5459 80.3863 74.3374 81.25 72.7324C81.4332 70.9621 80.6258 70.1288 78.8282 70.2324ZM77.4219 75.5449C76.9797 75.911 76.6933 76.3798 76.5625 76.9512C76.4844 77.9395 76.4585 78.929 76.4844 79.9199C78.4636 79.9199 80.4427 79.9199 82.4219 79.9199C82.4479 78.929 82.4219 77.9395 82.3438 76.9512C82.1546 76.442 81.8682 75.9993 81.4844 75.623C80.8138 75.7205 80.1368 75.8509 79.4532 76.0137C78.7685 75.8768 78.0914 75.7205 77.4219 75.5449Z" fill="white"/>
<path fill-rule="evenodd" clip-rule="evenodd" d="M64.7656 67.1094C65.1302 67.1094 65.4948 67.1094 65.8594 67.1094C65.8594 73.9323 65.8594 80.7552 65.8594 87.5781C65.026 87.5781 64.1927 87.5781 63.3594 87.5781C62.2244 81.3039 61.0785 75.0278 59.9219 68.75C59.9492 68.4909 60.0534 68.2827 60.2344 68.125C61.7667 67.7923 63.2771 67.4538 64.7656 67.1094Z" fill="#D5A618"/>
<path fill-rule="evenodd" clip-rule="evenodd" d="M71.9532 67.2637C76.9013 67.2376 81.8493 67.2637 86.7969 67.3418C86.9232 67.3899 87.0274 67.4681 87.1094 67.5762C87.2905 72.4654 87.3166 77.3613 87.1875 82.2637C87.1291 82.4068 87.051 82.5371 86.9532 82.6543C82.0186 82.9123 77.0707 82.9645 72.1094 82.8106C71.9793 82.6804 71.8489 82.5501 71.7188 82.4199C71.6146 77.472 71.6146 72.5242 71.7188 67.5762C71.8308 67.4912 71.9089 67.387 71.9532 67.2637ZM78.8282 70.2324C77.5458 70.9873 77.2333 72.0289 77.8907 73.3574C79.2664 74.5459 80.3863 74.3374 81.25 72.7324C81.4332 70.9621 80.6258 70.1289 78.8282 70.2324ZM77.4219 75.5449C76.9797 75.911 76.6933 76.3798 76.5625 76.9512C76.4844 77.9395 76.4585 78.929 76.4844 79.9199C78.4636 79.9199 80.4427 79.9199 82.4219 79.9199C82.4479 78.929 82.4219 77.9395 82.3438 76.9512C82.1546 76.442 81.8682 75.9993 81.4844 75.6231C80.8138 75.7206 80.1368 75.8509 79.4532 76.0137C78.7685 75.8768 78.0914 75.7206 77.4219 75.5449Z" fill="#D5A618"/>
<path opacity="0.982" fill-rule="evenodd" clip-rule="evenodd" d="M78.5157 68.5152C81.228 68.2868 82.7385 69.5107 83.0469 72.1871C83.051 72.8521 82.8947 73.4771 82.5782 74.0621C83.2947 74.8435 83.7896 75.7551 84.0625 76.7965C84.1668 78.2027 84.1668 79.609 84.0625 81.0152C84.0041 81.1584 83.926 81.2887 83.8282 81.4059C80.9114 81.5101 77.9949 81.5101 75.0782 81.4059C75 81.3277 74.9219 81.2496 74.8438 81.1715C74.7396 79.661 74.7396 78.1507 74.8438 76.6402C75.1108 75.6704 75.6057 74.8371 76.3282 74.1402C75.243 71.5626 75.9722 69.6876 78.5157 68.5152ZM78.8282 70.234C77.5458 70.9888 77.2333 72.0304 77.8907 73.359C79.2664 74.5474 80.3863 74.339 81.25 72.734C81.4332 70.9637 80.6258 70.1304 78.8282 70.234ZM77.4219 75.5465C76.9797 75.9126 76.6933 76.3813 76.5625 76.9527C76.4844 77.941 76.4585 78.9305 76.4844 79.9215C78.4636 79.9215 80.4427 79.9215 82.4219 79.9215C82.4479 78.9305 82.4219 77.941 82.3438 76.9527C82.1546 76.4435 81.8682 76.0009 81.4844 75.6246C80.8138 75.7221 80.1368 75.8524 79.4532 76.0152C78.7685 75.8784 78.0914 75.7221 77.4219 75.5465Z" fill="white"/>
<path opacity="0.945" fill-rule="evenodd" clip-rule="evenodd" d="M91.6407 68.3613C93.1 68.3353 94.5584 68.3613 96.0157 68.4394C96.9111 68.8464 97.0153 69.4194 96.3282 70.1582C94.7137 70.2624 93.099 70.2624 91.4845 70.1582C90.6632 69.5122 90.7153 68.9133 91.6407 68.3613Z" fill="white"/>
<path opacity="0.96" fill-rule="evenodd" clip-rule="evenodd" d="M91.328 73.5137C96.5887 73.4876 101.849 73.5137 107.109 73.5918C107.526 74.1126 107.526 74.6335 107.109 75.1543C101.849 75.2585 96.5885 75.2585 91.328 75.1543C90.9187 74.6078 90.9187 74.0609 91.328 73.5137Z" fill="#D5A618"/>
<path opacity="0.963" fill-rule="evenodd" clip-rule="evenodd" d="M91.328 78.3574C96.5887 78.3314 101.849 78.3574 107.109 78.4356C107.526 78.9564 107.526 79.4773 107.109 79.9981C101.849 80.1023 96.5885 80.1023 91.328 79.9981C90.9187 79.4515 90.9187 78.9046 91.328 78.3574Z" fill="white"/>
<path opacity="0.959" fill-rule="evenodd" clip-rule="evenodd" d="M91.328 83.5137C96.5887 83.4876 101.849 83.5137 107.109 83.5918C107.526 84.1126 107.526 84.6335 107.109 85.1543C101.849 85.2585 96.5885 85.2585 91.328 85.1543C90.9187 84.6078 90.9187 84.0609 91.328 83.5137Z" fill="#D5A618"/>
<path opacity="0.96" fill-rule="evenodd" clip-rule="evenodd" d="M91.328 88.6699C96.5887 88.6439 101.849 88.6699 107.109 88.7481C107.526 89.2689 107.526 89.7898 107.109 90.3106C101.849 90.4148 96.5885 90.4148 91.328 90.3106C90.9187 89.764 90.9187 89.2171 91.328 88.6699Z" fill="#D5A618"/>
<path opacity="0.981" fill-rule="evenodd" clip-rule="evenodd" d="M88.5156 104.922C90.3197 104.639 91.5956 105.316 92.3437 106.953C92.4219 107.994 92.4478 109.035 92.4219 110.078C93.6981 109.992 94.9481 110.123 96.1719 110.469C97.8017 111.703 98.1401 113.24 97.1875 115.078C96.6114 115.81 95.8562 116.2 94.9219 116.25C94.0901 116.328 93.2569 116.354 92.4219 116.328C92.4478 117.371 92.4219 118.413 92.3437 119.453C91.5033 121.262 90.1231 121.861 88.2031 121.25C87.1969 120.817 86.5978 120.062 86.4062 118.985C86.3283 118.101 86.3022 117.215 86.3281 116.328C84.9798 116.438 83.6778 116.256 82.4219 115.781C81.1773 114.7 80.8387 113.372 81.4062 111.797C81.8997 110.887 82.655 110.34 83.6719 110.156C84.5558 110.078 85.4412 110.052 86.3281 110.078C86.2751 108.973 86.3533 107.879 86.5625 106.797C86.9951 105.921 87.6462 105.296 88.5156 104.922Z" fill="white"/>
<path fill-rule="evenodd" clip-rule="evenodd" d="M88.8283 106.643C89.6307 106.475 90.2296 106.736 90.6252 107.424C90.6772 108.622 90.7294 109.82 90.7814 111.018C90.8241 111.304 90.9544 111.538 91.1721 111.721C92.4221 111.773 93.6721 111.825 94.9221 111.877C95.9627 112.267 96.2491 112.97 95.7814 113.987C95.5754 114.297 95.2889 114.48 94.9221 114.534C93.6721 114.586 92.4221 114.638 91.1721 114.69C90.9844 114.831 90.8541 115.013 90.7814 115.237C90.7294 116.487 90.6772 117.737 90.6252 118.987C90.0768 119.813 89.3736 119.969 88.5158 119.456C88.3464 119.274 88.2163 119.065 88.1252 118.831C88.0946 117.521 88.0164 116.219 87.8908 114.924C87.8088 114.816 87.7046 114.738 87.5783 114.69C86.3283 114.638 85.0783 114.586 83.8283 114.534C83.1513 114.352 82.8388 113.909 82.8908 113.206C82.8388 112.502 83.1513 112.059 83.8283 111.877C85.0783 111.825 86.3283 111.773 87.5783 111.721C87.7046 111.673 87.8088 111.595 87.8908 111.487C88.0164 110.192 88.0946 108.89 88.1252 107.581C88.2782 107.195 88.5125 106.882 88.8283 106.643Z" fill="#D5A618"/>
</svg>
