<svg width="40" height="40" viewBox="0 0 40 40" fill="none" xmlns="http://www.w3.org/2000/svg">
<path d="M8.34375 11.5552C8.41537 9.666 9.50083 7.95705 10.8958 6.56205C13.2174 4.24047 16.9214 4.5524 18.3954 7.19362L19.4771 9.13183C20.4533 10.881 20.0614 13.1755 18.5239 14.713M28.4444 31.6557C30.3334 31.5842 32.0424 30.4987 33.4374 29.1037C35.7591 26.782 35.4471 23.078 32.8059 21.604L30.8676 20.5223C29.1186 19.5462 26.8239 19.938 25.2864 21.4755" stroke="#B19E7F" stroke-width="2"/>
<path d="M8.34686 11.5586C8.22629 14.7388 9.03116 20.1396 14.4488 25.5572C19.8664 30.9749 25.2673 31.7797 28.4474 31.6592M25.2896 21.4789C25.2896 21.4789 23.4246 23.3437 20.0434 19.9626C16.6622 16.5813 18.5271 14.7164 18.5271 14.7164" stroke="#B19E7F" stroke-width="2"/>
</svg>
