<svg width="32" height="32" viewBox="0 0 32 32" fill="none" xmlns="http://www.w3.org/2000/svg">
<g clip-path="url(#clip0_2029_41159)">
<path d="M12 9.99996H6.78C8.07335 8.01228 9.97441 6.49579 12.1998 5.67653C14.4252 4.85728 16.8558 4.77913 19.1292 5.45374C21.4027 6.12835 23.3972 7.51959 24.8156 9.42008C26.2339 11.3206 27.0002 13.6285 27 16H29C29.0028 13.3254 28.1805 10.7152 26.6455 8.52507C25.1104 6.33496 22.9372 4.67161 20.4222 3.76183C17.9072 2.85205 15.1727 2.74012 12.5918 3.4413C10.0108 4.14248 7.70893 5.62264 6 7.67996V3.99996H4V12H12V9.99996Z" fill="#D1B894"/>
<path d="M20 22H25.22C23.9267 23.9877 22.0256 25.5042 19.8002 26.3234C17.5748 27.1427 15.1442 27.2208 12.8708 26.5462C10.5973 25.8716 8.60278 24.4804 7.18443 22.5799C5.76607 20.6794 4.99986 18.3714 5.00001 16H3.00001C2.99725 18.6745 3.81947 21.2848 5.35454 23.4749C6.88961 25.665 9.06281 27.3284 11.5778 28.2381C14.0928 29.1479 16.8273 29.2598 19.4082 28.5587C21.9892 27.8575 24.2911 26.3773 26 24.32V28H28V20H20V22Z" fill="#D1B894"/>
</g>
<defs>
<clipPath id="clip0_2029_41159">
<rect width="32" height="32" fill="white"/>
</clipPath>
</defs>
</svg>
