<svg width="141" height="141" viewBox="0 0 141 141" fill="none" xmlns="http://www.w3.org/2000/svg">
<path d="M127.494 41.3085C127.157 40.6815 126.587 40.2125 125.906 40.0029C125.226 39.7933 124.491 39.86 123.86 40.1886C123.228 40.5172 122.752 41.0812 122.533 41.7586C122.315 42.4359 122.372 43.1721 122.692 43.8077C128.501 54.896 130.606 67.5534 128.698 79.925C126.791 92.2966 120.971 103.732 112.091 112.555C89.1619 135.483 51.8489 135.49 28.9096 112.553C28.5311 112.175 28.0487 111.917 27.5237 111.813C26.9986 111.708 26.4544 111.762 25.9599 111.967C25.4654 112.172 25.0428 112.519 24.7457 112.965C24.4485 113.41 24.2901 113.933 24.2905 114.469V130.027C24.2905 130.745 24.5756 131.433 25.083 131.941C25.5905 132.448 26.2788 132.733 26.9965 132.733C27.7142 132.733 28.4025 132.448 28.91 131.941C29.4175 131.433 29.7026 130.745 29.7026 130.027V120.58C41.1399 129.981 55.473 135.143 70.2778 135.193C85.0826 135.243 99.4505 130.179 110.951 120.856C122.452 111.533 130.38 98.5241 133.395 84.0293C136.409 69.5345 134.324 54.4434 127.494 41.3085ZM28.9096 29.3762C51.8461 6.44189 89.1591 6.44435 112.091 29.3737C112.469 29.7528 112.951 30.0111 113.477 30.1159C114.002 30.2207 114.546 30.1673 115.041 29.9624C115.535 29.7575 115.958 29.4104 116.255 28.9651C116.552 28.5197 116.711 27.9962 116.71 27.4608V11.9022C116.71 11.1845 116.425 10.4962 115.918 9.98869C115.41 9.4812 114.722 9.19609 114.004 9.19609C113.286 9.19609 112.598 9.4812 112.091 9.98869C111.583 10.4962 111.298 11.1845 111.298 11.9022V21.3494C86.0925 0.594707 48.6403 1.99115 25.0834 25.5478C15.3861 35.1824 9.02989 47.67 6.94658 61.1801C4.86327 74.6903 7.16237 88.5126 13.5069 100.621C13.8438 101.248 14.414 101.717 15.0942 101.926C15.7743 102.136 16.5097 102.069 17.141 101.741C17.7723 101.412 18.2488 100.848 18.4673 100.171C18.6858 99.4934 18.6287 98.7572 18.3085 98.1217C12.4993 87.0337 10.3943 74.3766 12.3021 62.0053C14.2098 49.634 20.03 38.199 28.9096 29.3762Z" fill="#B19E7F"/>
<path d="M35.0625 70.5695V100.494C35.0683 102.451 35.848 104.325 37.2313 105.709C38.6145 107.092 40.489 107.871 42.4453 107.877H98.5547C100.511 107.872 102.386 107.092 103.769 105.709C105.152 104.325 105.932 102.451 105.938 100.494V70.5695C105.932 68.6131 105.152 66.7386 103.769 65.3552C102.386 63.9719 100.511 63.1923 98.5547 63.1866H42.4453C40.489 63.1924 38.6145 63.9721 37.2313 65.3554C35.848 66.7387 35.0683 68.6132 35.0625 70.5695ZM90.1875 79.7501C91.3311 79.7501 92.449 80.0892 93.3999 80.7246C94.3507 81.3599 95.0918 82.263 95.5295 83.3195C95.9671 84.3761 96.0816 85.5386 95.8585 86.6603C95.6354 87.7819 95.0847 88.8122 94.2761 89.6208C93.4674 90.4294 92.4371 90.9801 91.3155 91.2032C90.1939 91.4263 89.0313 91.3118 87.9748 90.8742C86.9182 90.4366 86.0152 89.6955 85.3799 88.7446C84.7445 87.7937 84.4054 86.6758 84.4054 85.5322C84.4069 83.9992 85.0166 82.5294 86.1006 81.4453C87.1846 80.3613 88.6545 79.7516 90.1875 79.7501ZM70.5 79.7501C71.6436 79.7501 72.7615 80.0892 73.7124 80.7246C74.6632 81.3599 75.4043 82.263 75.842 83.3195C76.2796 84.3761 76.3941 85.5386 76.171 86.6603C75.9479 87.7819 75.3972 88.8122 74.5886 89.6208C73.7799 90.4294 72.7496 90.9801 71.628 91.2032C70.5064 91.4263 69.3438 91.3118 68.2873 90.8742C67.2307 90.4366 66.3277 89.6955 65.6924 88.7446C65.057 87.7937 64.7179 86.6758 64.7179 85.5322C64.7194 83.9992 65.3291 82.5294 66.4131 81.4453C67.4971 80.3613 68.967 79.7516 70.5 79.7501ZM50.8125 79.7501C51.9561 79.7501 53.074 80.0892 54.0249 80.7246C54.9757 81.3599 55.7168 82.263 56.1545 83.3195C56.5921 84.3761 56.7066 85.5386 56.4835 86.6603C56.2604 87.7819 55.7097 88.8122 54.9011 89.6208C54.0924 90.4294 53.0622 90.9801 51.9405 91.2032C50.8189 91.4263 49.6563 91.3118 48.5998 90.8742C47.5432 90.4366 46.6402 89.6955 46.0049 88.7446C45.3695 87.7937 45.0304 86.6758 45.0304 85.5322C45.0319 83.9992 45.6416 82.5294 46.7256 81.4453C47.8096 80.3613 49.2795 79.7516 50.8125 79.7501ZM94.4676 57.7729V47.9286C94.4676 41.5719 91.9425 35.4757 87.4477 30.9809C82.9529 26.4861 76.8566 23.9609 70.5 23.9609C64.1434 23.9609 58.0471 26.4861 53.5523 30.9809C49.0575 35.4757 46.5324 41.5719 46.5324 47.9286V57.7729H51.9445V47.9286C51.9445 43.0073 53.8995 38.2877 57.3793 34.8079C60.8591 31.328 65.5788 29.3731 70.5 29.3731C75.4212 29.3731 80.1409 31.328 83.6207 34.8079C87.1005 38.2877 89.0555 43.0073 89.0555 47.9286V57.7729H94.4676Z" fill="#B19E7F"/>
</svg>
