<svg width="141" height="140" viewBox="0 0 141 140" fill="none" xmlns="http://www.w3.org/2000/svg">
<path fill-rule="evenodd" clip-rule="evenodd" d="M70.5003 7.29102C67.2278 7.29102 64.562 8.66768 62.1353 10.5227C59.8603 12.2552 57.352 14.7635 54.4178 17.6977L54.2137 17.9018C51.2095 20.906 48.5903 22.0843 44.5537 22.0843C44.0462 22.0843 43.4103 22.0668 42.687 22.0493C40.8378 21.991 38.4462 21.9327 36.352 22.1077C33.2895 22.376 29.4687 23.216 26.5578 26.1385C23.6762 29.0493 22.8595 32.8585 22.6028 35.8977C22.4278 37.9743 22.4978 40.3485 22.5445 42.186C22.5678 42.9093 22.5853 43.5452 22.5853 44.0527C22.5853 48.0894 21.407 50.7085 18.4028 53.7127L18.1987 53.9169C15.2645 56.851 12.7562 59.3594 11.0237 61.6343C9.16866 64.061 7.79199 66.7269 7.79199 69.9994C7.79199 73.2719 9.16866 75.9377 11.0237 78.3643C12.7562 80.6394 15.2645 83.1477 18.1987 86.0818L18.4028 86.286C20.3512 88.2344 21.267 89.4943 21.7862 90.6843C22.2937 91.851 22.5853 93.3152 22.5853 95.946C22.5853 96.4535 22.5678 97.0893 22.5503 97.8127C22.492 99.6618 22.4337 102.054 22.6087 104.148C22.877 107.21 23.717 111.031 26.6395 113.942C29.5503 116.824 33.3595 117.64 36.3987 117.897C38.4753 118.072 40.8495 118.002 42.687 117.955C43.4103 117.932 44.0462 117.914 44.5537 117.914C47.1262 117.914 48.5787 118.171 49.7103 118.644C50.8478 119.11 52.067 119.95 53.8987 121.782C54.2895 122.173 54.8087 122.727 55.4037 123.363C56.7453 124.804 58.4895 126.67 60.117 128.099C62.5903 130.258 66.137 132.708 70.5003 132.708C74.8695 132.708 78.4103 130.258 80.8837 128.099C82.517 126.67 84.2553 124.804 85.597 123.369C86.192 122.727 86.7053 122.173 87.102 121.782C88.9337 119.95 90.1528 119.11 91.2903 118.644C92.4278 118.177 93.8745 117.914 96.447 117.914C96.9545 117.914 97.5903 117.932 98.3137 117.949C100.151 118.008 102.525 118.066 104.602 117.891C107.641 117.64 111.45 116.824 114.361 113.942C117.289 111.037 118.124 107.21 118.386 104.142C118.573 102.054 118.503 99.6618 118.45 97.8127C118.431 97.1906 118.419 96.5684 118.415 95.946C118.415 93.321 118.707 91.8452 119.214 90.6843C119.734 89.4943 120.649 88.2344 122.598 86.286L122.802 86.0818C125.736 83.1477 128.244 80.6394 129.977 78.3643C131.832 75.9377 133.209 73.2719 133.209 69.9994C133.209 66.7269 131.832 64.061 129.977 61.6285C128.244 59.3535 125.736 56.851 122.802 53.9169L122.598 53.7127C120.649 51.7644 119.734 50.5044 119.214 49.3144C118.707 48.1477 118.415 46.6835 118.415 44.0527C118.415 43.5452 118.433 42.9093 118.45 42.186C118.509 40.3368 118.567 37.9452 118.392 35.851C118.124 32.7885 117.284 28.9677 114.361 26.0569C111.456 23.1752 107.641 22.3585 104.602 22.1018C102.508 21.9697 100.409 21.9502 98.3137 22.0435C97.5903 22.0668 96.9487 22.0843 96.447 22.0843C92.4045 22.0843 89.7912 20.906 86.787 17.9018L86.5828 17.6977C83.6487 14.7635 81.1403 12.2552 78.8653 10.5227C76.4387 8.66768 73.7728 7.29102 70.5003 7.29102ZM92.4687 59.1668C92.9612 58.5801 93.3334 57.902 93.5639 57.1714C93.7944 56.4408 93.8788 55.6719 93.8122 54.9087C93.7455 54.1454 93.5292 53.4028 93.1756 52.7232C92.822 52.0436 92.338 51.4403 91.7512 50.9477C91.1644 50.4551 90.4863 50.083 89.7557 49.8524C89.0251 49.6219 88.2562 49.5376 87.493 49.6042C86.7298 49.6708 85.9871 49.8871 85.3075 50.2407C84.6279 50.5944 84.0246 51.0784 83.532 51.6652L62.8995 76.2235L56.8853 70.8569C56.3139 70.3467 55.6475 69.954 54.9243 69.7014C54.2011 69.4487 53.4352 69.341 52.6703 69.3843C51.1257 69.4718 49.679 70.1694 48.6487 71.3235C47.6183 72.4777 47.0886 73.9938 47.1761 75.5385C47.2636 77.0832 47.9612 78.5298 49.1153 79.5602L59.6153 88.9343C60.1979 89.4546 60.8791 89.8525 61.6184 90.1046C62.3577 90.3566 63.1401 90.4576 63.9191 90.4016C64.6982 90.3455 65.4581 90.1336 66.1537 89.7784C66.8493 89.4231 67.4665 88.9318 67.9687 88.3335L92.4687 59.1668Z" fill="#B19E7F"/>
</svg>
