<svg width="33" height="33" viewBox="0 0 33 33" fill="none" xmlns="http://www.w3.org/2000/svg">
<g clip-path="url(#clip0_465_2620)">
<path fill-rule="evenodd" clip-rule="evenodd" d="M11.9139 2.60277C13.9165 -0.200922 18.0834 -0.200922 20.0861 2.60277L20.405 3.04912C20.7573 3.54256 21.3492 3.80677 21.9517 3.73981L23.3728 3.58191C26.5711 3.22656 29.2735 5.92893 28.9181 9.12714L28.7603 10.5482C28.6933 11.1509 28.9574 11.7426 29.4509 12.0951L29.8973 12.4139C32.7009 14.4165 32.7009 18.5834 29.8973 20.5861L29.4509 20.905C28.9574 21.2573 28.6933 21.8492 28.7603 22.4517L28.9181 23.8728C29.2735 27.0711 26.5711 29.7735 23.3728 29.4181L21.9517 29.2603C21.3492 29.1933 20.7573 29.4574 20.405 29.9509L20.0861 30.3973C18.0834 33.2009 13.9166 33.2009 11.9139 30.3973L11.5951 29.9509C11.2426 29.4574 10.6509 29.1933 10.0482 29.2603L8.62714 29.4181C5.42893 29.7735 2.72656 27.0711 3.08191 23.8728L3.23981 22.4517C3.30677 21.8492 3.04256 21.2573 2.54912 20.905L2.10277 20.5861C-0.700922 18.5834 -0.700922 14.4166 2.10277 12.4139L2.54912 12.0951C3.04256 11.7426 3.30677 11.1509 3.23981 10.5482L3.08191 9.12714C2.72656 5.92893 5.42893 3.22656 8.62714 3.58191L10.0482 3.73981C10.6509 3.80677 11.2426 3.54256 11.5951 3.04912L11.9139 2.60277ZM22.205 11.9689C22.8586 12.6225 22.8586 13.6823 22.205 14.336L15.8129 20.7281C14.9919 21.5492 13.6606 21.5492 12.8396 20.7281L9.79505 17.6836C9.1414 17.03 9.1414 15.9701 9.79505 15.3165C10.4487 14.6629 11.5085 14.6629 12.1622 15.3165L14.3262 17.4805L19.8379 11.9689C20.4915 11.3152 21.5514 11.3152 22.205 11.9689Z" fill="#B19E7F"/>
</g>
<defs>
<clipPath id="clip0_465_2620">
<rect width="32" height="32" fill="white" transform="translate(0.5 0.5)"/>
</clipPath>
</defs>
</svg>
