<svg width="32" height="32" viewBox="0 0 32 32" fill="none" xmlns="http://www.w3.org/2000/svg">
<g clip-path="url(#clip0_922_8890)">
<path d="M16 0C24.8366 0 32 7.16344 32 16C32 24.8366 24.8366 32 16 32C7.16344 32 0 24.8366 0 16C0 7.16344 7.16344 0 16 0ZM16 2.23256C8.39645 2.23256 2.23256 8.39645 2.23256 16C2.23256 23.6035 8.39645 29.7674 16 29.7674C23.6035 29.7674 29.7674 23.6035 29.7674 16C29.7674 8.39645 23.6035 2.23256 16 2.23256ZM14.5116 8.93023C15.1281 8.93023 15.6279 9.43001 15.6279 10.0465V17.8605H23.4419C24.0584 17.8605 24.5581 18.3602 24.5581 18.9767C24.5581 19.5932 24.0584 20.093 23.4419 20.093H14.5116C13.8951 20.093 13.3953 19.5932 13.3953 18.9767V10.0465C13.3953 9.43001 13.8951 8.93023 14.5116 8.93023Z" fill="#3E372C"/>
</g>
<defs>
<clipPath id="clip0_922_8890">
<rect width="32" height="32" fill="white"/>
</clipPath>
</defs>
</svg>
