<svg width="1440" height="2194" viewBox="0 0 1440 2194" fill="none" xmlns="http://www.w3.org/2000/svg" xmlns:xlink="http://www.w3.org/1999/xlink">
<g filter="url(#filter0_d_1000_8888)">
<path fill-rule="evenodd" clip-rule="evenodd" d="M1497 1283.42C1497 1760.75 1426.61 2367 1212.35 2367C861.187 2367 1022.92 1438.22 720.298 1438.22C417.68 1438.22 520.008 2371.9 230.867 2371.9C27.5829 2371.9 -53.2816 1753.97 -53.2816 1283.42C-53.2816 998.285 -351.906 530.58 -130.652 116.998C140.644 -390.157 401.956 10.3279 713.559 10.3279C1029.9 10.3279 1276.62 -381.794 1565.63 116.998C1794.75 512.906 1497 1003.18 1497 1283.42Z" fill="url(#pattern0_1000_8888)" shape-rendering="crispEdges"/>
</g>
<defs>
<filter id="filter0_d_1000_8888" x="-236.281" y="-159.82" width="1912.56" height="2559.72" filterUnits="userSpaceOnUse" color-interpolation-filters="sRGB">
<feFlood flood-opacity="0" result="BackgroundImageFix"/>
<feColorMatrix in="SourceAlpha" type="matrix" values="0 0 0 0 0 0 0 0 0 0 0 0 0 0 0 0 0 0 127 0" result="hardAlpha"/>
<feOffset dy="4"/>
<feGaussianBlur stdDeviation="12"/>
<feComposite in2="hardAlpha" operator="out"/>
<feColorMatrix type="matrix" values="0 0 0 0 0 0 0 0 0 0 0 0 0 0 0 0 0 0 0.12 0"/>
<feBlend mode="normal" in2="BackgroundImageFix" result="effect1_dropShadow_1000_8888"/>
<feBlend mode="normal" in="SourceGraphic" in2="effect1_dropShadow_1000_8888" result="shape"/>
</filter>
<pattern id="pattern0_1000_8888" patternUnits="userSpaceOnUse" patternTransform="matrix(375 0 0 224 -351.906 -390.157)" preserveAspectRatio="none" viewBox="0 0 375 224" width="1" height="1">
<g id="pattern0_1000_8888_inner">
<pattern id="pattern1_1000_8888" patternUnits="userSpaceOnUse" patternTransform="matrix(291.2 0 0 97.28 0 0)" preserveAspectRatio="none" viewBox="0 0 728 243.2" width="1" height="1">
<use xlink:href="#pattern1_1000_8888_inner" transform="translate(-728 0)"/>
<g id="pattern1_1000_8888_inner">
<path d="M54.4 6.3999H9.6C4.298 6.3999 0 10.6979 0 15.9999V22.3999C0 25.9349 2.866 28.7999 6.4 28.7999H57.6C61.134 28.7999 64 25.9349 64 22.3999V15.9999C64 10.6979 59.702 6.3999 54.4 6.3999ZM16 23.9999C16 24.8839 15.284 25.5999 14.4 25.5999H8C7.116 25.5999 6.4 24.8839 6.4 23.9999V20.7999C6.4 18.1489 8.549 15.9999 11.2 15.9999C13.851 15.9999 16 18.1489 16 20.7999V23.9999ZM30.4 23.9999C30.4 24.8839 29.684 25.5999 28.8 25.5999H20.8C19.916 25.5999 19.2 24.8839 19.2 23.9999V18.3999C19.2 15.3069 21.707 12.7999 24.8 12.7999C27.893 12.7999 30.4 15.3069 30.4 18.3999V23.9999ZM44.8 23.9999C44.8 24.8839 44.084 25.5999 43.2 25.5999H35.2C34.316 25.5999 33.6 24.8839 33.6 23.9999V18.3999C33.6 15.3069 36.107 12.7999 39.2 12.7999C42.293 12.7999 44.8 15.3069 44.8 18.3999V23.9999ZM57.6 23.9999C57.6 24.8839 56.884 25.5999 56 25.5999H49.6C48.716 25.5999 48 24.8839 48 23.9999V20.7999C48 18.1489 50.149 15.9999 52.8 15.9999C55.451 15.9999 57.6 18.1489 57.6 20.7999V23.9999ZM57.6 38.3999H6.4C2.866 38.3999 0 41.2649 0 44.7999V47.9999C0 53.3019 4.298 57.5999 9.6 57.5999H54.4C59.702 57.5999 64 53.3019 64 47.9999V44.7999C64 41.2649 61.134 38.3999 57.6 38.3999ZM16 46.3999C16 49.0509 13.851 51.1999 11.2 51.1999C8.549 51.1999 6.4 49.0509 6.4 46.3999V43.1999C6.4 42.3159 7.116 41.5999 8 41.5999H14.4C15.284 41.5999 16 42.3159 16 43.1999V46.3999ZM30.4 45.5999C30.4 48.6929 27.893 51.1999 24.8 51.1999C21.707 51.1999 19.2 48.6929 19.2 45.5999V43.1999C19.2 42.3159 19.916 41.5999 20.8 41.5999H28.8C29.684 41.5999 30.4 42.3159 30.4 43.1999V45.5999ZM44.8 45.5999C44.8 48.6929 42.293 51.1999 39.2 51.1999C36.107 51.1999 33.6 48.6929 33.6 45.5999V43.1999C33.6 42.3159 34.316 41.5999 35.2 41.5999H43.2C44.084 41.5999 44.8 42.3159 44.8 43.1999V45.5999ZM57.6 46.3999C57.6 49.0509 55.451 51.1999 52.8 51.1999C50.149 51.1999 48 49.0509 48 46.3999V43.1999C48 42.3159 48.716 41.5999 49.6 41.5999H56C56.884 41.5999 57.6 42.3159 57.6 43.1999V46.3999Z" fill="#E6F0FF" fill-opacity="0.08"/>
<g clip-path="url(#clip0_1000_8888)">
<path d="M284.134 0.721017C281.138 -0.600136 277.633 -0.0376648 274.075 1.98985C265.232 7.01284 254.768 7.01284 245.925 1.98985C242.367 -0.0376648 238.862 -0.600136 235.866 0.721017C226.775 4.63215 225.349 23.8346 232.714 43.5473C235.055 49.8391 237.907 56.3402 240.954 62.0826C242.524 65.0781 246.749 64.4241 247.456 61.01C249.535 51.5134 254.362 44.8553 260 44.8553C265.481 44.8553 270.268 51.1995 272.401 60.3037C273.159 63.5608 277.175 64.2148 278.797 61.3763C282.054 55.7908 284.997 49.5906 287.286 43.4949C294.651 23.7823 293.225 4.63215 284.134 0.721017Z" fill="#E6F0FF" fill-opacity="0.08"/>
</g>
<path d="M518.404 1.67027C517.343 0.608406 515.697 0 513.889 0C512.078 0 510.433 0.608406 509.371 1.67027C507.937 3.10469 507.227 5.05638 507.374 7.16643C507.47 8.54731 507.93 9.89629 508.645 10.9581L500.174 19.4291L497.413 18.7922C496.178 18.5085 494.866 18.8845 493.97 19.78L473.664 40.0842L478.047 50.729L504.303 24.4741C504.972 23.8042 505.226 22.8221 504.964 21.9117C504.703 21.0014 503.967 20.303 503.043 20.0899L502.793 20.0318L511.788 11.0368L510.982 10.2312C510.246 9.4941 509.733 8.25906 509.647 7.00693C509.575 5.98608 509.751 4.51292 510.982 3.28015C512.213 2.05081 514.995 1.95738 516.46 2.99988V8.17133C516.46 8.80024 516.969 9.31067 517.599 9.31067C518.229 9.31067 518.739 8.80024 518.739 8.17133V2.00409L518.404 1.67027Z" fill="#E6F0FF" fill-opacity="0.08"/>
<path d="M468.916 44.8329L473.477 55.2977L476.302 52.4744L471.918 41.8296L468.916 44.8329Z" fill="#E6F0FF" fill-opacity="0.08"/>
<path d="M464.233 49.5155L468.94 59.8356L471.746 57.0294L467.184 46.5635L464.233 49.5155Z" fill="#E6F0FF" fill-opacity="0.08"/>
<path d="M458.819 54.9296C457.815 55.9322 457.262 57.2663 457.262 58.686C457.262 60.1056 457.815 61.4397 458.819 62.4424C459.823 63.445 461.157 63.9987 462.576 63.9987C463.995 63.9987 465.329 63.4461 466.333 62.4424L467.22 61.5548L462.513 51.2358L458.819 54.9296Z" fill="#E6F0FF" fill-opacity="0.08"/>
</g>
<use xlink:href="#pattern1_1000_8888_inner" transform="translate(-364 121.6)"/>
<use xlink:href="#pattern1_1000_8888_inner" transform="translate(364 121.6)"/>
</pattern><rect width="375" height="224" fill="url(#pattern1_1000_8888)"/>
</g>
</pattern><clipPath id="clip0_1000_8888">
<rect width="64" height="64" fill="white" transform="translate(228)"/>
</clipPath>
</defs>
</svg>
