<svg width="141" height="141" viewBox="0 0 141 141" fill="none" xmlns="http://www.w3.org/2000/svg">
<path d="M127.375 61.4486V57.4805C127.375 55.1598 126.453 52.9342 124.812 51.2933C123.171 49.6523 120.946 48.7305 118.625 48.7305H22.375C20.0544 48.7305 17.8288 49.6523 16.1878 51.2933C14.5469 52.9342 13.625 55.1598 13.625 57.4805V61.4486L70.5 91.5661L127.375 61.4486Z" fill="#B19E7F"/>
<path d="M13.625 61.4492V125.652C13.6265 126.847 13.8739 128.029 14.3518 129.124C14.8298 130.219 15.528 131.204 16.4031 132.018L66.1906 89.2852L13.625 61.4492Z" fill="#B19E7F"/>
<path d="M74.8074 89.2852L70.5002 91.5667L66.193 89.2852L16.4033 132.018C18.0163 133.546 20.1531 134.4 22.3752 134.402H118.625C120.847 134.399 122.984 133.546 124.597 132.018L74.8074 89.2852Z" fill="#B19E7F"/>
<path d="M127.375 125.652V61.4492L74.8076 89.2852L124.595 132.018C125.471 131.205 126.169 130.22 126.647 129.125C127.125 128.029 127.374 126.847 127.375 125.652Z" fill="#B19E7F"/>
<path d="M129.562 7.52734H11.4375C9.02125 7.52734 7.0625 9.4861 7.0625 11.9023V33.9939C7.0625 36.4102 9.02125 38.3689 11.4375 38.3689H129.562C131.979 38.3689 133.938 36.4102 133.938 33.9939V11.9023C133.938 9.4861 131.979 7.52734 129.562 7.52734Z" fill="#E7E1D7"/>
<path d="M118.625 46.5436H22.375C16.3441 46.5436 11.4375 51.4502 11.4375 57.4811V125.652C11.4375 131.683 16.3441 136.59 22.375 136.59H118.625C124.656 136.59 129.562 131.683 129.562 125.652V57.4811C129.562 51.4502 124.656 46.5436 118.625 46.5436ZM125.188 125.652C125.188 126.831 124.851 127.925 124.302 128.883L78.6681 89.7161L125.188 65.0827V125.652ZM22.375 50.9186H118.625C122.243 50.9186 125.188 53.863 125.188 57.4811V60.1323L70.5 89.0927L15.8125 60.1323V57.4811C15.8125 53.863 18.7569 50.9186 22.375 50.9186ZM16.6984 128.883C16.1254 127.902 15.8199 126.788 15.8125 125.652V65.0827L62.3319 89.7161L16.6984 128.883ZM22.375 132.215C21.5547 132.215 20.7759 132.046 20.0519 131.769L66.4859 91.9145L69.4762 93.4983C69.7912 93.6668 70.1428 93.755 70.5 93.755C70.8572 93.755 71.2088 93.6668 71.5238 93.4983L74.5141 91.9145L120.948 131.769C120.207 132.058 119.42 132.209 118.625 132.215H22.375ZM129.562 5.33984H11.4375C7.81937 5.33984 4.875 8.28422 4.875 11.9023V33.9939C4.875 37.612 7.81937 40.5564 11.4375 40.5564H129.562C133.181 40.5564 136.125 37.612 136.125 33.9939V11.9023C136.125 8.28422 133.181 5.33984 129.562 5.33984ZM131.75 33.9939C131.75 35.1992 130.768 36.1814 129.562 36.1814H11.4375C10.2322 36.1814 9.25 35.1992 9.25 33.9939V11.9023C9.25 10.697 10.2322 9.71484 11.4375 9.71484H129.562C130.768 9.71484 131.75 10.697 131.75 11.9023V33.9939Z" fill="#3E372C"/>
<path d="M65.642 17.5067C65.3228 17.0225 64.8246 16.6846 64.2566 16.5673C63.6886 16.45 63.0972 16.5629 62.6123 16.8811L59.563 18.8892V15.2383C59.563 14.6581 59.3325 14.1017 58.9222 13.6915C58.512 13.2812 57.9556 13.0508 57.3755 13.0508C56.7953 13.0508 56.2389 13.2812 55.8287 13.6915C55.4184 14.1017 55.188 14.6581 55.188 15.2383V18.8892L52.1386 16.8811C51.8986 16.7232 51.6298 16.6142 51.3477 16.5602C51.0655 16.5062 50.7755 16.5083 50.4942 16.5664C50.2128 16.6245 49.9457 16.7375 49.708 16.8988C49.4703 17.0601 49.2667 17.2667 49.1089 17.5067C48.951 17.7467 48.842 18.0155 48.788 18.2976C48.734 18.5798 48.7361 18.8698 48.7942 19.1511C48.8523 19.4325 48.9653 19.6996 49.1266 19.9373C49.2879 20.175 49.4945 20.3786 49.7345 20.5364L53.3986 22.9492L49.7345 25.362C49.2777 25.6926 48.966 26.1865 48.8643 26.7411C48.7626 27.2957 48.8788 27.8682 49.1886 28.3393C49.4984 28.8104 49.9781 29.1438 50.5276 29.2701C51.0771 29.3964 51.6541 29.3059 52.1386 29.0173L55.188 27.0092V30.6602C55.188 31.2403 55.4184 31.7967 55.8287 32.207C56.2389 32.6172 56.7953 32.8477 57.3755 32.8477C57.9556 32.8477 58.512 32.6172 58.9222 32.207C59.3325 31.7967 59.563 31.2403 59.563 30.6602V27.0092L62.6123 29.0173C63.097 29.3361 63.6886 29.4493 64.2567 29.332C64.8249 29.2147 65.3232 28.8764 65.642 28.3917C65.9608 27.907 66.074 27.3155 65.9567 26.7473C65.8393 26.1791 65.5011 25.6808 65.0164 25.362L61.3523 22.9492L65.0164 20.5364C66.0248 19.8714 66.3048 18.5152 65.642 17.5067ZM91.892 17.5067C91.5724 17.0229 91.0742 16.6855 90.5064 16.5682C89.9385 16.4509 89.3474 16.5635 88.8623 16.8811L85.813 18.8892V15.2383C85.813 14.6581 85.5825 14.1017 85.1722 13.6915C84.762 13.2812 84.2056 13.0508 83.6255 13.0508C83.0453 13.0508 82.4889 13.2812 82.0787 13.6915C81.6684 14.1017 81.438 14.6581 81.438 15.2383V18.8892L78.3886 16.8811C78.1486 16.7232 77.8798 16.6142 77.5977 16.5602C77.3155 16.5062 77.0255 16.5083 76.7442 16.5664C76.4628 16.6245 76.1957 16.7375 75.958 16.8988C75.7203 17.0601 75.5167 17.2667 75.3589 17.5067C75.201 17.7467 75.092 18.0155 75.038 18.2976C74.984 18.5798 74.9861 18.8698 75.0442 19.1511C75.1023 19.4325 75.2153 19.6996 75.3766 19.9373C75.5379 20.175 75.7445 20.3786 75.9845 20.5364L79.6486 22.9492L75.9845 25.362C75.5277 25.6926 75.216 26.1865 75.1143 26.7411C75.0126 27.2957 75.1288 27.8682 75.4386 28.3393C75.7484 28.8104 76.2281 29.1438 76.7776 29.2701C77.3271 29.3964 77.9041 29.3059 78.3886 29.0173L81.438 27.0092V30.6602C81.438 31.2403 81.6684 31.7967 82.0787 32.207C82.4889 32.6172 83.0453 32.8477 83.6255 32.8477C84.2056 32.8477 84.762 32.6172 85.1722 32.207C85.5825 31.7967 85.813 31.2403 85.813 30.6602V27.0092L88.8623 29.0173C89.3471 29.3361 89.9386 29.4493 90.5067 29.332C91.0749 29.2147 91.5732 28.8764 91.892 28.3917C92.2108 27.907 92.324 27.3155 92.2067 26.7473C92.0893 26.1791 91.7511 25.6808 91.2664 25.362L87.6023 22.9492L91.2664 20.5364C92.2748 19.8714 92.5548 18.5152 91.892 17.5067ZM118.142 17.5067C117.823 17.0225 117.325 16.6846 116.757 16.5673C116.189 16.45 115.597 16.5629 115.112 16.8811L112.063 18.8892V15.2383C112.063 14.6581 111.832 14.1017 111.422 13.6915C111.012 13.2812 110.456 13.0508 109.875 13.0508C109.295 13.0508 108.739 13.2812 108.329 13.6915C107.918 14.1017 107.688 14.6581 107.688 15.2383V18.8892L104.639 16.8811C104.399 16.7232 104.13 16.6142 103.848 16.5602C103.566 16.5062 103.275 16.5083 102.994 16.5664C102.713 16.6245 102.446 16.7375 102.208 16.8988C101.97 17.0601 101.767 17.2667 101.609 17.5067C101.451 17.7467 101.342 18.0155 101.288 18.2976C101.234 18.5798 101.236 18.8698 101.294 19.1511C101.352 19.4325 101.465 19.6996 101.627 19.9373C101.788 20.175 101.994 20.3786 102.235 20.5364L105.899 22.9492L102.235 25.362C101.778 25.6926 101.466 26.1865 101.364 26.7411C101.263 27.2957 101.379 27.8682 101.689 28.3393C101.998 28.8104 102.478 29.1438 103.028 29.2701C103.577 29.3964 104.154 29.3059 104.639 29.0173L107.688 27.0092V30.6602C107.688 31.2403 107.918 31.7967 108.329 32.207C108.739 32.6172 109.295 32.8477 109.875 32.8477C110.456 32.8477 111.012 32.6172 111.422 32.207C111.832 31.7967 112.063 31.2403 112.063 30.6602V27.0092L115.112 29.0173C115.597 29.3361 116.189 29.4493 116.757 29.332C117.325 29.2147 117.823 28.8764 118.142 28.3917C118.461 27.907 118.574 27.3155 118.457 26.7473C118.339 26.1791 118.001 25.6808 117.516 25.362L113.852 22.9492L117.516 20.5364C118.525 19.8714 118.805 18.5152 118.142 17.5067ZM39.392 17.5067C39.0724 17.0229 38.5742 16.6855 38.0064 16.5682C37.4385 16.4509 36.8474 16.5635 36.3623 16.8811L33.3129 18.8892V15.2383C33.3129 14.6581 33.0825 14.1017 32.6722 13.6915C32.262 13.2812 31.7056 13.0508 31.1255 13.0508C30.5453 13.0508 29.9889 13.2812 29.5787 13.6915C29.1684 14.1017 28.938 14.6581 28.938 15.2383V18.8892L25.8886 16.8811C25.4039 16.5623 24.8123 16.4491 24.2442 16.5664C23.676 16.6838 23.1777 17.022 22.8589 17.5067C22.5401 17.9914 22.4269 18.583 22.5442 19.1511C22.6616 19.7193 22.9998 20.2176 23.4845 20.5364L27.1486 22.9492L23.4845 25.362C23.0277 25.6926 22.716 26.1865 22.6143 26.7411C22.5126 27.2957 22.6288 27.8682 22.9386 28.3393C23.2484 28.8104 23.7281 29.1438 24.2776 29.2701C24.8271 29.3964 25.4041 29.3059 25.8886 29.0173L28.938 27.0092V30.6602C28.938 31.2403 29.1684 31.7967 29.5787 32.207C29.9889 32.6172 30.5453 32.8477 31.1255 32.8477C31.7056 32.8477 32.262 32.6172 32.6722 32.207C33.0825 31.7967 33.3129 31.2403 33.3129 30.6602V27.0092L36.3623 29.0173C36.847 29.3361 37.4386 29.4493 38.0067 29.332C38.5749 29.2147 39.0732 28.8764 39.392 28.3917C39.7108 27.907 39.824 27.3155 39.7067 26.7473C39.5893 26.1791 39.2511 25.6808 38.7664 25.362L35.1023 22.9492L38.7664 20.5364C39.7748 19.8714 40.0548 18.5152 39.392 17.5067Z" fill="#3E372C"/>
</svg>
