<svg width="528" height="93" viewBox="0 0 528 93" fill="none" xmlns="http://www.w3.org/2000/svg">
<g clip-path="url(#clip0_1158_16970)">
<path d="M503 22H7V85H503V22Z" fill="white"/>
<path d="M15 22H495" stroke="#D5A618" stroke-width="2"/>
<path d="M495 86H15" stroke="#D5A618" stroke-width="2"/>
<path d="M7 22H15M7 22V30M7 22V19C7 17.3431 5.65685 16 4 16C2.34315 16 1 17.3431 1 19C1 20.6569 2.34315 22 4 22H7Z" stroke="#D5A618" stroke-width="2"/>
<path d="M7 30V75" stroke="#D5A618" stroke-width="2"/>
<path d="M7 86V74M7 86H15M7 86H4C2.34315 86 1 87.3431 1 89C1 90.6569 2.34315 92 4 92C5.65685 92 7 90.6569 7 89V86Z" stroke="#D5A618" stroke-width="2"/>
<path d="M503 22V30M503 22H495M503 22H506C507.657 22 509 20.6569 509 19C509 17.3431 507.657 16 506 16C504.343 16 503 17.3431 503 19V22Z" stroke="#D5A618" stroke-width="2"/>
<path d="M503 30V75" stroke="#D5A618" stroke-width="2"/>
<path d="M503 86H495M503 86V74M503 86V89C503 90.6569 504.343 92 506 92C507.657 92 509 90.6569 509 89C509 87.3431 507.657 86 506 86H503Z" stroke="#D5A618" stroke-width="2"/>
<path fill-rule="evenodd" clip-rule="evenodd" d="M519.763 24.5931C522.055 23.9486 524.454 23.6235 526.781 23.3256C527.283 23.2632 527.748 23.6116 527.784 24.1025C527.855 24.5938 527.497 25.0431 527.032 25.1056C524.776 25.3923 522.449 25.6991 520.264 26.3196C519.799 26.4542 519.297 26.1772 519.154 25.7006C519.011 25.2244 519.297 24.7281 519.763 24.5931Z" fill="#D5A803"/>
<path fill-rule="evenodd" clip-rule="evenodd" d="M512.817 15.4547C516.505 11.6826 520.659 8.39608 524.275 4.52281C524.597 4.16107 525.17 4.14169 525.528 4.47939C525.886 4.81744 525.922 5.38589 525.564 5.74762C521.948 9.63202 517.794 12.9293 514.106 16.7125C513.748 17.0656 513.175 17.0706 512.817 16.7233C512.495 16.3762 512.459 15.8078 512.817 15.4547Z" fill="#D5A803"/>
<path fill-rule="evenodd" clip-rule="evenodd" d="M505.905 0.945891C505.798 3.10484 505.691 5.26379 505.583 7.4231C505.583 7.91762 505.154 8.29946 504.652 8.27542C504.151 8.25101 503.793 7.83006 503.793 7.33518C503.9 5.17264 504.008 3.01046 504.115 0.848278C504.151 0.353757 504.581 -0.0255669 505.082 0.00134821C505.547 0.0282633 505.941 0.451729 505.905 0.945891Z" fill="#D5A803"/>
</g>
<defs>
<clipPath id="clip0_1158_16970">
<rect width="528" height="93" fill="white"/>
</clipPath>
</defs>
</svg>
