<svg width="225" height="65" viewBox="0 0 225 65" fill="none" xmlns="http://www.w3.org/2000/svg">
<g clip-path="url(#clip0_391_4758)">
<path opacity="0.94" fill-rule="evenodd" clip-rule="evenodd" d="M12.7437 -0.0410156C13.0241 -0.0410156 13.3047 -0.0410156 13.5851 -0.0410156C14.1387 0.0291182 14.6997 0.127094 15.2681 0.252912C16.4661 0.696785 17.6722 1.11668 18.8864 1.5126C20.4584 1.89902 22.0291 1.89902 23.5987 1.5126C24.9 1.01436 26.2183 0.566473 27.5536 0.168933C30.237 -0.127344 32.6491 0.544491 34.7902 2.18444C35.4228 2.65127 35.8576 3.25312 36.0945 3.98999C36.2452 5.10124 35.7824 5.84305 34.7061 6.21544C33.2291 6.66009 31.7986 7.21995 30.4146 7.89503C27.1356 9.93926 25.1021 12.8645 24.3139 16.6709C24.1658 18.5152 24.5865 20.2229 25.5761 21.7936C26.1324 22.6567 26.7214 23.4965 27.3432 24.313C29.402 26.6191 31.3654 28.9984 33.2335 31.4512C35.7471 26.3384 36.785 20.9358 36.347 15.2432C36.2341 13.5592 35.9957 11.8936 35.6317 10.2465C35.6658 10.1671 35.7219 10.1111 35.8 10.0785C36.1252 10.0192 36.4477 9.94925 36.7677 9.86855C36.8098 9.89651 36.8519 9.92456 36.8939 9.95253C38.6477 17.8969 37.7221 25.511 34.1171 32.7949C36.6576 36.9523 37.2606 41.3752 35.9262 46.0636C35.0049 49.05 33.6585 51.8213 31.8872 54.3776C30.1492 56.8086 28.2698 59.132 26.2493 61.3479C25.0402 62.5405 23.8482 63.7442 22.673 64.959C22.645 64.959 22.6169 64.959 22.5889 64.959C22.9464 56.8896 24.7556 49.1635 28.0164 41.7807C29.4665 38.7822 30.9671 35.8149 32.5183 32.8789C31.8312 31.7585 31.0598 30.6948 30.2042 29.6877C28.7422 28.0328 27.3117 26.3532 25.9127 24.6489C24.9258 23.3545 24.1125 21.9549 23.4724 20.4499C22.6779 18.1408 22.7902 15.8734 23.809 13.6476C25.7823 9.0982 29.1902 6.22895 34.0329 5.03973C34.3986 4.92886 34.6791 4.71892 34.8744 4.40989C34.5585 3.74471 34.0816 3.22684 33.4439 2.85627C32.0597 1.96189 30.545 1.44402 28.8999 1.30265C28.5924 1.35152 28.2838 1.39351 27.9743 1.42862C26.4149 1.96606 24.8441 2.46993 23.2621 2.94025C21.1638 3.25544 19.1161 3.05949 17.1193 2.3524C13.9279 0.801891 10.8424 0.997842 7.86312 2.94025C7.1444 3.39714 6.47122 3.91501 5.84359 4.49387C5.49135 4.21234 5.18281 3.89043 4.91797 3.52811C7.1114 1.42573 9.72 0.236024 12.7437 -0.0410156ZM33.3597 34.3065C35.0944 37.2463 35.6694 40.4096 35.0848 43.7962C34.5867 46.3511 33.6891 48.7584 32.392 51.0184C30.1216 54.8537 27.4009 58.3528 24.2298 61.5158C24.8643 54.2519 26.7717 47.3375 29.9518 40.7729C31.0459 38.5887 32.1819 36.4332 33.3597 34.3065Z" fill="white"/>
<path opacity="0.936" fill-rule="evenodd" clip-rule="evenodd" d="M109.344 0.460948C110.002 0.418151 110.339 0.726076 110.354 1.38472C110.311 1.75375 110.24 2.11766 110.144 2.47645C108.199 7.14173 106.348 11.8446 104.59 16.585C102.314 22.9549 100.631 29.4773 99.5411 36.1522C99.3476 37.49 99.2912 38.8336 99.3728 40.1832C99.4157 40.3829 99.4721 40.5789 99.5411 40.771C99.7894 40.9773 100.013 41.2013 100.214 41.4429C100.346 41.9372 100.164 42.2172 99.6673 42.2827C99.0514 42.1861 98.6164 41.8502 98.3631 41.2749C98.2108 40.898 98.1266 40.5062 98.1106 40.0992C98.0282 38.1802 98.1678 36.2767 98.5314 34.3886C99.9804 26.4954 102.196 18.8253 105.179 11.3783C106.301 8.63491 107.423 5.89161 108.545 3.14829C108.628 2.98475 108.656 2.81679 108.629 2.64441C106.908 4.44556 105.281 6.32109 103.748 8.27103C101.015 11.8802 98.3218 15.5194 95.6704 19.1883C94.7405 20.4248 93.7165 21.5865 92.599 22.6735C92.0335 23.2255 91.3603 23.4214 90.5794 23.2613C90.0922 23.0032 89.8255 22.5973 89.78 22.0436C89.6765 20.8646 89.7742 19.703 90.0746 18.5585C87.052 23.2717 83.9529 28.0166 80.7763 32.793C80.434 33.3316 80.1254 33.8914 79.8507 34.4726C79.5819 34.879 79.2313 34.977 78.7988 34.7665C78.6671 34.6251 78.5829 34.4571 78.5464 34.2626C78.8067 33.673 79.1013 33.0992 79.4299 32.541C81.7509 29.0562 84.0509 25.5572 86.33 22.0436C88.2536 18.9736 90.0771 15.8384 91.7996 12.638C92.5064 10.4713 93.3757 8.37181 94.4081 6.3395C94.6597 5.94887 95.0098 5.8229 95.46 5.96159C95.7444 6.22468 95.842 6.5466 95.7545 6.92736C95.5408 7.73482 95.2606 8.5186 94.913 9.27878C94.2626 10.6607 93.5894 12.0324 92.8935 13.3938C91.9738 15.8933 91.3149 18.4547 90.916 21.0779C90.9825 21.3362 91.0246 21.6021 91.0423 21.8757C91.1037 22.0149 91.2013 22.0569 91.3368 22.0016C92.3028 21.1774 93.1863 20.2676 93.9874 19.2723C96.4841 15.8852 98.9799 12.498 101.477 9.11082C103.548 6.42008 105.75 3.83072 108.082 1.34273C108.482 1.00461 108.903 0.710685 109.344 0.460948Z" fill="white"/>
<path opacity="0.939" fill-rule="evenodd" clip-rule="evenodd" d="M157.981 0.714075C158.771 0.633519 159.164 0.99743 159.16 1.80581C159.131 2.00457 159.089 2.20052 159.033 2.39366C156.925 7.07878 155.073 11.8656 153.48 16.7541C153.16 17.7236 152.907 18.7033 152.722 19.6934C155.121 14.6405 158.445 10.2875 162.694 6.63462C164.532 5.13952 166.58 3.9918 168.836 3.19146C170.57 2.61778 172.308 2.58979 174.054 3.10749C176.127 4.05954 177.193 5.68314 177.251 7.97829C177.054 9.95281 176.395 11.7584 175.274 13.395C172.322 17.5176 168.633 20.8068 164.208 23.2625C161.968 24.4881 159.584 25.2859 157.056 25.6559C158.827 27.2423 160.706 28.684 162.694 29.9809C165.911 31.863 168.996 31.6671 171.95 29.393C174.31 27.3453 176.47 25.106 178.429 22.6747C178.963 22.4698 179.327 22.6378 179.523 23.1785C179.469 23.3671 179.399 23.5491 179.313 23.7244C177.515 25.9667 175.538 28.0521 173.38 29.9809C171.782 31.2957 169.96 32.1355 167.911 32.5002C166.333 32.6276 164.818 32.3756 163.367 31.7444C162.4 31.2763 161.474 30.7443 160.59 30.1488C158.746 28.7568 156.951 27.3012 155.205 25.7819C154.059 25.6755 152.938 25.4795 151.839 25.194C151.539 25.979 151.272 26.7768 151.039 27.5875C150.295 31.3557 149.721 35.1488 149.314 38.9667C149.329 39.2906 149.357 39.6125 149.398 39.9324C149.997 40.035 150.179 40.3709 149.945 40.9402C149.542 41.3967 149.08 41.4667 148.557 41.1501C148.376 40.9428 148.25 40.7049 148.178 40.4363C148.017 39.2892 148.017 38.1416 148.178 36.9931C148.579 34.5097 148.915 32.0184 149.188 29.519C149.677 27.8082 150.014 26.0726 150.198 24.3123C149.727 24.0111 149.307 23.6472 148.936 23.2205C148.594 23.7303 148.187 24.1922 147.715 24.6062C145.121 26.9721 142.429 29.2116 139.637 31.3245C138.203 32.3484 136.689 33.2441 135.093 34.0119C132.432 34.8139 131.085 33.8201 131.054 31.0306C131.322 27.8934 132.177 24.9261 133.621 22.1288C135.385 18.5205 137.293 15.0214 139.343 11.6314C135.749 16.1422 132.186 20.6771 128.656 25.236C126.302 28.1746 123.735 30.9319 120.957 33.508C119.62 34.6737 118.19 35.7095 116.665 36.6152C115.365 37.3789 113.963 37.8128 112.458 37.9169C110.46 37.7562 109.1 36.7484 108.377 34.8937C107.629 31.1677 108.022 27.5566 109.555 24.0603C111.557 19.8271 114.376 16.23 118.012 13.269C123.802 8.89946 130.253 7.49979 137.365 9.07002C137.981 9.24427 138.584 9.45422 139.175 9.69986C140.192 8.51533 141.216 7.32563 142.246 6.13074C142.663 5.84171 143.071 5.85571 143.466 6.17273C143.624 6.62813 143.596 7.07602 143.382 7.5164C142.826 8.6686 142.195 9.77435 141.489 10.8336C142.429 11.6043 143.257 12.486 143.971 13.4789C144.421 14.2093 144.73 14.9931 144.897 15.8304C144.958 16.4222 144.93 17.0101 144.812 17.5939C144.389 17.9533 143.996 17.9253 143.634 17.5099C143.782 16.4376 143.586 15.4299 143.045 14.4867C142.462 13.4988 141.691 12.6869 140.731 12.0513C138.065 16.2259 135.722 20.5928 133.705 25.1521C132.964 27.0735 132.502 29.061 132.317 31.1146C132.304 31.7913 132.501 32.3931 132.906 32.9201C133.379 33.0785 133.856 33.0785 134.336 32.9201C135.799 32.3159 137.174 31.5601 138.459 30.6527C141.776 28.1828 144.946 25.5235 147.968 22.6747C148.108 22.6467 148.248 22.6187 148.389 22.5907C147.913 22.063 147.758 21.4611 147.926 20.7851C148.249 20.407 148.656 20.281 149.146 20.4072C149.727 20.5303 150.287 20.7122 150.829 20.9531C152.498 15.0753 154.546 9.32271 156.972 3.69534C156.765 3.24067 156.751 2.77878 156.93 2.30968C157.2 1.71167 157.551 1.17981 157.981 0.714075ZM171.024 3.98927C172.686 3.77197 174.075 4.27585 175.19 5.5009C175.938 6.70582 176.107 7.99351 175.694 9.36395C175.109 11.1209 174.24 12.7165 173.086 14.1508C170.142 17.6495 166.649 20.4628 162.61 22.5907C160.432 23.6659 158.132 24.2957 155.709 24.4802C154.77 23.7798 153.873 23.038 153.017 22.2548C155.445 16.4738 159.036 11.547 163.788 7.47441C165.928 5.74814 168.341 4.58642 171.024 3.98927ZM130.381 9.69986C133.028 9.52124 135.608 9.84313 138.123 10.6656C138.314 10.7564 138.327 10.8824 138.165 11.0435C134.462 15.7464 130.76 20.4492 127.057 25.1521C125.063 27.5345 122.946 29.8159 120.704 31.9964C119.293 33.2181 117.806 34.3379 116.244 35.3555C115.321 35.8959 114.339 36.2878 113.299 36.5313C110.95 36.7354 109.617 35.6577 109.302 33.2981C109.118 29.2741 110.044 25.523 112.079 22.0448C114.389 18.063 117.517 14.8858 121.462 12.5132C124.255 10.9724 127.229 10.0346 130.381 9.69986ZM149.398 21.7929C149.848 21.891 150.269 22.0589 150.661 22.2968C150.614 22.4944 150.557 22.6904 150.492 22.8846C150.042 22.6029 149.677 22.239 149.398 21.7929ZM152.428 23.5565C153.715 24.2691 153.66 24.3951 152.259 23.9344C152.35 23.8227 152.407 23.6967 152.428 23.5565Z" fill="white"/>
<path opacity="0.935" fill-rule="evenodd" clip-rule="evenodd" d="M71.8992 4.07422C74.9295 4.14542 76.2618 5.68504 75.8962 8.69308C75.4938 10.6254 74.7926 12.4449 73.7925 14.1517C73.0598 15.5988 72.0921 16.8725 70.8894 17.9728C70.1705 18.2518 69.8479 18.0139 69.9217 17.259C72.1356 14.9414 73.6782 12.2261 74.5498 9.11298C74.8989 8.11818 74.8147 7.1664 74.2974 6.25768C73.7052 5.59847 72.9619 5.29054 72.0675 5.33391C70.0974 5.56468 68.2181 6.11055 66.4296 6.97151C61.1471 9.3624 56.505 12.6515 52.5032 16.8391C51.8174 17.6486 51.1722 18.4884 50.5679 19.3585C49.1444 21.6209 49.6634 23.2305 52.1246 24.1873C52.6524 24.3722 53.1853 24.5401 53.7234 24.6911C56.1106 25.2378 58.4948 25.7977 60.8759 26.3707C62.0795 26.7151 63.2715 27.093 64.4522 27.5044C68.0333 25.7438 71.7498 24.3301 75.6017 23.2635C76.6983 22.9718 77.8062 22.7339 78.9255 22.5497C79.5244 22.61 79.7208 22.9179 79.5145 23.4734C79.4035 23.6403 79.2493 23.7383 79.0517 23.7674C74.492 24.6497 70.1444 26.1333 66.0089 28.2183C67.7561 28.9827 69.1726 30.1443 70.2583 31.7034C71.0257 33.2952 70.9696 34.8628 70.09 36.4063C68.9942 38.06 67.5776 39.3617 65.8406 40.3113C61.7408 42.5661 57.3652 43.5179 52.7136 43.1666C51.075 42.792 50.3036 41.7703 50.3996 40.1013C50.6874 38.9389 51.2203 37.9032 51.9984 36.9941C53.3088 35.4062 54.7814 33.9926 56.4161 32.7532C58.5599 31.1932 60.7758 29.7375 63.0637 28.3862C62.3677 28.1454 61.6665 27.9214 60.96 27.7144C58.1853 27.0318 55.4084 26.36 52.6295 25.6989C51.1868 25.3788 49.9946 24.665 49.0532 23.5574C48.5755 22.5948 48.4633 21.587 48.7166 20.5342C48.899 19.9179 49.1515 19.3301 49.4739 18.7706C50.7296 16.9561 52.1741 15.2904 53.8075 13.7738C58.2903 9.72704 63.3953 6.67581 69.1223 4.62008C70.0425 4.34609 70.9681 4.16414 71.8992 4.07422ZM64.4942 28.9321C66.2695 29.6146 67.7701 30.6783 68.9961 32.1233C69.3391 32.6462 69.5495 33.2201 69.6272 33.8449C69.4809 34.8999 69.0742 35.8376 68.4071 36.6582C66.3861 38.7525 63.9599 40.1941 61.1283 40.9831C59.0061 41.6557 56.8322 42.0336 54.6069 42.1169C53.6092 42.1901 52.7117 41.9381 51.9142 41.361C51.6376 40.9846 51.5535 40.5647 51.6618 40.1013C52.0209 39.0999 52.5538 38.2041 53.2606 37.414C54.8939 35.5591 56.7312 33.9494 58.7722 32.5852C60.6707 31.3445 62.578 30.1268 64.4942 28.9321Z" fill="white"/>
<path opacity="0.94" fill-rule="evenodd" clip-rule="evenodd" d="M11.0606 64.9581C11.0325 64.9581 11.0044 64.9581 10.9764 64.9581C3.62338 58.6916 0.832501 50.7695 2.60376 41.192C2.96026 37.6215 3.66149 34.1224 4.70744 30.6946C5.10093 30.8523 5.50763 30.9642 5.92758 31.0305C4.23116 36.9607 3.45981 43.0072 3.61353 49.17C4.06835 53.6311 5.77935 57.5221 8.74651 60.8431C7.37564 53.2149 9.08664 46.3845 13.8795 40.3522C15.2614 38.8055 16.5796 37.2099 17.8344 35.5654C18.0027 35.2295 18.171 34.8935 18.3393 34.5576C18.697 33.1029 18.1501 32.1651 16.6984 31.7443C14.9903 31.3418 13.2793 30.9499 11.5654 30.5686C7.90393 29.5475 5.11304 27.406 3.19279 24.1442C1.53524 21.128 0.623647 17.9088 0.458008 14.4866C0.458008 13.8707 0.458008 13.2548 0.458008 12.639C0.532453 10.9666 0.883067 9.34299 1.50985 7.76821C1.94676 6.77232 2.66201 6.05849 3.6556 5.62674C4.10439 5.57075 4.55318 5.57075 5.00196 5.62674C5.89504 5.89586 6.79261 6.1478 7.69467 6.38255C9.65387 6.6427 11.477 6.2508 13.1642 5.20684C16.1511 4.06607 19.0963 4.17804 21.9997 5.54276C20.0509 8.21615 18.8587 11.1974 18.4234 14.4866C18.1464 16.9672 18.6232 19.2907 19.854 21.4568C24.6247 28.1842 26.3076 35.6304 24.9028 43.7953C23.3053 52.1405 18.7614 58.2989 11.2709 62.2708C11.8843 57.3546 13.1184 52.5958 14.9734 47.9943C15.6291 46.3484 16.4986 44.8368 17.582 43.4594C19.3628 41.798 21.4805 40.9301 23.9351 40.8561C24.4156 35.4576 23.3918 30.3629 20.8637 25.5718C19.8746 24.074 18.9489 22.5344 18.0869 20.953C16.9297 18.0535 16.7333 15.0863 17.4978 12.0512C18.0142 9.97284 18.8417 8.02731 19.9802 6.2146C18.1379 5.63507 16.2867 5.60708 14.4265 6.13062C13.38 6.62483 12.3141 7.07272 11.2289 7.47429C10.0936 7.74582 8.94359 7.8298 7.77882 7.72622C6.61799 7.47537 5.46798 7.18144 4.32878 6.84444C3.74487 6.93657 3.3101 7.24449 3.0245 7.76821C2.11788 9.59073 1.71117 11.5223 1.80436 13.5628C1.78935 17.3384 2.75705 20.8376 4.70744 24.0602C6.32654 26.5425 8.55644 28.2361 11.3972 29.141C12.981 29.5691 14.5798 29.933 16.1935 30.2327C19.4864 30.9388 20.4821 32.8283 19.1808 35.9013C18.7085 36.6245 18.2036 37.3244 17.6661 38.0008C15.935 39.8676 14.3643 41.8552 12.9539 43.9633C9.99543 48.9687 9.01376 54.3434 10.0087 60.0873C10.2897 61.7274 10.6403 63.351 11.0606 64.9581ZM23.5985 42.1158C23.687 42.1032 23.7712 42.1172 23.8509 42.1577C22.8415 49.6221 19.2372 55.4586 13.038 59.6674C13.6839 55.8022 14.7497 52.0511 16.2356 48.4142C16.7863 47.0625 17.4875 45.8028 18.3393 44.6351C19.7962 43.1733 21.5493 42.3335 23.5985 42.1158Z" fill="white"/>
<path opacity="0.941" fill-rule="evenodd" clip-rule="evenodd" d="M219.577 4.49219C220.615 4.54141 221.653 4.5834 222.691 4.61816C223.124 4.6407 223.545 4.72468 223.953 4.87009C224.444 5.2592 224.5 5.70709 224.121 6.21376C224.006 6.28724 223.88 6.32923 223.743 6.33973C223.42 6.18451 223.097 6.03055 222.775 5.87785C216.191 5.66339 209.656 6.12527 203.169 7.26351C197.246 16.922 193.067 27.2655 190.631 38.2939C190.266 38.3905 189.944 38.3206 189.663 38.0839C189.607 37.692 189.607 37.3001 189.663 36.9082C191.912 27.0507 195.573 17.757 200.644 9.02707C200.293 8.57283 200.32 8.13892 200.728 7.72539C195.113 8.60852 189.672 10.1201 184.404 12.2603C182.72 12.9526 181.248 13.9463 179.986 15.2415C179.528 15.8105 179.5 16.3984 179.902 17.0051C180.696 17.8982 181.663 18.5281 182.805 18.8946C184.09 19.3277 185.409 19.6076 186.76 19.7344C187.336 19.8911 187.49 20.241 187.223 20.7842C184.586 20.9482 182.159 20.2904 179.944 18.8107C179.328 18.3083 178.838 17.7065 178.472 17.0051C178.201 16.0526 178.369 15.1849 178.976 14.4017C180.434 12.9246 182.131 11.7908 184.067 11.0006C187.513 9.61165 191.047 8.49187 194.67 7.64141C197.094 7.06232 199.534 6.55844 201.991 6.12978C202.388 5.77249 202.823 5.70251 203.295 5.91984C208.701 5.04635 214.128 4.57046 219.577 4.49219Z" fill="white"/>
<path opacity="0.907" fill-rule="evenodd" clip-rule="evenodd" d="M129.372 50.3451C130.101 50.3311 130.831 50.3451 131.559 50.3871C132.054 50.4103 132.531 50.4943 132.99 50.639C132.937 50.9018 132.881 51.1677 132.822 51.4368C131.657 51.1165 130.479 51.0465 129.287 51.2269C128.39 51.7279 128.124 52.4697 128.488 53.4523C128.554 53.6023 128.652 53.7283 128.783 53.8302C129.865 54.1772 130.959 54.4852 132.064 54.754C132.818 55.1667 133.183 55.8105 133.158 56.6855C133.087 58.6603 132.063 59.57 130.087 59.4148C129.229 59.3804 128.374 59.3244 127.52 59.2469C127.541 58.9602 127.596 58.6803 127.689 58.4071C128.744 58.6159 129.81 58.686 130.886 58.617C131.566 58.4701 132.001 58.0642 132.191 57.3993C132.247 56.9794 132.247 56.5595 132.191 56.1396C132.068 55.9331 131.914 55.7511 131.728 55.5938C130.694 55.3034 129.656 55.0235 128.614 54.754C127.776 54.3268 127.411 53.6409 127.52 52.6965C127.48 51.3937 128.097 50.6099 129.372 50.3451Z" fill="white"/>
<path opacity="0.907" fill-rule="evenodd" clip-rule="evenodd" d="M151.25 50.3451C151.98 50.3311 152.709 50.3451 153.438 50.3871C153.933 50.4103 154.409 50.4943 154.868 50.639C154.815 50.9018 154.759 51.1677 154.7 51.4368C153.535 51.1165 152.357 51.0465 151.166 51.2269C150.269 51.7279 150.002 52.4697 150.366 53.4523C150.432 53.6023 150.531 53.7283 150.661 53.8302C151.743 54.1772 152.837 54.4852 153.943 54.754C154.697 55.1667 155.062 55.8105 155.037 56.6855C154.965 58.6603 153.941 59.57 151.965 59.4148C151.108 59.3804 150.253 59.3244 149.399 59.2469C149.419 58.9602 149.475 58.6803 149.567 58.4071C150.622 58.6159 151.688 58.686 152.765 58.617C153.445 58.4701 153.88 58.0642 154.069 57.3993C154.125 56.9794 154.125 56.5595 154.069 56.1396C153.946 55.9331 153.792 55.7511 153.606 55.5938C152.572 55.3034 151.534 55.0235 150.493 54.754C149.655 54.3268 149.289 53.6409 149.399 52.6965C149.358 51.3937 149.975 50.6099 151.25 50.3451Z" fill="white"/>
<path opacity="0.912" fill-rule="evenodd" clip-rule="evenodd" d="M51.1147 50.431C52.4895 50.417 53.8638 50.431 55.238 50.473C56.4304 50.7344 57.1176 51.4762 57.2996 52.6985C57.6169 54.2803 57.5608 55.848 57.1313 57.4013C56.762 58.3861 56.0747 59.0159 55.0697 59.2909C53.7517 59.3328 52.4333 59.3469 51.1147 59.3328C51.1147 56.3656 51.1147 53.3983 51.1147 50.431ZM51.9562 51.1869C55.1135 50.3948 56.6843 51.5985 56.6685 54.798C56.7148 58.0247 55.1441 59.2844 51.9562 58.577C51.9562 56.1137 51.9562 53.6502 51.9562 51.1869Z" fill="white"/>
<path opacity="0.913" fill-rule="evenodd" clip-rule="evenodd" d="M63.7368 50.4297C65.5319 50.4297 67.3271 50.4297 69.1222 50.4297C69.1222 50.6816 69.1222 50.9336 69.1222 51.1855C67.6076 51.1855 66.0929 51.1855 64.5783 51.1855C64.5783 52.2493 64.5783 53.3129 64.5783 54.3767C65.8405 54.3767 67.1027 54.3767 68.3649 54.3767C68.3649 54.6287 68.3649 54.8806 68.3649 55.1325C67.1027 55.1325 65.8405 55.1325 64.5783 55.1325C64.5783 56.2803 64.5783 57.4279 64.5783 58.5757C66.0929 58.5757 67.6076 58.5757 69.1222 58.5757C69.1222 58.8276 69.1222 59.0796 69.1222 59.3315C67.3271 59.3315 65.5319 59.3315 63.7368 59.3315C63.7368 56.3643 63.7368 53.3969 63.7368 50.4297Z" fill="white"/>
<path opacity="0.904" fill-rule="evenodd" clip-rule="evenodd" d="M75.0967 50.4293C75.6233 50.4033 76.1421 50.4313 76.6534 50.5133C77.9442 53.2036 79.2345 55.8909 80.5242 58.5753C80.5663 55.8601 80.5803 53.1448 80.5663 50.4293C80.8467 50.4293 81.1273 50.4293 81.4077 50.4293C81.4077 53.3966 81.4077 56.3639 81.4077 59.3311C80.8997 59.3588 80.3948 59.3308 79.8931 59.2472C78.5659 56.5701 77.2616 53.8827 75.9802 51.1851C75.9382 53.9004 75.9241 56.6157 75.9382 59.3311C75.6577 59.3311 75.3771 59.3311 75.0967 59.3311C75.0967 56.3639 75.0967 53.3966 75.0967 50.4293Z" fill="white"/>
<path opacity="0.934" fill-rule="evenodd" clip-rule="evenodd" d="M86.9614 50.4297C89.0929 50.4297 91.2252 50.4297 93.3566 50.4297C93.3566 50.6816 93.3566 50.9336 93.3566 51.1855C92.431 51.1855 91.5054 51.1855 90.5798 51.1855C90.5798 53.9008 90.5798 56.6162 90.5798 59.3315C90.2995 59.3315 90.0185 59.3315 89.7383 59.3315C89.7383 56.6162 89.7383 53.9008 89.7383 51.1855C88.8127 51.1855 87.887 51.1855 86.9614 51.1855C86.9614 50.9336 86.9614 50.6816 86.9614 50.4297Z" fill="white"/>
<path opacity="0.915" fill-rule="evenodd" clip-rule="evenodd" d="M100.088 50.4297C100.705 50.4297 101.322 50.4297 101.939 50.4297C102.781 53.3969 103.622 56.3643 104.464 59.3315C104.184 59.3315 103.902 59.3315 103.622 59.3315C103.398 58.4917 103.174 57.6519 102.949 56.8121C101.657 56.7842 100.367 56.8122 99.0783 56.8961C98.8141 57.6984 98.5902 58.5103 98.4051 59.3315C98.0955 59.3454 97.7866 59.3314 97.4795 59.2895C98.3916 56.3494 99.2609 53.3962 100.088 50.4297ZM100.761 51.1855C100.978 51.1505 101.161 51.2065 101.308 51.3535C101.758 52.8974 102.221 54.437 102.697 55.9723C101.575 56.0843 100.452 56.0843 99.3307 55.9723C99.8247 54.3807 100.302 52.7851 100.761 51.1855Z" fill="white"/>
<path opacity="0.902" fill-rule="evenodd" clip-rule="evenodd" d="M110.186 50.4297C110.466 50.4297 110.747 50.4297 111.028 50.4297C111.028 53.145 111.028 55.8604 111.028 58.5757C112.402 58.5757 113.777 58.5757 115.151 58.5757C115.151 58.8276 115.151 59.0796 115.151 59.3315C113.496 59.3315 111.841 59.3315 110.186 59.3315C110.186 56.3643 110.186 53.3969 110.186 50.4297Z" fill="white"/>
<path opacity="0.909" fill-rule="evenodd" clip-rule="evenodd" d="M137.955 50.5136C138.297 50.4026 138.647 50.4026 139.006 50.5136C139.743 51.8988 140.5 53.2704 141.278 54.6286C142.021 53.257 142.765 51.8853 143.508 50.5136C143.845 50.4017 144.181 50.4017 144.518 50.5136C143.578 52.2212 142.639 53.9288 141.699 55.6364C141.657 56.8678 141.643 58.0995 141.657 59.3315C141.377 59.3315 141.096 59.3315 140.816 59.3315C140.83 58.0435 140.816 56.7558 140.774 55.4684C139.832 53.8116 138.892 52.16 137.955 50.5136Z" fill="white"/>
<path opacity="0.934" fill-rule="evenodd" clip-rule="evenodd" d="M160.085 50.4297C162.217 50.4297 164.349 50.4297 166.48 50.4297C166.48 50.6816 166.48 50.9336 166.48 51.1855C165.555 51.1855 164.629 51.1855 163.704 51.1855C163.704 53.9008 163.704 56.6162 163.704 59.3315C163.423 59.3315 163.142 59.3315 162.862 59.3315C162.862 56.6162 162.862 53.9008 162.862 51.1855C161.936 51.1855 161.011 51.1855 160.085 51.1855C160.085 50.9336 160.085 50.6816 160.085 50.4297Z" fill="white"/>
<path opacity="0.913" fill-rule="evenodd" clip-rule="evenodd" d="M172.118 50.4297C173.913 50.4297 175.709 50.4297 177.504 50.4297C177.504 50.6816 177.504 50.9336 177.504 51.1855C175.989 51.1855 174.475 51.1855 172.96 51.1855C172.96 52.2493 172.96 53.3129 172.96 54.3767C174.222 54.3767 175.484 54.3767 176.747 54.3767C176.747 54.6287 176.747 54.8806 176.747 55.1325C175.484 55.1325 174.222 55.1325 172.96 55.1325C172.96 56.2803 172.96 57.4279 172.96 58.5757C174.475 58.5757 175.989 58.5757 177.504 58.5757C177.504 58.8276 177.504 59.0796 177.504 59.3315C175.709 59.3315 173.913 59.3315 172.118 59.3315C172.118 56.3643 172.118 53.3969 172.118 50.4297Z" fill="white"/>
<path opacity="0.913" fill-rule="evenodd" clip-rule="evenodd" d="M183.478 50.4283C183.959 50.4006 184.435 50.4287 184.909 50.5122C185.843 52.9664 186.755 55.4299 187.643 57.9024C188.563 55.4422 189.475 52.9789 190.378 50.5122C190.852 50.4287 191.328 50.4006 191.809 50.4283C191.809 53.3955 191.809 56.3628 191.809 59.3301C191.528 59.3301 191.247 59.3301 190.967 59.3301C190.981 56.7546 190.967 54.1792 190.925 51.604C189.996 54.0872 189.057 56.5646 188.106 59.0361C187.776 59.1027 187.453 59.0887 187.138 58.9941C186.213 56.5027 185.287 54.0114 184.362 51.52C184.319 54.1232 184.305 56.7265 184.319 59.3301C184.039 59.3301 183.758 59.3301 183.478 59.3301C183.478 56.3628 183.478 53.3955 183.478 50.4283Z" fill="white"/>
</g>
<defs>
<clipPath id="clip0_391_4758">
<rect width="224" height="65" fill="white" transform="translate(0.5)"/>
</clipPath>
</defs>
</svg>
